<svg width="321" height="80" viewBox="0 0 321 80" fill="none" xmlns="http://www.w3.org/2000/svg">
<path fill-rule="evenodd" clip-rule="evenodd" d="M46.1043 49.7292L43.9168 72.8542L0.0626221 76.2917C0.270955 64.1736 0.49665 52.125 0.739705 40.1458C1.01748 28.1667 1.34734 16.1181 1.72929 4H28.8126C28.014 11.6042 27.2501 19.2083 26.521 26.8125C25.7918 34.3819 25.271 42.0208 24.9585 49.7292C26.5904 49.7986 28.205 49.8333 29.8022 49.8333H34.646C36.5904 49.8333 38.5001 49.816 40.3751 49.7812C42.2501 49.7465 44.1598 49.7292 46.1043 49.7292ZM114.229 74.9375L88.396 78.2708L85.271 66.5H73.396L70.7918 78.2708L44.2293 75.6667L64.9585 6.29167L93.9168 4.83333L114.229 74.9375ZM83.396 50.5625L79.4376 32.4375L75.5835 50.5625H83.396ZM163.042 50.3122L160.854 73.4372L117 76.8747C117.208 64.7566 117.434 52.708 117.677 40.7288C117.955 28.7497 118.285 16.7011 118.667 4.58301H145.75C144.951 12.1872 144.187 19.7913 143.458 27.3955C142.729 34.965 142.208 42.6038 141.896 50.3122C143.528 50.3816 145.142 50.4163 146.74 50.4163H151.583C153.528 50.4163 155.437 50.399 157.312 50.3643C159.187 50.3295 161.097 50.3122 163.042 50.3122ZM166.875 75.5205L192.708 78.8538L195.833 67.083H207.708L210.312 78.8538L236.875 76.2497L216.146 6.87468L187.187 5.41634L166.875 75.5205ZM197.708 51.1455L201.667 33.0205L205.521 51.1455H197.708ZM264.036 41.9043H257.607V76.19H263.388L263.69 73.6138C264.366 74.5122 265.173 75.2221 266.112 75.7436C267.198 76.3388 268.478 76.6364 269.951 76.6364C271.528 76.6364 272.897 76.3388 274.058 75.7436C275.234 75.1335 276.216 74.2852 277.005 73.1989C277.793 72.0977 278.374 70.7957 278.746 69.2927C279.133 67.7897 279.326 66.1379 279.326 64.3373V63.8686C279.326 62.068 279.133 60.4236 278.746 58.9355C278.374 57.4326 277.793 56.1379 277.005 55.0516C276.231 53.9504 275.249 53.1022 274.058 52.507C272.883 51.8969 271.499 51.5918 269.906 51.5918C268.448 51.5918 267.183 51.8894 266.112 52.4847C265.328 52.9199 264.636 53.4865 264.036 54.1843V41.9043ZM264.036 69.0207V59.2269C264.182 58.9022 264.353 58.6042 264.549 58.3329C264.951 57.7972 265.457 57.3805 266.067 57.0829C266.677 56.7853 267.421 56.6364 268.299 56.6364C269.222 56.6364 269.973 56.8299 270.554 57.2168C271.149 57.6037 271.618 58.132 271.96 58.8016C272.302 59.4564 272.54 60.2228 272.674 61.1007C272.823 61.9638 272.897 62.8864 272.897 63.8686V64.3373C272.897 65.379 272.83 66.3463 272.697 67.2391C272.563 68.1171 272.324 68.8835 271.982 69.5382C271.655 70.193 271.194 70.6989 270.598 71.0561C270.003 71.4132 269.252 71.5918 268.344 71.5918C267.183 71.5918 266.238 71.3388 265.509 70.8329C264.879 70.3735 264.388 69.7695 264.036 69.0207ZM245.643 70.6989C244.988 71.3388 244.661 72.1349 244.661 73.0873C244.661 74.0397 244.988 74.8358 245.643 75.4757C246.313 76.1156 247.198 76.4355 248.299 76.4355C249.4 76.4355 250.278 76.1156 250.933 75.4757C251.603 74.8358 251.938 74.0397 251.938 73.0873C251.938 72.1349 251.603 71.3388 250.933 70.6989C250.278 70.0591 249.4 69.7391 248.299 69.7391C247.198 69.7391 246.313 70.0591 245.643 70.6989ZM294.438 76.6364C292.563 76.6364 290.881 76.3388 289.393 75.7436C287.905 75.1335 286.64 74.2927 285.598 73.2213C284.572 72.1498 283.783 70.9073 283.232 69.4936C282.682 68.065 282.406 66.5472 282.406 64.94V64.0472C282.406 62.2168 282.667 60.5427 283.188 59.0248C283.708 57.507 284.452 56.19 285.42 55.0739C286.402 53.9579 287.592 53.1022 288.991 52.507C290.39 51.8969 291.967 51.5918 293.723 51.5918C295.435 51.5918 296.952 51.8745 298.277 52.44C299.601 53.0055 300.71 53.8091 301.603 54.8507C302.51 55.8924 303.195 57.1424 303.656 58.6007C304.118 60.0442 304.348 61.6513 304.348 63.4222V66.1007H288.926C288.991 66.6323 289.102 67.1383 289.259 67.6186C289.542 68.437 289.936 69.1439 290.442 69.7391C290.963 70.3344 291.588 70.7957 292.317 71.123C293.061 71.4504 293.902 71.6141 294.839 71.6141C296 71.6141 297.079 71.3909 298.076 70.9445C299.088 70.4832 299.958 69.7912 300.688 68.8686L303.813 72.2614C303.307 72.9906 302.615 73.69 301.737 74.3596C300.874 75.0293 299.832 75.5799 298.612 76.0114C297.391 76.4281 296 76.6364 294.438 76.6364ZM289.125 61.1007C289.079 61.3328 289.038 61.5709 289.004 61.815H298.031V61.3239C298.031 60.4311 297.868 59.635 297.54 58.9355C297.228 58.2213 296.752 57.6558 296.112 57.2391C295.472 56.8225 294.653 56.6141 293.656 56.6141C292.808 56.6141 292.079 56.8001 291.469 57.1722C290.859 57.5442 290.36 58.065 289.973 58.7347C289.601 59.4043 289.319 60.193 289.125 61.1007ZM319.839 56.5918V52.0382H315.688V46.0784H309.259V52.0382H305.777V56.5918H309.259V69.5605C309.259 71.257 309.542 72.626 310.107 73.6677C310.673 74.7094 311.476 75.4683 312.518 75.9445C313.574 76.4058 314.81 76.6364 316.223 76.6364C316.997 76.6364 317.704 76.5844 318.344 76.4802C318.984 76.376 319.579 76.2346 320.13 76.0561L320.107 71.3239C319.884 71.3686 319.609 71.4132 319.281 71.4579C318.969 71.4876 318.612 71.5025 318.21 71.5025C317.644 71.5025 317.176 71.4355 316.804 71.3016C316.432 71.1528 316.149 70.8924 315.955 70.5204C315.777 70.1483 315.688 69.6126 315.688 68.9132V56.5918H319.839Z" fill="#16103D"/>
</svg>
