<svg width="217" height="54" viewBox="0 0 217 54" fill="none" xmlns="http://www.w3.org/2000/svg">
<path fill-rule="evenodd" clip-rule="evenodd" d="M31.4453 33.5674L29.9688 49.1768L0.367188 51.4971C0.507812 43.3174 0.660156 35.1846 0.824219 27.0986C1.01172 19.0127 1.23438 10.8799 1.49219 2.7002H19.7734C19.2344 7.83301 18.7188 12.9658 18.2266 18.0986C17.7344 23.208 17.3828 28.3643 17.1719 33.5674C18.2734 33.6143 19.3633 33.6377 20.4414 33.6377H23.7109C25.0234 33.6377 26.3125 33.626 27.5781 33.6025C28.8438 33.5791 30.1328 33.5674 31.4453 33.5674ZM77.4297 50.583L59.9922 52.833L57.8828 44.8877H49.8672L48.1094 52.833L30.1797 51.0752L44.1719 4.24707L63.7188 3.2627L77.4297 50.583ZM56.6172 34.1299L53.9453 21.8955L51.3438 34.1299H56.6172ZM110.378 33.9601L108.902 49.5694L79.3 51.8897C79.4407 43.7101 79.593 35.5772 79.7571 27.4913C79.9446 19.4054 80.1672 11.2726 80.425 3.09287H98.7063C98.1672 8.22568 97.6516 13.3585 97.1594 18.4913C96.6672 23.6007 96.3157 28.7569 96.1047 33.9601C97.2063 34.0069 98.2961 34.0304 99.3743 34.0304H102.644C103.956 34.0304 105.245 34.0187 106.511 33.9952C107.777 33.9718 109.066 33.9601 110.378 33.9601ZM112.966 50.9757L130.403 53.2257L132.512 45.2804H140.528L142.286 53.2257L160.216 51.4679L146.223 4.63975L126.677 3.65537L112.966 50.9757ZM133.778 34.5226L136.45 22.2882L139.052 34.5226H133.778ZM178.549 28.2854H174.21V51.4283H178.112L178.316 49.6893C178.772 50.2957 179.317 50.7749 179.951 51.1269C180.684 51.5287 181.548 51.7296 182.542 51.7296C183.607 51.7296 184.531 51.5287 185.314 51.1269C186.108 50.7151 186.771 50.1425 187.303 49.4093C187.836 48.666 188.227 47.7871 188.479 46.7726C188.74 45.7581 188.87 44.6431 188.87 43.4277V43.1113C188.87 41.8959 188.74 40.786 188.479 39.7815C188.227 38.767 187.836 37.8931 187.303 37.1598C186.781 36.4165 186.118 35.844 185.314 35.4422C184.521 35.0304 183.587 34.8245 182.512 34.8245C181.528 34.8245 180.674 35.0254 179.951 35.4271C179.422 35.7209 178.955 36.1034 178.549 36.5744V28.2854ZM178.549 46.589V39.9782C178.648 39.759 178.764 39.5578 178.896 39.3747C179.167 39.0131 179.509 38.7318 179.92 38.5309C180.332 38.33 180.835 38.2296 181.427 38.2296C182.05 38.2296 182.557 38.3602 182.949 38.6213C183.351 38.8825 183.667 39.2391 183.898 39.6911C184.129 40.1331 184.29 40.6504 184.38 41.243C184.481 41.8256 184.531 42.4483 184.531 43.1113V43.4277C184.531 44.1308 184.486 44.7837 184.395 45.3864C184.305 45.979 184.144 46.4963 183.913 46.9383C183.692 47.3803 183.381 47.7218 182.979 47.9629C182.577 48.2039 182.07 48.3245 181.457 48.3245C180.674 48.3245 180.036 48.1537 179.544 47.8122C179.119 47.5021 178.787 47.0944 178.549 46.589ZM166.134 47.7218C165.692 48.1537 165.471 48.6911 165.471 49.334C165.471 49.9768 165.692 50.5142 166.134 50.9461C166.586 51.378 167.184 51.594 167.927 51.594C168.67 51.594 169.263 51.378 169.705 50.9461C170.157 50.5142 170.383 49.9768 170.383 49.334C170.383 48.6911 170.157 48.1537 169.705 47.7218C169.263 47.2899 168.67 47.0739 167.927 47.0739C167.184 47.0739 166.586 47.2899 166.134 47.7218ZM199.071 51.7296C197.805 51.7296 196.67 51.5287 195.665 51.1269C194.661 50.7151 193.807 50.1476 193.104 49.4244C192.411 48.7011 191.879 47.8624 191.507 46.9082C191.135 45.9439 190.95 44.9193 190.95 43.8345V43.2318C190.95 41.9963 191.125 40.8663 191.477 39.8418C191.828 38.8172 192.331 37.9283 192.984 37.1749C193.646 36.4216 194.45 35.844 195.394 35.4422C196.338 35.0304 197.403 34.8245 198.588 34.8245C199.744 34.8245 200.768 35.0153 201.662 35.397C202.556 35.7787 203.304 36.3211 203.907 37.0242C204.52 37.7274 204.982 38.5711 205.293 39.5555C205.605 40.5298 205.76 41.6146 205.76 42.81V44.618H195.35C195.394 44.9768 195.469 45.3183 195.575 45.6425C195.766 46.195 196.032 46.6721 196.374 47.0739C196.725 47.4757 197.147 47.7871 197.639 48.0081C198.141 48.229 198.709 48.3395 199.342 48.3395C200.125 48.3395 200.854 48.1889 201.527 47.8875C202.21 47.5761 202.797 47.1091 203.289 46.4863L205.399 48.7765C205.057 49.2687 204.59 49.7408 203.997 50.1928C203.415 50.6448 202.712 51.0164 201.888 51.3077C201.064 51.589 200.125 51.7296 199.071 51.7296ZM195.485 41.243C195.453 41.3996 195.426 41.5603 195.403 41.7251H201.496V41.3937C201.496 40.791 201.386 40.2536 201.165 39.7815C200.954 39.2994 200.633 38.9177 200.201 38.6364C199.769 38.3552 199.216 38.2145 198.543 38.2145C197.971 38.2145 197.479 38.3401 197.067 38.5912C196.655 38.8423 196.318 39.1939 196.057 39.6459C195.806 40.0979 195.615 40.6303 195.485 41.243ZM216.217 38.1995V35.1258H213.414V31.1029H209.075V35.1258H206.725V38.1995H209.075V46.9534C209.075 48.0985 209.266 49.0226 209.648 49.7257C210.029 50.4288 210.572 50.9411 211.275 51.2625C211.988 51.5739 212.822 51.7296 213.776 51.7296C214.298 51.7296 214.775 51.6944 215.207 51.6241C215.639 51.5538 216.041 51.4584 216.413 51.3379L216.398 48.1437C216.247 48.1738 216.061 48.2039 215.84 48.2341C215.629 48.2542 215.388 48.2642 215.117 48.2642C214.735 48.2642 214.419 48.219 214.168 48.1286C213.917 48.0281 213.726 47.8524 213.595 47.6012C213.475 47.3501 213.414 46.9885 213.414 46.5164V38.1995H216.217Z" fill="#FFDC41"/>
</svg>
