<svg width="455" height="1149" viewBox="0 0 455 1149" fill="none" xmlns="http://www.w3.org/2000/svg">
<g opacity="0.05">
<path d="M273.987 273.987V262.718C267.763 262.718 262.718 267.763 262.718 273.987H273.987ZM574.5 574.5V585.769C580.724 585.769 585.769 580.724 585.769 574.5H574.5ZM273.987 285.256H424.243V262.718H273.987V285.256ZM563.231 424.244V574.5H585.769V424.244H563.231ZM574.5 563.231H424.244V585.769H574.5V563.231ZM285.256 424.243V273.987H262.718V424.243H285.256ZM424.244 563.231C347.483 563.231 285.256 501.004 285.256 424.243H262.718C262.718 513.452 335.035 585.769 424.244 585.769V563.231ZM424.243 285.256C501.004 285.256 563.231 347.483 563.231 424.244H585.769C585.769 335.035 513.452 262.718 424.243 262.718V285.256Z" fill="white" fill-opacity="0.5"/>
<path d="M349.115 349.115V337.846C342.892 337.846 337.846 342.891 337.846 349.115H349.115ZM574.5 574.5V585.769C580.724 585.769 585.769 580.724 585.769 574.5H574.5ZM349.115 360.384H424.244V337.846H349.115V360.384ZM563.231 499.372V574.5H585.769V499.372H563.231ZM574.5 563.231H499.372V585.769H574.5V563.231ZM360.385 424.243V349.115H337.846V424.243H360.385ZM499.372 563.231C422.611 563.231 360.385 501.004 360.385 424.243H337.846C337.846 513.452 410.164 585.769 499.372 585.769V563.231ZM424.244 360.384C501.004 360.384 563.231 422.611 563.231 499.372H585.769C585.769 410.164 513.452 337.846 424.244 337.846V360.384Z" fill="white" fill-opacity="0.5"/>
<path d="M273.987 875.013V886.282C267.763 886.282 262.718 881.237 262.718 875.013H273.987ZM574.5 574.5V563.231C580.724 563.231 585.769 568.276 585.769 574.5H574.5ZM273.987 863.744H424.243V886.282H273.987V863.744ZM563.231 724.756V574.5H585.769V724.756H563.231ZM574.5 585.769H424.244V563.231H574.5V585.769ZM285.256 724.757V875.013H262.718V724.757H285.256ZM424.244 585.769C347.483 585.769 285.256 647.996 285.256 724.757H262.718C262.718 635.548 335.035 563.231 424.244 563.231V585.769ZM424.243 863.744C501.004 863.744 563.231 801.517 563.231 724.756H585.769C585.769 813.965 513.452 886.282 424.243 886.282V863.744Z" fill="white" fill-opacity="0.5"/>
<path d="M349.115 799.885V811.154C342.892 811.154 337.846 806.109 337.846 799.885H349.115ZM574.5 574.5V563.231C580.724 563.231 585.769 568.276 585.769 574.5H574.5ZM349.115 788.616H424.244V811.154H349.115V788.616ZM563.231 649.628V574.5H585.769V649.628H563.231ZM574.5 585.769H499.372V563.231H574.5V585.769ZM360.385 724.757V799.885H337.846V724.757H360.385ZM499.372 585.769C422.611 585.769 360.385 647.996 360.385 724.757H337.846C337.846 635.548 410.164 563.231 499.372 563.231V585.769ZM424.244 788.616C501.004 788.616 563.231 726.389 563.231 649.628H585.769C585.769 738.836 513.452 811.154 424.244 811.154V788.616Z" fill="white" fill-opacity="0.5"/>
<path d="M574.5 149.51L582.469 141.542C578.068 137.141 570.932 137.141 566.531 141.542L574.5 149.51ZM574.5 574.5L566.531 582.468C570.932 586.869 578.068 586.869 582.469 582.468L574.5 574.5ZM566.531 157.479L672.779 263.726L688.716 247.789L582.469 141.542L566.531 157.479ZM672.779 460.284L566.531 566.531L582.469 582.468L688.716 476.221L672.779 460.284ZM582.469 566.531L476.221 460.284L460.284 476.221L566.531 582.468L582.469 566.531ZM476.221 263.726L582.469 157.479L566.531 141.542L460.284 247.789L476.221 263.726ZM476.221 460.284C421.943 406.006 421.943 318.004 476.221 263.726L460.284 247.789C397.204 310.869 397.204 413.141 460.284 476.221L476.221 460.284ZM672.779 263.726C727.057 318.004 727.057 406.006 672.779 460.284L688.716 476.221C751.796 413.141 751.796 310.869 688.716 247.789L672.779 263.726Z" fill="white" fill-opacity="0.5"/>
<path d="M574.5 255.757L582.469 247.789C578.068 243.388 570.932 243.388 566.531 247.789L574.5 255.757ZM574.5 574.499L566.531 582.468C570.932 586.869 578.068 586.869 582.469 582.468L574.5 574.499ZM566.531 263.726L619.655 316.85L635.592 300.912L582.469 247.789L566.531 263.726ZM619.655 513.407L566.531 566.531L582.469 582.468L635.592 529.344L619.655 513.407ZM582.469 566.531L529.345 513.407L513.408 529.344L566.531 582.468L582.469 566.531ZM529.345 316.85L582.469 263.726L566.531 247.789L513.408 300.912L529.345 316.85ZM529.345 513.407C475.067 459.129 475.067 371.127 529.345 316.85L513.408 300.912C450.328 363.992 450.328 466.264 513.408 529.344L529.345 513.407ZM619.655 316.85C673.933 371.127 673.933 459.129 619.655 513.407L635.592 529.344C698.672 466.264 698.672 363.992 635.592 300.912L619.655 316.85Z" fill="white" fill-opacity="0.5"/>
<path d="M149.51 574.5L141.541 582.469C137.141 578.068 137.141 570.932 141.541 566.531L149.51 574.5ZM574.499 574.5L582.468 566.531C586.869 570.932 586.869 578.068 582.468 582.469L574.499 574.5ZM157.479 566.531L263.726 672.779L247.789 688.716L141.541 582.469L157.479 566.531ZM460.283 672.779L566.531 566.531L582.468 582.469L476.221 688.716L460.283 672.779ZM566.531 582.469L460.283 476.221L476.221 460.284L582.468 566.531L566.531 582.469ZM263.726 476.221L157.479 582.469L141.541 566.531L247.789 460.284L263.726 476.221ZM460.283 476.221C406.006 421.943 318.004 421.943 263.726 476.221L247.789 460.284C310.868 397.204 413.141 397.204 476.221 460.284L460.283 476.221ZM263.726 672.779C318.004 727.057 406.006 727.057 460.283 672.779L476.221 688.716C413.141 751.796 310.868 751.796 247.789 688.716L263.726 672.779Z" fill="white" fill-opacity="0.5"/>
<path d="M255.757 574.5L247.789 582.469C243.388 578.068 243.388 570.932 247.789 566.531L255.757 574.5ZM574.499 574.5L582.468 566.531C586.869 570.932 586.869 578.068 582.468 582.469L574.499 574.5ZM263.726 566.531L316.849 619.655L300.912 635.592L247.789 582.469L263.726 566.531ZM513.407 619.655L566.531 566.531L582.468 582.469L529.344 635.592L513.407 619.655ZM566.531 582.469L513.407 529.345L529.344 513.408L582.468 566.531L566.531 582.469ZM316.849 529.345L263.726 582.469L247.789 566.531L300.912 513.408L316.849 529.345ZM513.407 529.345C459.129 475.067 371.127 475.067 316.849 529.345L300.912 513.408C363.992 450.328 466.264 450.328 529.344 513.408L513.407 529.345ZM316.849 619.655C371.127 673.933 459.129 673.933 513.407 619.655L529.344 635.592C466.264 698.672 363.992 698.672 300.912 635.592L316.849 619.655Z" fill="white" fill-opacity="0.5"/>
<path d="M574.5 999.49L566.531 1007.46C570.932 1011.86 578.068 1011.86 582.469 1007.46L574.5 999.49ZM574.5 574.5L582.469 566.532C578.068 562.131 570.932 562.131 566.531 566.532L574.5 574.5ZM582.469 991.521L476.221 885.274L460.284 901.211L566.531 1007.46L582.469 991.521ZM476.221 688.716L582.469 582.469L566.531 566.532L460.284 672.779L476.221 688.716ZM566.531 582.469L672.779 688.716L688.716 672.779L582.469 566.532L566.531 582.469ZM672.779 885.274L566.531 991.521L582.469 1007.46L688.716 901.211L672.779 885.274ZM672.779 688.716C727.057 742.994 727.057 830.996 672.779 885.274L688.716 901.211C751.796 838.131 751.796 735.859 688.716 672.779L672.779 688.716ZM476.221 885.274C421.943 830.996 421.943 742.994 476.221 688.716L460.284 672.779C397.204 735.859 397.204 838.131 460.284 901.211L476.221 885.274Z" fill="white" fill-opacity="0.5"/>
<path d="M574.5 893.242L566.531 901.211C570.932 905.612 578.068 905.612 582.469 901.211L574.5 893.242ZM574.5 574.5L582.469 566.532C578.068 562.131 570.932 562.131 566.531 566.532L574.5 574.5ZM582.469 885.274L529.345 832.15L513.408 848.087L566.531 901.211L582.469 885.274ZM529.345 635.593L582.469 582.469L566.531 566.532L513.408 619.656L529.345 635.593ZM566.531 582.469L619.655 635.593L635.592 619.656L582.469 566.532L566.531 582.469ZM619.655 832.15L566.531 885.274L582.469 901.211L635.592 848.087L619.655 832.15ZM619.655 635.593C673.933 689.871 673.933 777.872 619.655 832.15L635.592 848.087C698.672 785.008 698.672 682.735 635.592 619.656L619.655 635.593ZM529.345 832.15C475.067 777.872 475.067 689.871 529.345 635.593L513.408 619.656C450.328 682.735 450.328 785.008 513.408 848.087L529.345 832.15Z" fill="white" fill-opacity="0.5"/>
<path d="M181.861 411.864L177.548 401.452C171.798 403.834 169.067 410.426 171.449 416.176L181.861 411.864ZM574.499 574.5L578.812 584.912C584.562 582.53 587.293 575.938 584.911 570.188L574.499 574.5ZM186.173 422.275L324.992 364.775L316.367 343.952L177.548 401.452L186.173 422.275ZM506.587 439.994L564.088 578.813L584.911 570.188L527.41 431.369L506.587 439.994ZM570.187 564.089L431.368 621.589L439.993 642.412L578.812 584.912L570.187 564.089ZM249.773 546.37L192.272 407.551L171.449 416.176L228.95 554.995L249.773 546.37ZM431.368 621.589C360.451 650.964 279.148 617.287 249.773 546.37L228.95 554.995C263.088 637.413 357.576 676.551 439.993 642.412L431.368 621.589ZM324.992 364.775C395.909 335.4 477.212 369.076 506.587 439.994L527.41 431.369C493.272 348.951 398.784 309.813 316.367 343.952L324.992 364.775Z" fill="white" fill-opacity="0.5"/>
<path d="M280.02 452.523L275.708 442.112C269.958 444.493 267.227 451.085 269.609 456.835L280.02 452.523ZM574.5 574.5L578.812 584.912C584.562 582.53 587.293 575.938 584.911 570.188L574.5 574.5ZM284.333 462.934L353.742 434.184L345.117 413.361L275.708 442.112L284.333 462.934ZM535.338 509.403L564.088 578.813L584.911 570.188L556.161 500.778L535.338 509.403ZM570.187 564.089L500.778 592.839L509.403 613.662L578.812 584.912L570.187 564.089ZM319.182 517.62L290.432 448.21L269.609 456.835L298.359 526.245L319.182 517.62ZM500.778 592.839C429.86 622.214 348.557 588.537 319.182 517.62L298.359 526.245C332.498 608.662 426.985 647.8 509.403 613.662L500.778 592.839ZM353.742 434.184C424.66 404.809 505.963 438.486 535.338 509.403L556.161 500.778C522.022 418.361 427.535 379.223 345.117 413.361L353.742 434.184Z" fill="white" fill-opacity="0.5"/>
<path d="M411.864 967.139L416.176 977.551C410.426 979.932 403.834 977.202 401.452 971.452L411.864 967.139ZM574.5 574.5L570.188 564.089C575.938 561.707 582.53 564.438 584.912 570.188L574.5 574.5ZM407.551 956.728L546.37 899.227L554.995 920.05L416.176 977.551L407.551 956.728ZM621.589 717.632L564.089 578.813L584.912 570.188L642.412 709.006L621.589 717.632ZM578.813 584.912L439.994 642.412L431.369 621.589L570.188 564.089L578.813 584.912ZM364.775 824.008L422.275 962.827L401.452 971.452L343.952 832.633L364.775 824.008ZM439.994 642.412C369.077 671.787 335.4 753.09 364.775 824.008L343.952 832.633C309.813 750.215 348.951 655.728 431.369 621.589L439.994 642.412ZM546.37 899.227C617.288 869.852 650.964 788.549 621.589 717.632L642.412 709.006C676.551 791.424 637.413 885.911 554.995 920.05L546.37 899.227Z" fill="white" fill-opacity="0.5"/>
<path d="M452.523 868.979L456.835 879.39C451.085 881.772 444.493 879.042 442.112 873.292L452.523 868.979ZM574.5 574.5L570.188 564.088C575.938 561.707 582.53 564.437 584.912 570.187L574.5 574.5ZM448.21 858.568L517.62 829.817L526.245 850.64L456.835 879.39L448.21 858.568ZM592.839 648.222L564.089 578.812L584.912 570.187L613.662 639.597L592.839 648.222ZM578.813 584.911L509.403 613.662L500.778 592.839L570.188 564.088L578.813 584.911ZM434.184 795.257L462.934 864.666L442.112 873.292L413.361 803.882L434.184 795.257ZM509.403 613.662C438.486 643.037 404.809 724.34 434.184 795.257L413.361 803.882C379.223 721.465 418.361 626.977 500.778 592.839L509.403 613.662ZM517.62 829.817C588.537 800.442 622.214 719.139 592.839 648.222L613.662 639.597C647.8 722.014 608.663 816.502 526.245 850.64L517.62 829.817Z" fill="white" fill-opacity="0.5"/>
<path d="M737.136 181.861L732.824 171.45C738.574 169.068 745.166 171.799 747.548 177.549L737.136 181.861ZM574.5 574.5L578.812 584.912C573.062 587.293 566.47 584.563 564.088 578.813L574.5 574.5ZM741.449 192.273L602.63 249.773L594.005 228.951L732.824 171.45L741.449 192.273ZM527.411 431.369L584.911 570.188L564.088 578.813L506.588 439.994L527.411 431.369ZM570.187 564.089L709.006 506.588L717.631 527.411L578.812 584.912L570.187 564.089ZM784.225 324.993L726.725 186.174L747.548 177.549L805.048 316.368L784.225 324.993ZM709.006 506.588C779.923 477.213 813.6 395.91 784.225 324.993L805.048 316.368C839.187 398.785 800.049 493.273 717.631 527.411L709.006 506.588ZM602.63 249.773C531.712 279.148 498.036 360.451 527.411 431.369L506.588 439.994C472.449 357.576 511.587 263.089 594.005 228.951L602.63 249.773Z" fill="white" fill-opacity="0.5"/>
<path d="M411.863 181.861L416.175 171.45C410.425 169.068 403.833 171.798 401.451 177.549L411.863 181.861ZM574.499 574.5L570.187 584.911C575.937 587.293 582.529 584.563 584.911 578.813L574.499 574.5ZM407.55 192.272L546.369 249.773L554.994 228.95L416.175 171.45L407.55 192.272ZM621.588 431.369L564.088 570.187L584.911 578.813L642.411 439.994L621.588 431.369ZM578.812 564.089L439.993 506.588L431.368 527.411L570.187 584.911L578.812 564.089ZM364.774 324.992L422.274 186.174L401.451 177.549L343.951 316.367L364.774 324.992ZM439.993 506.588C369.075 477.213 335.399 395.91 364.774 324.992L343.951 316.367C309.812 398.785 348.95 493.272 431.368 527.411L439.993 506.588ZM546.369 249.773C617.286 279.148 650.963 360.451 621.588 431.369L642.411 439.994C676.55 357.576 637.412 263.089 554.994 228.95L546.369 249.773Z" fill="white" fill-opacity="0.5"/>
<path d="M452.522 280.021L456.834 269.61C451.084 267.228 444.492 269.959 442.11 275.709L452.522 280.021ZM574.499 574.5L570.187 584.912C575.937 587.294 582.529 584.563 584.91 578.813L574.499 574.5ZM448.209 290.433L517.619 319.183L526.244 298.36L456.834 269.61L448.209 290.433ZM592.838 500.778L564.088 570.188L584.91 578.813L613.661 509.404L592.838 500.778ZM578.812 564.089L509.402 535.339L500.777 556.162L570.187 584.912L578.812 564.089ZM434.183 353.743L462.933 284.334L442.11 275.709L413.36 345.118L434.183 353.743ZM509.402 535.339C438.485 505.964 404.808 424.661 434.183 353.743L413.36 345.118C379.222 427.536 418.359 522.023 500.777 556.162L509.402 535.339ZM517.619 319.183C588.536 348.558 622.213 429.861 592.838 500.778L613.661 509.404C647.799 426.986 608.661 332.499 526.244 298.36L517.619 319.183Z" fill="white" fill-opacity="0.5"/>
<path d="M181.861 737.137L177.548 747.548C171.798 745.167 169.067 738.574 171.449 732.824L181.861 737.137ZM574.499 574.501L578.812 564.089C584.562 566.471 587.293 573.063 584.911 578.813L574.499 574.501ZM186.173 726.726L324.992 784.226L316.367 805.049L177.548 747.548L186.173 726.726ZM506.587 709.007L564.088 570.188L584.911 578.813L527.41 717.632L506.587 709.007ZM570.187 584.912L431.368 527.411L439.993 506.589L578.812 564.089L570.187 584.912ZM249.773 602.631L192.272 741.45L171.449 732.824L228.95 594.006L249.773 602.631ZM431.368 527.411C360.451 498.036 279.148 531.713 249.773 602.631L228.95 594.006C263.088 511.588 357.576 472.45 439.993 506.589L431.368 527.411ZM324.992 784.226C395.909 813.601 477.212 779.924 506.587 709.007L527.41 717.632C493.272 800.05 398.784 839.187 316.367 805.049L324.992 784.226Z" fill="white" fill-opacity="0.5"/>
<path d="M280.02 696.478L275.708 706.889C269.958 704.507 267.227 697.915 269.609 692.165L280.02 696.478ZM574.5 574.501L578.812 564.089C584.562 566.471 587.293 573.063 584.911 578.813L574.5 574.501ZM284.333 686.066L353.742 714.817L345.117 735.64L275.708 706.889L284.333 686.066ZM535.338 639.597L564.088 570.188L584.911 578.813L556.161 648.222L535.338 639.597ZM570.187 584.912L500.778 556.162L509.403 535.339L578.812 564.089L570.187 584.912ZM319.182 631.381L290.432 700.79L269.609 692.165L298.359 622.756L319.182 631.381ZM500.778 556.162C429.86 526.787 348.557 560.463 319.182 631.381L298.359 622.756C332.498 540.338 426.985 501.2 509.403 535.339L500.778 556.162ZM353.742 714.817C424.66 744.192 505.963 710.515 535.338 639.597L556.161 648.222C522.022 730.64 427.535 769.778 345.117 735.64L353.742 714.817Z" fill="white" fill-opacity="0.5"/>
<path d="M737.136 967.139L732.824 977.551C738.574 979.932 745.166 977.202 747.548 971.452L737.136 967.139ZM574.5 574.5L578.812 564.089C573.062 561.707 566.47 564.438 564.088 570.188L574.5 574.5ZM741.449 956.728L602.63 899.227L594.005 920.05L732.824 977.551L741.449 956.728ZM527.411 717.632L584.911 578.813L564.088 570.188L506.588 709.007L527.411 717.632ZM570.187 584.912L709.006 642.412L717.631 621.589L578.812 564.089L570.187 584.912ZM784.225 824.008L726.725 962.827L747.548 971.452L805.048 832.633L784.225 824.008ZM709.006 642.412C779.923 671.787 813.6 753.09 784.225 824.008L805.048 832.633C839.187 750.215 800.049 655.728 717.631 621.589L709.006 642.412ZM602.63 899.227C531.712 869.852 498.036 788.549 527.411 717.632L506.588 709.007C472.449 791.424 511.587 885.911 594.005 920.05L602.63 899.227Z" fill="white" fill-opacity="0.5"/>
</g>
</svg>
