<svg width="516" height="1037" viewBox="0 0 516 1037" fill="none" xmlns="http://www.w3.org/2000/svg">
<g opacity="0.05">
<path d="M-273.611 247.389V237.222C-279.226 237.222 -283.778 241.774 -283.778 247.389H-273.611ZM-2.49998 518.5V528.667C3.11492 528.667 7.66669 524.115 7.66669 518.5H-2.49998ZM-273.611 257.556H-138.055V237.222H-273.611V257.556ZM-12.6666 382.944V518.5H7.66669V382.944H-12.6666ZM-2.49998 508.333H-138.056V528.667H-2.49998V508.333ZM-263.444 382.944V247.389H-283.778V382.944H-263.444ZM-138.056 508.333C-207.306 508.333 -263.444 452.195 -263.444 382.944H-283.778C-283.778 463.425 -218.536 528.667 -138.056 528.667V508.333ZM-138.055 257.556C-68.8051 257.556 -12.6666 313.694 -12.6666 382.944H7.66669C7.66669 302.464 -57.5753 237.222 -138.055 237.222V257.556Z" fill="white" fill-opacity="0.5"/>
<path d="M-205.833 315.167V305C-211.448 305 -216 309.552 -216 315.167H-205.833ZM-2.49992 518.5V528.667C3.11497 528.667 7.66674 524.115 7.66674 518.5H-2.49992ZM-205.833 325.333H-138.055V305H-205.833V325.333ZM-12.6666 450.722V518.5H7.66674V450.722H-12.6666ZM-2.49992 508.333H-70.2777V528.667H-2.49992V508.333ZM-195.667 382.945V315.167H-216V382.945H-195.667ZM-70.2777 508.333C-139.528 508.333 -195.667 452.195 -195.667 382.945H-216C-216 463.425 -150.758 528.667 -70.2777 528.667V508.333ZM-138.055 325.333C-68.8051 325.333 -12.6666 381.472 -12.6666 450.722H7.66674C7.66674 370.242 -57.5753 305 -138.055 305V325.333Z" fill="white" fill-opacity="0.5"/>
<path d="M-273.611 789.611V799.778C-279.226 799.778 -283.778 795.226 -283.778 789.611H-273.611ZM-2.49998 518.5V508.333C3.11492 508.333 7.66669 512.885 7.66669 518.5H-2.49998ZM-273.611 779.444H-138.055V799.778H-273.611V779.444ZM-12.6666 654.056V518.5H7.66669V654.056H-12.6666ZM-2.49998 528.667H-138.056V508.333H-2.49998V528.667ZM-263.444 654.056V789.611H-283.778V654.056H-263.444ZM-138.056 528.667C-207.306 528.667 -263.444 584.805 -263.444 654.056H-283.778C-283.778 573.575 -218.536 508.333 -138.056 508.333V528.667ZM-138.055 779.444C-68.8051 779.444 -12.6666 723.306 -12.6666 654.056H7.66669C7.66669 734.536 -57.5753 799.778 -138.055 799.778V779.444Z" fill="white" fill-opacity="0.5"/>
<path d="M-205.833 721.833V732C-211.448 732 -216 727.448 -216 721.833H-205.833ZM-2.49992 518.5V508.333C3.11497 508.333 7.66674 512.885 7.66674 518.5H-2.49992ZM-205.833 711.667H-138.055V732H-205.833V711.667ZM-12.6666 586.278V518.5H7.66674V586.278H-12.6666ZM-2.49992 528.667H-70.2777V508.333H-2.49992V528.667ZM-195.667 654.055V721.833H-216V654.055H-195.667ZM-70.2777 528.667C-139.528 528.667 -195.667 584.805 -195.667 654.055H-216C-216 573.575 -150.758 508.333 -70.2777 508.333V528.667ZM-138.055 711.667C-68.8051 711.667 -12.6666 655.528 -12.6666 586.278H7.66674C7.66674 666.758 -57.5753 732 -138.055 732V711.667Z" fill="white" fill-opacity="0.5"/>
<path d="M268.611 247.389V237.222C274.226 237.222 278.778 241.774 278.778 247.389H268.611ZM-2.50002 518.5V528.667C-8.11492 528.667 -12.6667 524.115 -12.6667 518.5H-2.50002ZM268.611 257.556H133.055V237.222H268.611V257.556ZM7.66664 382.944V518.5H-12.6667V382.944H7.66664ZM-2.50002 508.333H133.056V528.667H-2.50002V508.333ZM258.444 382.944V247.389H278.778V382.944H258.444ZM133.056 508.333C202.306 508.333 258.444 452.195 258.444 382.944H278.778C278.778 463.425 213.536 528.667 133.056 528.667V508.333ZM133.055 257.556C63.8051 257.556 7.66664 313.694 7.66664 382.944H-12.6667C-12.6667 302.464 52.5753 237.222 133.055 237.222V257.556Z" fill="white" fill-opacity="0.5"/>
<path d="M200.833 315.167V305C206.448 305 211 309.552 211 315.167H200.833ZM-2.50008 518.5V528.667C-8.11497 528.667 -12.6667 524.115 -12.6667 518.5H-2.50008ZM200.833 325.333H133.055V305H200.833V325.333ZM7.66659 450.722V518.5H-12.6667V450.722H7.66659ZM-2.50008 508.333H65.2777V528.667H-2.50008V508.333ZM190.667 382.945V315.167H211V382.945H190.667ZM65.2777 508.333C134.528 508.333 190.667 452.195 190.667 382.945H211C211 463.425 145.758 528.667 65.2777 528.667V508.333ZM133.055 325.333C63.8051 325.333 7.66659 381.472 7.66659 450.722H-12.6667C-12.6667 370.242 52.5753 305 133.055 305V325.333Z" fill="white" fill-opacity="0.5"/>
<path d="M268.611 789.611V799.778C274.226 799.778 278.778 795.226 278.778 789.611H268.611ZM-2.50002 518.5V508.333C-8.11492 508.333 -12.6667 512.885 -12.6667 518.5H-2.50002ZM268.611 779.444H133.055V799.778H268.611V779.444ZM7.66664 654.056V518.5H-12.6667V654.056H7.66664ZM-2.50002 528.667H133.056V508.333H-2.50002V528.667ZM258.444 654.056V789.611H278.778V654.056H258.444ZM133.056 528.667C202.306 528.667 258.444 584.805 258.444 654.056H278.778C278.778 573.575 213.536 508.333 133.056 508.333V528.667ZM133.055 779.444C63.8051 779.444 7.66664 723.306 7.66664 654.056H-12.6667C-12.6667 734.536 52.5753 799.778 133.055 799.778V779.444Z" fill="white" fill-opacity="0.5"/>
<path d="M200.833 721.833V732C206.448 732 211 727.448 211 721.833H200.833ZM-2.50008 518.5V508.333C-8.11497 508.333 -12.6667 512.885 -12.6667 518.5H-2.50008ZM200.833 711.667H133.055V732H200.833V711.667ZM7.66659 586.278V518.5H-12.6667V586.278H7.66659ZM-2.50008 528.667H65.2777V508.333H-2.50008V528.667ZM190.667 654.055V721.833H211V654.055H190.667ZM65.2777 528.667C134.528 528.667 190.667 584.805 190.667 654.055H211C211 573.575 145.758 508.333 65.2777 508.333V528.667ZM133.055 711.667C63.8051 711.667 7.66659 655.528 7.66659 586.278H-12.6667C-12.6667 666.758 52.5753 732 133.055 732V711.667Z" fill="white" fill-opacity="0.5"/>
<path d="M-2.5 135.091L4.68892 127.902C0.718588 123.931 -5.71859 123.931 -9.68892 127.902L-2.5 135.091ZM-2.5 518.5L-9.68892 525.688C-5.71859 529.659 0.718588 529.659 4.68892 525.688L-2.5 518.5ZM-9.68892 142.279L86.1634 238.132L100.541 223.754L4.68892 127.902L-9.68892 142.279ZM86.1633 415.458L-9.68892 511.311L4.68892 525.688L100.541 429.836L86.1633 415.458ZM4.68892 511.311L-91.1634 415.458L-105.541 429.836L-9.68892 525.688L4.68892 511.311ZM-91.1633 238.132L4.68892 142.279L-9.68892 127.902L-105.541 223.754L-91.1633 238.132ZM-91.1634 415.458C-140.131 366.491 -140.131 287.099 -91.1633 238.132L-105.541 223.754C-162.449 280.662 -162.449 372.928 -105.541 429.836L-91.1634 415.458ZM86.1634 238.132C135.131 287.099 135.131 366.491 86.1633 415.458L100.541 429.836C157.449 372.928 157.449 280.662 100.541 223.754L86.1634 238.132Z" fill="white" fill-opacity="0.5"/>
<path d="M-2.5 230.943L4.68892 223.754C0.718588 219.783 -5.71859 219.783 -9.68892 223.754L-2.5 230.943ZM-2.5 518.499L-9.68892 525.688C-5.71859 529.659 0.718588 529.659 4.68892 525.688L-2.5 518.499ZM-9.68892 238.132L38.2372 286.058L52.6151 271.68L4.68892 223.754L-9.68892 238.132ZM38.2372 463.384L-9.68892 511.31L4.68892 525.688L52.615 477.762L38.2372 463.384ZM4.68892 511.31L-43.2372 463.384L-57.6151 477.762L-9.68892 525.688L4.68892 511.31ZM-43.2372 286.058L4.68892 238.132L-9.68892 223.754L-57.615 271.68L-43.2372 286.058ZM-43.2372 463.384C-92.2046 414.417 -92.2046 335.025 -43.2372 286.058L-57.615 271.68C-114.523 328.588 -114.523 420.854 -57.6151 477.762L-43.2372 463.384ZM38.2372 286.058C87.2046 335.025 87.2046 414.417 38.2372 463.384L52.615 477.762C109.523 420.854 109.523 328.588 52.6151 271.68L38.2372 286.058Z" fill="white" fill-opacity="0.5"/>
<path d="M-385.909 518.5L-393.098 525.689C-397.069 521.719 -397.069 515.281 -393.098 511.311L-385.909 518.5ZM-2.50043 518.5L4.68849 511.311C8.65882 515.281 8.65882 521.719 4.68849 525.689L-2.50043 518.5ZM-378.721 511.311L-282.868 607.163L-297.246 621.541L-393.098 525.689L-378.721 511.311ZM-105.542 607.163L-9.68934 511.311L4.68849 525.689L-91.1638 621.541L-105.542 607.163ZM-9.68934 525.689L-105.542 429.837L-91.1638 415.459L4.68849 511.311L-9.68934 525.689ZM-282.868 429.837L-378.721 525.689L-393.098 511.311L-297.246 415.459L-282.868 429.837ZM-105.542 429.837C-154.509 380.869 -233.901 380.869 -282.868 429.837L-297.246 415.459C-240.338 358.551 -148.072 358.551 -91.1638 415.459L-105.542 429.837ZM-282.868 607.163C-233.901 656.131 -154.509 656.131 -105.542 607.163L-91.1638 621.541C-148.072 678.449 -240.338 678.449 -297.246 621.541L-282.868 607.163Z" fill="white" fill-opacity="0.5"/>
<path d="M-290.057 518.5L-297.246 525.689C-301.217 521.719 -301.217 515.281 -297.246 511.311L-290.057 518.5ZM-2.50062 518.5L4.68829 511.311C8.65862 515.281 8.65862 521.719 4.68829 525.689L-2.50062 518.5ZM-282.868 511.311L-234.942 559.237L-249.32 573.615L-297.246 525.689L-282.868 511.311ZM-57.6157 559.237L-9.68954 511.311L4.68829 525.689L-43.2378 573.615L-57.6157 559.237ZM-9.68954 525.689L-57.6157 477.763L-43.2379 463.385L4.68829 511.311L-9.68954 525.689ZM-234.942 477.763L-282.868 525.689L-297.246 511.311L-249.32 463.385L-234.942 477.763ZM-57.6157 477.763C-106.583 428.795 -185.975 428.795 -234.942 477.763L-249.32 463.385C-192.412 406.477 -100.146 406.477 -43.2379 463.385L-57.6157 477.763ZM-234.942 559.237C-185.975 608.205 -106.583 608.205 -57.6157 559.237L-43.2378 573.615C-100.146 630.523 -192.412 630.523 -249.32 573.615L-234.942 559.237Z" fill="white" fill-opacity="0.5"/>
<path d="M380.909 518.5L388.098 511.311C392.069 515.281 392.069 521.719 388.098 525.689L380.909 518.5ZM-2.49957 518.5L-9.68849 525.689C-13.6588 521.719 -13.6588 515.281 -9.68849 511.311L-2.49957 518.5ZM373.721 525.689L277.868 429.837L292.246 415.459L388.098 511.311L373.721 525.689ZM100.542 429.837L4.68934 525.689L-9.68849 511.311L86.1638 415.459L100.542 429.837ZM4.68934 511.311L100.542 607.163L86.1638 621.541L-9.68849 525.689L4.68934 511.311ZM277.868 607.163L373.721 511.311L388.098 525.689L292.246 621.541L277.868 607.163ZM100.542 607.163C149.509 656.131 228.901 656.131 277.868 607.163L292.246 621.541C235.338 678.449 143.072 678.449 86.1638 621.541L100.542 607.163ZM277.868 429.837C228.901 380.869 149.509 380.869 100.542 429.837L86.1638 415.459C143.072 358.551 235.338 358.551 292.246 415.459L277.868 429.837Z" fill="white" fill-opacity="0.5"/>
<path d="M285.057 518.5L292.246 511.311C296.216 515.281 296.216 521.719 292.246 525.689L285.057 518.5ZM-2.49962 518.5L-9.68854 525.689C-13.6589 521.719 -13.6589 515.281 -9.68854 511.311L-2.49962 518.5ZM277.868 525.689L229.942 477.763L244.32 463.385L292.246 511.311L277.868 525.689ZM52.6154 477.763L4.6893 525.689L-9.68854 511.311L38.2376 463.385L52.6154 477.763ZM4.6893 511.311L52.6155 559.237L38.2376 573.615L-9.68854 525.689L4.6893 511.311ZM229.942 559.237L277.868 511.311L292.246 525.689L244.32 573.615L229.942 559.237ZM52.6155 559.237C101.583 608.205 180.975 608.205 229.942 559.237L244.32 573.615C187.412 630.523 95.1457 630.523 38.2376 573.615L52.6155 559.237ZM229.942 477.763C180.975 428.795 101.583 428.795 52.6154 477.763L38.2376 463.385C95.1456 406.477 187.412 406.477 244.32 463.385L229.942 477.763Z" fill="white" fill-opacity="0.5"/>
<path d="M-2.5 901.909L-9.68892 909.098C-5.71859 913.069 0.718588 913.069 4.68892 909.098L-2.5 901.909ZM-2.5 518.5L4.68892 511.312C0.718588 507.341 -5.71859 507.341 -9.68892 511.312L-2.5 518.5ZM4.68892 894.721L-91.1634 798.868L-105.541 813.246L-9.68892 909.098L4.68892 894.721ZM-91.1633 621.542L4.68892 525.689L-9.68892 511.312L-105.541 607.164L-91.1633 621.542ZM-9.68892 525.689L86.1634 621.542L100.541 607.164L4.68892 511.312L-9.68892 525.689ZM86.1633 798.868L-9.68892 894.721L4.68892 909.098L100.541 813.246L86.1633 798.868ZM86.1634 621.542C135.131 670.509 135.131 749.901 86.1633 798.868L100.541 813.246C157.449 756.338 157.449 664.072 100.541 607.164L86.1634 621.542ZM-91.1634 798.868C-140.131 749.901 -140.131 670.509 -91.1633 621.542L-105.541 607.164C-162.449 664.072 -162.449 756.338 -105.541 813.246L-91.1634 798.868Z" fill="white" fill-opacity="0.5"/>
<path d="M-2.5 806.057L-9.68892 813.246C-5.71859 817.217 0.718588 817.217 4.68892 813.246L-2.5 806.057ZM-2.5 518.501L4.68892 511.312C0.718588 507.341 -5.71859 507.341 -9.68892 511.312L-2.5 518.501ZM4.68892 798.868L-43.2372 750.942L-57.6151 765.32L-9.68892 813.246L4.68892 798.868ZM-43.2372 573.616L4.68892 525.69L-9.68892 511.312L-57.615 559.238L-43.2372 573.616ZM-9.68892 525.69L38.2372 573.616L52.6151 559.238L4.68892 511.312L-9.68892 525.69ZM38.2372 750.942L-9.68892 798.868L4.68892 813.246L52.615 765.32L38.2372 750.942ZM38.2372 573.616C87.2046 622.583 87.2046 701.975 38.2372 750.942L52.615 765.32C109.523 708.412 109.523 616.146 52.6151 559.238L38.2372 573.616ZM-43.2372 750.942C-92.2046 701.975 -92.2046 622.583 -43.2372 573.616L-57.615 559.238C-114.523 616.146 -114.523 708.412 -57.6151 765.32L-43.2372 750.942Z" fill="white" fill-opacity="0.5"/>
<path d="M-356.724 371.776L-360.615 362.383C-365.802 364.532 -368.266 370.479 -366.117 375.666L-356.724 371.776ZM-2.5004 518.5L1.39022 527.893C6.5777 525.744 9.0411 519.797 6.89238 514.61L-2.5004 518.5ZM-352.834 381.169L-227.596 329.294L-235.378 310.508L-360.615 362.383L-352.834 381.169ZM-63.768 397.154L-11.8932 522.391L6.89238 514.61L-44.9825 389.373L-63.768 397.154ZM-6.39101 509.107L-131.628 560.982L-123.847 579.768L1.39022 527.893L-6.39101 509.107ZM-295.456 493.122L-347.331 367.885L-366.117 375.666L-314.242 500.903L-295.456 493.122ZM-131.628 560.982C-195.607 587.483 -268.956 557.101 -295.456 493.122L-314.242 500.903C-283.444 575.257 -198.201 610.566 -123.847 579.768L-131.628 560.982ZM-227.596 329.294C-163.617 302.793 -90.269 333.175 -63.768 397.154L-44.9825 389.373C-75.7809 315.019 -161.024 279.71 -235.378 310.508L-227.596 329.294Z" fill="white" fill-opacity="0.5"/>
<path d="M-268.168 408.457L-272.059 399.064C-277.246 401.213 -279.709 407.16 -277.561 412.348L-268.168 408.457ZM-2.50018 518.5L1.39044 527.893C6.57792 525.744 9.04132 519.797 6.8926 514.61L-2.50018 518.5ZM-264.277 417.85L-201.659 391.912L-209.44 373.127L-272.059 399.064L-264.277 417.85ZM-37.8304 459.772L-11.893 522.391L6.8926 514.61L-19.0448 451.991L-37.8304 459.772ZM-6.39079 509.107L-69.0093 535.045L-61.2281 553.83L1.39044 527.893L-6.39079 509.107ZM-232.838 467.185L-258.775 404.566L-277.561 412.348L-251.623 474.966L-232.838 467.185ZM-69.0093 535.045C-132.988 561.546 -206.337 531.164 -232.838 467.185L-251.623 474.966C-220.825 549.32 -135.582 584.629 -61.2281 553.83L-69.0093 535.045ZM-201.659 391.912C-137.68 365.411 -64.3313 395.793 -37.8304 459.772L-19.0448 451.991C-49.8432 377.637 -135.086 342.328 -209.44 373.127L-201.659 391.912Z" fill="white" fill-opacity="0.5"/>
<path d="M-149.224 872.724L-145.334 882.117C-150.521 884.266 -156.468 881.802 -158.617 876.615L-149.224 872.724ZM-2.49985 518.5L-6.39047 509.108C-1.20298 506.959 4.74419 509.422 6.89292 514.61L-2.49985 518.5ZM-153.115 863.331L-27.8776 811.456L-20.0964 830.242L-145.334 882.117L-153.115 863.331ZM39.9822 647.628L-11.8926 522.391L6.89292 514.61L58.7678 639.847L39.9822 647.628ZM1.39076 527.893L-123.846 579.768L-131.628 560.983L-6.39047 509.108L1.39076 527.893ZM-191.706 743.597L-139.831 868.834L-158.617 876.615L-210.492 751.378L-191.706 743.597ZM-123.846 579.768C-187.825 606.269 -218.207 679.618 -191.706 743.597L-210.492 751.378C-241.29 677.024 -205.982 591.781 -131.628 560.983L-123.846 579.768ZM-27.8776 811.456C36.1013 784.955 66.4832 711.607 39.9822 647.628L58.7678 639.847C89.5662 714.201 54.2576 799.444 -20.0964 830.242L-27.8776 811.456Z" fill="white" fill-opacity="0.5"/>
<path d="M-112.543 784.168L-108.652 793.561C-113.84 795.709 -119.787 793.246 -121.936 788.059L-112.543 784.168ZM-2.49977 518.5L-6.39038 509.107C-1.2029 506.959 4.74428 509.422 6.89301 514.61L-2.49977 518.5ZM-116.434 774.775L-53.815 748.838L-46.0338 767.623L-108.652 793.561L-116.434 774.775ZM14.0449 585.009L-11.8925 522.391L6.89301 514.61L32.8304 577.228L14.0449 585.009ZM1.39085 527.893L-61.2277 553.83L-69.0089 535.045L-6.39038 509.107L1.39085 527.893ZM-129.088 717.659L-103.15 780.277L-121.936 788.059L-147.873 725.44L-129.088 717.659ZM-61.2277 553.83C-125.207 580.331 -155.589 653.68 -129.088 717.659L-147.873 725.44C-178.672 651.086 -143.363 565.843 -69.0089 535.045L-61.2277 553.83ZM-53.815 748.838C10.1639 722.337 40.5459 648.988 14.0449 585.009L32.8304 577.228C63.6289 651.582 28.3202 736.825 -46.0338 767.623L-53.815 748.838Z" fill="white" fill-opacity="0.5"/>
<path d="M144.224 164.277L140.334 154.884C145.521 152.735 151.468 155.199 153.617 160.386L144.224 164.277ZM-2.50015 518.501L1.39047 527.893C-3.79702 530.042 -9.74419 527.579 -11.8929 522.391L-2.50015 518.501ZM148.115 173.67L22.8776 225.545L15.0964 206.759L140.334 154.884L148.115 173.67ZM-44.9822 389.373L6.89263 514.61L-11.8929 522.391L-63.7678 397.154L-44.9822 389.373ZM-6.39076 509.108L118.846 457.233L126.628 476.018L1.39047 527.893L-6.39076 509.108ZM186.706 293.404L134.831 168.167L153.617 160.386L205.492 285.623L186.706 293.404ZM118.846 457.233C182.825 430.732 213.207 357.383 186.706 293.404L205.492 285.623C236.29 359.977 200.982 445.22 126.628 476.018L118.846 457.233ZM22.8776 225.545C-41.1013 252.045 -71.4832 325.394 -44.9822 389.373L-63.7678 397.154C-94.5662 322.8 -59.2576 237.557 15.0964 206.759L22.8776 225.545Z" fill="white" fill-opacity="0.5"/>
<path d="M107.543 252.833L103.652 243.44C108.84 241.292 114.787 243.755 116.936 248.942L107.543 252.833ZM-2.50035 518.501L1.39026 527.894C-3.79723 530.042 -9.7444 527.579 -11.8931 522.391L-2.50035 518.501ZM111.433 262.226L48.8149 288.163L41.0337 269.378L103.652 243.44L111.433 262.226ZM-19.045 451.992L6.89242 514.61L-11.8931 522.391L-37.8306 459.773L-19.045 451.992ZM-6.39097 509.108L56.2276 483.171L64.0088 501.956L1.39026 527.894L-6.39097 509.108ZM124.087 319.342L98.1501 256.724L116.936 248.942L142.873 311.561L124.087 319.342ZM56.2276 483.171C120.207 456.67 150.588 383.321 124.087 319.342L142.873 311.561C173.671 385.915 138.363 471.158 64.0088 501.956L56.2276 483.171ZM48.8149 288.163C-15.1641 314.664 -45.546 388.013 -19.045 451.992L-37.8306 459.773C-68.629 385.419 -33.3203 300.176 41.0337 269.378L48.8149 288.163Z" fill="white" fill-opacity="0.5"/>
<path d="M351.723 665.225L355.614 674.618C360.801 672.469 363.265 666.522 361.116 661.334L351.723 665.225ZM-2.50046 518.501L-6.39107 509.108C-11.5786 511.257 -14.042 517.204 -11.8932 522.391L-2.50046 518.501ZM347.833 655.832L222.596 707.707L230.377 726.493L355.614 674.618L347.833 655.832ZM58.7672 639.847L6.89232 514.61L-11.8932 522.391L39.9816 647.628L58.7672 639.847ZM1.39016 527.894L126.627 476.019L118.846 457.233L-6.39107 509.108L1.39016 527.894ZM290.456 543.879L342.33 669.116L361.116 661.334L309.241 536.097L290.456 543.879ZM126.627 476.019C190.606 449.518 263.955 479.9 290.456 543.879L309.241 536.097C278.443 461.744 193.2 426.435 118.846 457.233L126.627 476.019ZM222.596 707.707C158.617 734.208 85.2682 703.826 58.7672 639.847L39.9816 647.628C70.7801 721.982 156.023 757.291 230.377 726.493L222.596 707.707Z" fill="white" fill-opacity="0.5"/>
<path d="M263.167 628.544L267.058 637.937C272.246 635.788 274.709 629.841 272.56 624.653L263.167 628.544ZM-2.50031 518.501L-6.39093 509.108C-11.5784 511.257 -14.0418 517.204 -11.8931 522.391L-2.50031 518.501ZM259.277 619.151L196.658 645.089L204.44 663.874L267.058 637.937L259.277 619.151ZM32.8299 577.229L6.89246 514.61L-11.8931 522.391L14.0443 585.01L32.8299 577.229ZM1.3903 527.894L64.0088 501.956L56.2276 483.171L-6.39093 509.108L1.3903 527.894ZM227.837 569.816L253.775 632.435L272.56 624.653L246.623 562.035L227.837 569.816ZM64.0088 501.956C127.988 475.455 201.336 505.837 227.837 569.816L246.623 562.035C215.824 487.681 130.582 452.372 56.2276 483.171L64.0088 501.956ZM196.658 645.089C132.679 671.59 59.3309 641.208 32.8299 577.229L14.0443 585.01C44.8428 659.364 130.086 694.673 204.44 663.874L196.658 645.089Z" fill="white" fill-opacity="0.5"/>
<path d="M-149.225 164.276L-145.334 154.884C-150.522 152.735 -156.469 155.198 -158.618 160.386L-149.225 164.276ZM-2.50082 518.5L-6.39144 527.893C-1.20395 530.042 4.74323 527.578 6.89195 522.391L-2.50082 518.5ZM-153.116 173.669L-27.8786 225.544L-20.0974 206.758L-145.334 154.884L-153.116 173.669ZM39.9813 389.372L-11.8936 514.609L6.89195 522.391L58.7668 397.154L39.9813 389.372ZM1.38979 509.107L-123.847 457.232L-131.629 476.018L-6.39144 527.893L1.38979 509.107ZM-191.707 293.404L-139.832 168.167L-158.618 160.386L-210.493 285.623L-191.707 293.404ZM-123.847 457.232C-187.826 430.731 -218.208 357.383 -191.707 293.404L-210.493 285.623C-241.291 359.977 -205.983 445.22 -131.629 476.018L-123.847 457.232ZM-27.8786 225.544C36.1004 252.045 66.4822 325.393 39.9813 389.372L58.7668 397.154C89.5652 322.8 54.2566 237.557 -20.0974 206.758L-27.8786 225.544Z" fill="white" fill-opacity="0.5"/>
<path d="M-112.544 252.833L-108.653 243.44C-113.841 241.291 -119.788 243.754 -121.937 248.942L-112.544 252.833ZM-2.50074 518.5L-6.39135 527.893C-1.20387 530.042 4.74331 527.578 6.89204 522.391L-2.50074 518.5ZM-116.435 262.225L-53.816 288.163L-46.0348 269.377L-108.653 243.44L-116.435 262.225ZM14.0439 451.991L-11.8935 514.61L6.89204 522.391L32.8295 459.772L14.0439 451.991ZM1.38988 509.108L-61.2287 483.17L-69.0099 501.956L-6.39135 527.893L1.38988 509.108ZM-129.089 319.342L-103.151 256.723L-121.937 248.942L-147.874 311.56L-129.089 319.342ZM-61.2287 483.17C-125.208 456.669 -155.59 383.321 -129.089 319.342L-147.874 311.56C-178.673 385.914 -143.364 471.157 -69.0099 501.956L-61.2287 483.17ZM-53.816 288.163C10.163 314.664 40.5449 388.012 14.0439 451.991L32.8295 459.772C63.6279 385.418 28.3192 300.176 -46.0348 269.377L-53.816 288.163Z" fill="white" fill-opacity="0.5"/>
<path d="M-356.724 665.225L-360.615 674.618C-365.802 672.469 -368.266 666.522 -366.117 661.334L-356.724 665.225ZM-2.50041 518.501L1.39021 509.108C6.57769 511.257 9.04109 517.204 6.89237 522.391L-2.50041 518.501ZM-352.834 655.832L-227.596 707.707L-235.378 726.493L-360.615 674.618L-352.834 655.832ZM-63.768 639.847L-11.8932 514.61L6.89237 522.391L-44.9825 647.628L-63.768 639.847ZM-6.39102 527.894L-131.628 476.019L-123.847 457.233L1.39021 509.108L-6.39102 527.894ZM-295.456 543.879L-347.331 669.116L-366.117 661.334L-314.242 536.097L-295.456 543.879ZM-131.628 476.019C-195.607 449.518 -268.956 479.9 -295.456 543.879L-314.242 536.097C-283.444 461.744 -198.201 426.435 -123.847 457.233L-131.628 476.019ZM-227.596 707.707C-163.617 734.208 -90.269 703.826 -63.768 639.847L-44.9825 647.628C-75.7809 721.982 -161.024 757.291 -235.378 726.493L-227.596 707.707Z" fill="white" fill-opacity="0.5"/>
<path d="M-268.168 628.544L-272.059 637.937C-277.246 635.788 -279.709 629.841 -277.561 624.653L-268.168 628.544ZM-2.50018 518.501L1.39043 509.108C6.57792 511.257 9.04132 517.204 6.89259 522.391L-2.50018 518.501ZM-264.277 619.151L-201.659 645.089L-209.44 663.874L-272.059 637.937L-264.277 619.151ZM-37.8304 577.229L-11.893 514.61L6.89259 522.391L-19.0448 585.01L-37.8304 577.229ZM-6.3908 527.894L-69.0093 501.956L-61.2281 483.171L1.39043 509.108L-6.3908 527.894ZM-232.838 569.816L-258.775 632.435L-277.561 624.653L-251.623 562.035L-232.838 569.816ZM-69.0093 501.956C-132.988 475.455 -206.337 505.837 -232.838 569.816L-251.623 562.035C-220.825 487.681 -135.582 452.372 -61.2281 483.171L-69.0093 501.956ZM-201.659 645.089C-137.68 671.59 -64.3313 641.208 -37.8304 577.229L-19.0448 585.01C-49.8433 659.364 -135.086 694.673 -209.44 663.874L-201.659 645.089Z" fill="white" fill-opacity="0.5"/>
<path d="M351.723 371.776L355.614 362.383C360.801 364.532 363.265 370.479 361.116 375.666L351.723 371.776ZM-2.50045 518.5L-6.39106 527.893C-11.5785 525.744 -14.0419 519.797 -11.8932 514.61L-2.50045 518.5ZM347.833 381.169L222.596 329.294L230.377 310.508L355.614 362.383L347.833 381.169ZM58.7672 397.154L6.89233 522.391L-11.8932 514.61L39.9816 389.373L58.7672 397.154ZM1.39017 509.107L126.627 560.982L118.846 579.768L-6.39106 527.893L1.39017 509.107ZM290.456 493.122L342.33 367.885L361.116 375.666L309.241 500.903L290.456 493.122ZM126.627 560.982C190.606 587.483 263.955 557.101 290.456 493.122L309.241 500.903C278.443 575.257 193.2 610.566 118.846 579.768L126.627 560.982ZM222.596 329.294C158.617 302.793 85.2682 333.175 58.7672 397.154L39.9816 389.373C70.7801 315.019 156.023 279.71 230.377 310.508L222.596 329.294Z" fill="white" fill-opacity="0.5"/>
<path d="M263.167 408.457L267.058 399.064C272.246 401.213 274.709 407.16 272.56 412.348L263.167 408.457ZM-2.50031 518.5L-6.39092 527.893C-11.5784 525.744 -14.0418 519.797 -11.8931 514.61L-2.50031 518.5ZM259.277 417.85L196.658 391.912L204.44 373.127L267.058 399.064L259.277 417.85ZM32.8299 459.772L6.89247 522.391L-11.8931 514.61L14.0443 451.991L32.8299 459.772ZM1.39031 509.107L64.0088 535.045L56.2276 553.83L-6.39092 527.893L1.39031 509.107ZM227.837 467.185L253.775 404.566L272.56 412.348L246.623 474.966L227.837 467.185ZM64.0088 535.045C127.988 561.546 201.336 531.164 227.837 467.185L246.623 474.966C215.824 549.32 130.582 584.629 56.2276 553.83L64.0088 535.045ZM196.658 391.912C132.679 365.411 59.3309 395.793 32.8299 459.772L14.0443 451.991C44.8428 377.637 130.086 342.328 204.44 373.127L196.658 391.912Z" fill="white" fill-opacity="0.5"/>
<path d="M144.224 872.724L140.334 882.117C145.521 884.266 151.468 881.802 153.617 876.615L144.224 872.724ZM-2.50015 518.5L1.39046 509.108C-3.79703 506.959 -9.7442 509.422 -11.8929 514.61L-2.50015 518.5ZM148.115 863.331L22.8776 811.456L15.0964 830.242L140.334 882.117L148.115 863.331ZM-44.9822 647.628L6.89262 522.391L-11.8929 514.61L-63.7678 639.847L-44.9822 647.628ZM-6.39077 527.893L118.846 579.768L126.628 560.983L1.39046 509.108L-6.39077 527.893ZM186.706 743.597L134.831 868.834L153.617 876.615L205.492 751.378L186.706 743.597ZM118.846 579.768C182.825 606.269 213.207 679.618 186.706 743.597L205.492 751.378C236.29 677.024 200.982 591.781 126.628 560.983L118.846 579.768ZM22.8776 811.456C-41.1013 784.955 -71.4832 711.607 -44.9822 647.628L-63.7678 639.847C-94.5662 714.201 -59.2576 799.444 15.0964 830.242L22.8776 811.456Z" fill="white" fill-opacity="0.5"/>
<path d="M107.543 784.168L103.652 793.561C108.84 795.709 114.787 793.246 116.936 788.059L107.543 784.168ZM-2.50036 518.5L1.39025 509.107C-3.79723 506.959 -9.74441 509.422 -11.8931 514.61L-2.50036 518.5ZM111.433 774.775L48.8149 748.838L41.0337 767.623L103.652 793.561L111.433 774.775ZM-19.045 585.009L6.89241 522.391L-11.8931 514.61L-37.8306 577.228L-19.045 585.009ZM-6.39097 527.893L56.2276 553.83L64.0088 535.045L1.39025 509.107L-6.39097 527.893ZM124.087 717.659L98.1501 780.277L116.936 788.059L142.873 725.44L124.087 717.659ZM56.2276 553.83C120.207 580.331 150.588 653.68 124.087 717.659L142.873 725.44C173.671 651.086 138.363 565.843 64.0088 535.045L56.2276 553.83ZM48.8149 748.838C-15.1641 722.337 -45.546 648.988 -19.045 585.009L-37.8306 577.228C-68.629 651.582 -33.3203 736.825 41.0337 767.623L48.8149 748.838Z" fill="white" fill-opacity="0.5"/>
</g>
</svg>
