<svg width="531" height="482" viewBox="0 0 531 482" fill="none" xmlns="http://www.w3.org/2000/svg">
<g opacity="0.05">
<path d="M127.038 127.039V121.846C124.171 121.846 121.846 124.171 121.846 127.039H127.038ZM265.5 265.5V270.692C268.368 270.692 270.692 268.368 270.692 265.5H265.5ZM127.038 132.231H196.269V121.846H127.038V132.231ZM260.308 196.269V265.5H270.692V196.269H260.308ZM265.5 260.308H196.269V270.692H265.5V260.308ZM132.231 196.269V127.039H121.846V196.269H132.231ZM196.269 260.308C160.902 260.308 132.231 231.637 132.231 196.269H121.846C121.846 237.372 155.167 270.692 196.269 270.692V260.308ZM196.269 132.231C231.637 132.231 260.308 160.902 260.308 196.269H270.692C270.692 155.167 237.372 121.846 196.269 121.846V132.231Z" fill="white" fill-opacity="0.5"/>
<path d="M161.654 161.654V156.462C158.786 156.462 156.462 158.786 156.462 161.654H161.654ZM265.5 265.5V270.692C268.368 270.692 270.692 268.368 270.692 265.5H265.5ZM161.654 166.846H196.269V156.462H161.654V166.846ZM260.308 230.885V265.5H270.692V230.885H260.308ZM265.5 260.308H230.885V270.692H265.5V260.308ZM166.846 196.269V161.654H156.462V196.269H166.846ZM230.885 260.308C195.517 260.308 166.846 231.637 166.846 196.269H156.462C156.462 237.372 189.782 270.692 230.885 270.692V260.308ZM196.269 166.846C231.637 166.846 260.308 195.517 260.308 230.885H270.692C270.692 189.782 237.372 156.462 196.269 156.462V166.846Z" fill="white" fill-opacity="0.5"/>
<path d="M127.038 403.961V409.154C124.171 409.154 121.846 406.829 121.846 403.961H127.038ZM265.5 265.5V260.308C268.368 260.308 270.692 262.632 270.692 265.5H265.5ZM127.038 398.769H196.269V409.154H127.038V398.769ZM260.308 334.731V265.5H270.692V334.731H260.308ZM265.5 270.692H196.269V260.308H265.5V270.692ZM132.231 334.731V403.961H121.846V334.731H132.231ZM196.269 270.692C160.902 270.692 132.231 299.363 132.231 334.731H121.846C121.846 293.628 155.167 260.308 196.269 260.308V270.692ZM196.269 398.769C231.637 398.769 260.308 370.098 260.308 334.731H270.692C270.692 375.833 237.372 409.154 196.269 409.154V398.769Z" fill="white" fill-opacity="0.5"/>
<path d="M161.654 369.346V374.538C158.786 374.538 156.462 372.214 156.462 369.346H161.654ZM265.5 265.5V260.308C268.368 260.308 270.692 262.632 270.692 265.5H265.5ZM161.654 364.154H196.269V374.538H161.654V364.154ZM260.308 300.115V265.5H270.692V300.115H260.308ZM265.5 270.692H230.885V260.308H265.5V270.692ZM166.846 334.731V369.346H156.462V334.731H166.846ZM230.885 270.692C195.517 270.692 166.846 299.363 166.846 334.731H156.462C156.462 293.628 189.782 260.308 230.885 260.308V270.692ZM196.269 364.154C231.637 364.154 260.308 335.483 260.308 300.115H270.692C270.692 341.218 237.372 374.538 196.269 374.538V364.154Z" fill="white" fill-opacity="0.5"/>
<path d="M403.962 127.039V121.846C406.829 121.846 409.154 124.171 409.154 127.039H403.962ZM265.5 265.5V270.692C262.632 270.692 260.308 268.368 260.308 265.5H265.5ZM403.962 132.231H334.731V121.846H403.962V132.231ZM270.692 196.269V265.5H260.308V196.269H270.692ZM265.5 260.308H334.731V270.692H265.5V260.308ZM398.769 196.269V127.039H409.154V196.269H398.769ZM334.731 260.308C370.098 260.308 398.769 231.637 398.769 196.269H409.154C409.154 237.372 375.833 270.692 334.731 270.692V260.308ZM334.731 132.231C299.363 132.231 270.692 160.902 270.692 196.269H260.308C260.308 155.167 293.628 121.846 334.731 121.846V132.231Z" fill="white" fill-opacity="0.5"/>
<path d="M369.346 161.654V156.462C372.214 156.462 374.538 158.786 374.538 161.654H369.346ZM265.5 265.5V270.692C262.632 270.692 260.308 268.368 260.308 265.5H265.5ZM369.346 166.846H334.731V156.462H369.346V166.846ZM270.692 230.885V265.5H260.308V230.885H270.692ZM265.5 260.308H300.115V270.692H265.5V260.308ZM364.154 196.269V161.654H374.538V196.269H364.154ZM300.115 260.308C335.483 260.308 364.154 231.637 364.154 196.269H374.538C374.538 237.372 341.218 270.692 300.115 270.692V260.308ZM334.731 166.846C299.363 166.846 270.692 195.517 270.692 230.885H260.308C260.308 189.782 293.628 156.462 334.731 156.462V166.846Z" fill="white" fill-opacity="0.5"/>
<path d="M403.962 403.961V409.154C406.829 409.154 409.154 406.829 409.154 403.961H403.962ZM265.5 265.5V260.308C262.632 260.308 260.308 262.632 260.308 265.5H265.5ZM403.962 398.769H334.731V409.154H403.962V398.769ZM270.692 334.731V265.5H260.308V334.731H270.692ZM265.5 270.692H334.731V260.308H265.5V270.692ZM398.769 334.731V403.961H409.154V334.731H398.769ZM334.731 270.692C370.098 270.692 398.769 299.363 398.769 334.731H409.154C409.154 293.628 375.833 260.308 334.731 260.308V270.692ZM334.731 398.769C299.363 398.769 270.692 370.098 270.692 334.731H260.308C260.308 375.833 293.628 409.154 334.731 409.154V398.769Z" fill="white" fill-opacity="0.5"/>
<path d="M369.346 369.346V374.538C372.214 374.538 374.538 372.214 374.538 369.346H369.346ZM265.5 265.5V260.308C262.632 260.308 260.308 262.632 260.308 265.5H265.5ZM369.346 364.154H334.731V374.538H369.346V364.154ZM270.692 300.115V265.5H260.308V300.115H270.692ZM265.5 270.692H300.115V260.308H265.5V270.692ZM364.154 334.731V369.346H374.538V334.731H364.154ZM300.115 270.692C335.483 270.692 364.154 299.363 364.154 334.731H374.538C374.538 293.628 341.218 260.308 300.115 260.308V270.692ZM334.731 364.154C299.363 364.154 270.692 335.483 270.692 300.115H260.308C260.308 341.218 293.628 374.538 334.731 374.538V364.154Z" fill="white" fill-opacity="0.5"/>
<path d="M265.5 69.6855L269.172 66.014C267.144 63.9863 263.856 63.9863 261.828 66.014L265.5 69.6855ZM265.5 265.5L261.828 269.171C263.856 271.199 267.144 271.199 269.172 269.171L265.5 265.5ZM261.828 73.3571L310.782 122.311L318.125 114.968L269.172 66.014L261.828 73.3571ZM310.782 212.875L261.828 261.828L269.172 269.171L318.125 220.218L310.782 212.875ZM269.172 261.828L220.218 212.875L212.875 220.218L261.828 269.171L269.172 261.828ZM220.218 122.311L269.172 73.3571L261.828 66.014L212.875 114.968L220.218 122.311ZM220.218 212.875C195.209 187.866 195.209 147.319 220.218 122.311L212.875 114.968C183.811 144.032 183.811 191.154 212.875 220.218L220.218 212.875ZM310.782 122.311C335.791 147.319 335.791 187.866 310.782 212.875L318.125 220.218C347.189 191.154 347.189 144.032 318.125 114.968L310.782 122.311Z" fill="white" fill-opacity="0.5"/>
<path d="M265.5 118.639L269.172 114.968C267.144 112.94 263.856 112.94 261.828 114.968L265.5 118.639ZM265.5 265.5L261.828 269.171C263.856 271.199 267.144 271.199 269.172 269.171L265.5 265.5ZM261.828 122.311L286.305 146.787L293.648 139.444L269.172 114.968L261.828 122.311ZM286.305 237.352L261.828 261.828L269.172 269.171L293.648 244.695L286.305 237.352ZM269.172 261.828L244.695 237.351L237.352 244.695L261.828 269.171L269.172 261.828ZM244.695 146.787L269.172 122.311L261.828 114.968L237.352 139.444L244.695 146.787ZM244.695 237.351C219.686 212.343 219.686 171.796 244.695 146.787L237.352 139.444C208.288 168.508 208.288 215.631 237.352 244.695L244.695 237.351ZM286.305 146.787C311.314 171.796 311.314 212.343 286.305 237.352L293.648 244.695C322.712 215.631 322.712 168.508 293.648 139.444L286.305 146.787Z" fill="white" fill-opacity="0.5"/>
<path d="M69.6855 265.5L66.014 269.172C63.9863 267.144 63.9863 263.856 66.014 261.828L69.6855 265.5ZM265.5 265.5L269.171 261.828C271.199 263.856 271.199 267.144 269.171 269.172L265.5 265.5ZM73.3571 261.828L122.311 310.782L114.968 318.125L66.014 269.172L73.3571 261.828ZM212.875 310.782L261.828 261.828L269.171 269.172L220.218 318.125L212.875 310.782ZM261.828 269.172L212.875 220.218L220.218 212.875L269.171 261.828L261.828 269.172ZM122.311 220.218L73.3571 269.172L66.014 261.828L114.968 212.875L122.311 220.218ZM212.875 220.218C187.866 195.209 147.319 195.209 122.311 220.218L114.968 212.875C144.032 183.811 191.154 183.811 220.218 212.875L212.875 220.218ZM122.311 310.782C147.319 335.791 187.866 335.791 212.875 310.782L220.218 318.125C191.154 347.189 144.032 347.189 114.968 318.125L122.311 310.782Z" fill="white" fill-opacity="0.5"/>
<path d="M118.639 265.5L114.968 269.172C112.94 267.144 112.94 263.856 114.968 261.828L118.639 265.5ZM265.5 265.5L269.171 261.828C271.199 263.856 271.199 267.144 269.171 269.172L265.5 265.5ZM122.311 261.828L146.787 286.305L139.444 293.648L114.968 269.172L122.311 261.828ZM237.352 286.305L261.828 261.828L269.171 269.172L244.695 293.648L237.352 286.305ZM261.828 269.172L237.351 244.695L244.695 237.352L269.171 261.828L261.828 269.172ZM146.787 244.695L122.311 269.172L114.968 261.828L139.444 237.352L146.787 244.695ZM237.351 244.695C212.343 219.686 171.796 219.686 146.787 244.695L139.444 237.352C168.508 208.288 215.631 208.288 244.695 237.352L237.351 244.695ZM146.787 286.305C171.796 311.314 212.343 311.314 237.352 286.305L244.695 293.648C215.631 322.712 168.508 322.712 139.444 293.648L146.787 286.305Z" fill="white" fill-opacity="0.5"/>
<path d="M461.314 265.5L464.986 261.828C467.014 263.856 467.014 267.144 464.986 269.172L461.314 265.5ZM265.5 265.5L261.829 269.172C259.801 267.144 259.801 263.856 261.829 261.828L265.5 265.5ZM457.643 269.172L408.689 220.218L416.032 212.875L464.986 261.828L457.643 269.172ZM318.125 220.218L269.172 269.172L261.829 261.828L310.782 212.875L318.125 220.218ZM269.172 261.828L318.125 310.782L310.782 318.125L261.829 269.172L269.172 261.828ZM408.689 310.782L457.643 261.828L464.986 269.172L416.032 318.125L408.689 310.782ZM318.125 310.782C343.134 335.791 383.681 335.791 408.689 310.782L416.032 318.125C386.968 347.189 339.846 347.189 310.782 318.125L318.125 310.782ZM408.689 220.218C383.681 195.209 343.134 195.209 318.125 220.218L310.782 212.875C339.846 183.811 386.968 183.811 416.032 212.875L408.689 220.218Z" fill="white" fill-opacity="0.5"/>
<path d="M412.361 265.5L416.032 261.828C418.06 263.856 418.06 267.144 416.032 269.172L412.361 265.5ZM265.5 265.5L261.829 269.172C259.801 267.144 259.801 263.856 261.829 261.828L265.5 265.5ZM408.689 269.172L384.213 244.695L391.556 237.352L416.032 261.828L408.689 269.172ZM293.648 244.695L269.172 269.172L261.829 261.828L286.305 237.352L293.648 244.695ZM269.172 261.828L293.649 286.305L286.305 293.648L261.829 269.172L269.172 261.828ZM384.213 286.305L408.689 261.828L416.032 269.172L391.556 293.648L384.213 286.305ZM293.649 286.305C318.657 311.314 359.204 311.314 384.213 286.305L391.556 293.648C362.492 322.712 315.369 322.712 286.305 293.648L293.649 286.305ZM384.213 244.695C359.204 219.686 318.657 219.686 293.648 244.695L286.305 237.352C315.369 208.288 362.492 208.288 391.556 237.352L384.213 244.695Z" fill="white" fill-opacity="0.5"/>
<path d="M265.5 461.314L261.828 464.985C263.856 467.013 267.144 467.013 269.172 464.985L265.5 461.314ZM265.5 265.5L269.172 261.828C267.144 259.801 263.856 259.801 261.828 261.828L265.5 265.5ZM269.172 457.642L220.218 408.689L212.875 416.032L261.828 464.985L269.172 457.642ZM220.218 318.125L269.172 269.171L261.828 261.828L212.875 310.782L220.218 318.125ZM261.828 269.171L310.782 318.125L318.125 310.782L269.172 261.828L261.828 269.171ZM310.782 408.689L261.828 457.642L269.172 464.985L318.125 416.032L310.782 408.689ZM310.782 318.125C335.791 343.133 335.791 383.68 310.782 408.689L318.125 416.032C347.189 386.968 347.189 339.846 318.125 310.782L310.782 318.125ZM220.218 408.689C195.209 383.68 195.209 343.133 220.218 318.125L212.875 310.782C183.811 339.846 183.811 386.968 212.875 416.032L220.218 408.689Z" fill="white" fill-opacity="0.5"/>
<path d="M265.5 412.36L261.828 416.032C263.856 418.06 267.144 418.06 269.172 416.032L265.5 412.36ZM265.5 265.5L269.172 261.828C267.144 259.8 263.856 259.8 261.828 261.828L265.5 265.5ZM269.172 408.689L244.695 384.212L237.352 391.555L261.828 416.032L269.172 408.689ZM244.695 293.648L269.172 269.171L261.828 261.828L237.352 286.305L244.695 293.648ZM261.828 269.171L286.305 293.648L293.648 286.305L269.172 261.828L261.828 269.171ZM286.305 384.212L261.828 408.689L269.172 416.032L293.648 391.555L286.305 384.212ZM286.305 293.648C311.314 318.657 311.314 359.203 286.305 384.212L293.648 391.555C322.712 362.491 322.712 315.369 293.648 286.305L286.305 293.648ZM244.695 384.212C219.686 359.203 219.686 318.657 244.695 293.648L237.352 286.305C208.288 315.369 208.288 362.491 237.352 391.555L244.695 384.212Z" fill="white" fill-opacity="0.5"/>
<path d="M84.5909 190.565L82.6039 185.768C79.9546 186.866 78.6965 189.903 79.7939 192.552L84.5909 190.565ZM265.5 265.5L267.487 270.297C270.136 269.2 271.394 266.163 270.297 263.513L265.5 265.5ZM86.578 195.362L150.539 168.869L146.565 159.275L82.6039 185.768L86.578 195.362ZM234.209 203.526L260.703 267.487L270.297 263.513L243.803 199.552L234.209 203.526ZM263.513 260.703L199.552 287.197L203.526 296.791L267.487 270.297L263.513 260.703ZM115.881 252.539L89.388 188.578L79.7939 192.552L106.287 256.513L115.881 252.539ZM199.552 287.197C166.877 300.731 129.416 285.215 115.881 252.539L106.287 256.513C122.017 294.487 165.552 312.52 203.526 296.791L199.552 287.197ZM150.539 168.869C183.214 155.335 220.675 170.851 234.209 203.526L243.803 199.552C228.074 161.578 184.539 143.546 146.565 159.275L150.539 168.869Z" fill="white" fill-opacity="0.5"/>
<path d="M129.818 209.299L127.831 204.502C125.182 205.599 123.924 208.636 125.021 211.286L129.818 209.299ZM265.5 265.5L267.487 270.297C270.136 269.2 271.394 266.162 270.297 263.513L265.5 265.5ZM131.805 214.096L163.786 200.849L159.812 191.255L127.831 204.502L131.805 214.096ZM247.456 235.507L260.703 267.487L270.297 263.513L257.05 231.532L247.456 235.507ZM263.513 260.703L231.532 273.95L235.506 283.544L267.487 270.297L263.513 260.703ZM147.862 239.292L134.615 207.312L125.021 211.286L138.268 243.266L147.862 239.292ZM231.532 273.95C198.857 287.484 161.396 271.968 147.862 239.292L138.268 243.266C153.997 281.24 197.532 299.273 235.506 283.544L231.532 273.95ZM163.786 200.849C196.461 187.315 233.921 202.831 247.456 235.507L257.05 231.532C241.321 193.559 197.786 175.526 159.812 191.255L163.786 200.849Z" fill="white" fill-opacity="0.5"/>
<path d="M190.565 446.409L192.552 451.206C189.903 452.304 186.865 451.046 185.768 448.396L190.565 446.409ZM265.5 265.5L263.513 260.703C266.162 259.606 269.2 260.864 270.297 263.513L265.5 265.5ZM188.578 441.612L252.539 415.119L256.513 424.713L192.552 451.206L188.578 441.612ZM287.196 331.448L260.703 267.487L270.297 263.513L296.79 327.474L287.196 331.448ZM267.487 270.298L203.526 296.791L199.552 287.197L263.513 260.703L267.487 270.298ZM168.869 380.461L195.362 444.422L185.768 448.396L159.275 384.435L168.869 380.461ZM203.526 296.791C170.851 310.326 155.334 347.786 168.869 380.461L159.275 384.435C143.545 346.461 161.578 302.926 199.552 287.197L203.526 296.791ZM252.539 415.119C285.214 401.584 300.731 364.124 287.196 331.448L296.79 327.474C312.52 365.448 294.487 408.983 256.513 424.713L252.539 415.119Z" fill="white" fill-opacity="0.5"/>
<path d="M209.299 401.182L211.286 405.979C208.636 407.076 205.599 405.818 204.502 403.169L209.299 401.182ZM265.5 265.5L263.513 260.703C266.162 259.606 269.2 260.864 270.297 263.513L265.5 265.5ZM207.312 396.385L239.292 383.138L243.266 392.732L211.286 405.979L207.312 396.385ZM273.95 299.468L260.703 267.487L270.297 263.513L283.544 295.494L273.95 299.468ZM267.487 270.297L235.506 283.544L231.532 273.95L263.513 260.703L267.487 270.297ZM200.849 367.214L214.096 399.195L204.502 403.169L191.255 371.188L200.849 367.214ZM235.506 283.544C202.831 297.078 187.315 334.539 200.849 367.214L191.255 371.188C175.526 333.214 193.559 289.679 231.532 273.95L235.506 283.544ZM239.292 383.138C271.968 369.603 287.484 332.143 273.95 299.468L283.544 295.494C299.273 333.468 281.24 377.003 243.266 392.732L239.292 383.138Z" fill="white" fill-opacity="0.5"/>
<path d="M340.435 84.5918L338.448 79.7947C341.097 78.6973 344.134 79.9554 345.232 82.6048L340.435 84.5918ZM265.5 265.501L267.487 270.298C264.837 271.395 261.8 270.137 260.703 267.488L265.5 265.501ZM342.422 89.3889L278.461 115.882L274.487 106.288L338.448 79.7947L342.422 89.3889ZM243.803 199.553L270.297 263.513L260.703 267.488L234.209 203.527L243.803 199.553ZM263.513 260.703L327.474 234.21L331.448 243.804L267.487 270.298L263.513 260.703ZM362.131 150.54L335.638 86.5788L345.232 82.6048L371.725 146.566L362.131 150.54ZM327.474 234.21C360.149 220.675 375.666 183.215 362.131 150.54L371.725 146.566C387.454 184.54 369.422 228.075 331.448 243.804L327.474 234.21ZM278.461 115.882C245.785 129.417 230.269 166.877 243.803 199.553L234.209 203.527C218.48 165.553 236.513 122.018 274.487 106.288L278.461 115.882Z" fill="white" fill-opacity="0.5"/>
<path d="M321.701 129.819L319.714 125.022C322.363 123.925 325.4 125.183 326.498 127.832L321.701 129.819ZM265.5 265.501L267.487 270.298C264.837 271.395 261.8 270.137 260.703 267.488L265.5 265.501ZM323.688 134.616L291.707 147.863L287.733 138.269L319.714 125.022L323.688 134.616ZM257.05 231.533L270.297 263.514L260.703 267.488L247.456 235.507L257.05 231.533ZM263.513 260.704L295.493 247.457L299.467 257.051L267.487 270.298L263.513 260.704ZM330.15 163.787L316.904 131.806L326.498 127.832L339.745 159.813L330.15 163.787ZM295.493 247.457C328.168 233.923 343.685 196.462 330.15 163.787L339.745 159.813C355.474 197.787 337.441 241.322 299.467 257.051L295.493 247.457ZM291.707 147.863C259.032 161.398 243.515 198.858 257.05 231.533L247.456 235.507C231.727 197.533 249.759 153.998 287.733 138.269L291.707 147.863Z" fill="white" fill-opacity="0.5"/>
<path d="M446.408 340.435L448.395 345.232C451.045 344.135 452.303 341.097 451.205 338.448L446.408 340.435ZM265.5 265.5L263.513 260.703C260.863 261.801 259.605 264.838 260.703 267.487L265.5 265.5ZM444.421 335.638L380.46 362.131L384.434 371.726L448.395 345.232L444.421 335.638ZM296.79 327.474L270.297 263.513L260.703 267.487L287.196 331.448L296.79 327.474ZM267.487 270.297L331.447 243.804L327.473 234.21L263.513 260.703L267.487 270.297ZM415.118 278.461L441.611 342.422L451.205 338.448L424.712 274.487L415.118 278.461ZM331.447 243.804C364.123 230.269 401.583 245.786 415.118 278.461L424.712 274.487C408.983 236.513 365.447 218.48 327.473 234.21L331.447 243.804ZM380.46 362.131C347.785 375.666 310.325 360.149 296.79 327.474L287.196 331.448C302.925 369.422 346.461 387.455 384.434 371.726L380.46 362.131Z" fill="white" fill-opacity="0.5"/>
<path d="M401.181 321.702L403.168 326.499C405.818 325.401 407.076 322.364 405.978 319.715L401.181 321.702ZM265.5 265.501L263.513 260.703C260.863 261.801 259.605 264.838 260.703 267.488L265.5 265.501ZM399.194 316.905L367.214 330.151L371.188 339.745L403.168 326.499L399.194 316.905ZM283.543 295.494L270.297 263.514L260.703 267.488L273.949 299.468L283.543 295.494ZM267.487 270.298L299.467 257.051L295.493 247.457L263.513 260.703L267.487 270.298ZM383.137 291.708L396.384 323.689L405.978 319.715L392.731 287.734L383.137 291.708ZM299.467 257.051C332.142 243.516 369.603 259.033 383.137 291.708L392.731 287.734C377.002 249.76 333.467 231.727 295.493 247.457L299.467 257.051ZM367.214 330.151C334.538 343.686 297.078 328.169 283.543 295.494L273.949 299.468C289.679 337.442 333.214 355.475 371.188 339.745L367.214 330.151Z" fill="white" fill-opacity="0.5"/>
<path d="M190.565 84.5913L192.552 79.7942C189.902 78.6968 186.865 79.955 185.768 82.6043L190.565 84.5913ZM265.5 265.5L263.513 270.297C266.162 271.394 269.199 270.136 270.297 267.487L265.5 265.5ZM188.578 89.3884L252.539 115.882L256.513 106.288L192.552 79.7942L188.578 89.3884ZM287.196 199.552L260.702 263.513L270.297 267.487L296.79 203.526L287.196 199.552ZM267.487 260.703L203.526 234.209L199.552 243.804L263.513 270.297L267.487 260.703ZM168.868 150.539L195.362 86.5783L185.768 82.6043L159.274 146.565L168.868 150.539ZM203.526 234.209C170.85 220.675 155.334 183.215 168.868 150.539L159.274 146.565C143.545 184.539 161.578 228.074 199.552 243.804L203.526 234.209ZM252.539 115.882C285.214 129.416 300.73 166.877 287.196 199.552L296.79 203.526C312.519 165.552 294.487 122.017 256.513 106.288L252.539 115.882Z" fill="white" fill-opacity="0.5"/>
<path d="M209.298 129.819L211.285 125.022C208.636 123.924 205.599 125.182 204.501 127.832L209.298 129.819ZM265.5 265.5L263.513 270.297C266.162 271.395 269.199 270.137 270.297 267.487L265.5 265.5ZM207.311 134.616L239.292 147.863L243.266 138.269L211.285 125.022L207.311 134.616ZM273.949 231.533L260.703 263.513L270.297 267.487L283.543 235.507L273.949 231.533ZM267.487 260.703L235.506 247.457L231.532 257.051L263.513 270.297L267.487 260.703ZM200.849 163.786L214.096 131.806L204.501 127.832L191.255 159.812L200.849 163.786ZM235.506 247.457C202.831 233.922 187.314 196.462 200.849 163.786L191.255 159.812C175.525 197.786 193.558 241.321 231.532 257.051L235.506 247.457ZM239.292 147.863C271.967 161.397 287.484 198.858 273.949 231.533L283.543 235.507C299.273 197.533 281.24 153.998 243.266 138.269L239.292 147.863Z" fill="white" fill-opacity="0.5"/>
<path d="M84.5909 340.435L82.6039 345.232C79.9546 344.135 78.6965 341.097 79.7939 338.448L84.5909 340.435ZM265.5 265.5L267.487 260.703C270.136 261.801 271.394 264.838 270.297 267.487L265.5 265.5ZM86.578 335.638L150.539 362.131L146.565 371.726L82.6039 345.232L86.578 335.638ZM234.209 327.474L260.703 263.513L270.297 267.487L243.803 331.448L234.209 327.474ZM263.513 270.297L199.552 243.804L203.526 234.21L267.487 260.703L263.513 270.297ZM115.881 278.461L89.388 342.422L79.7939 338.448L106.287 274.487L115.881 278.461ZM199.552 243.804C166.876 230.269 129.416 245.786 115.881 278.461L106.287 274.487C122.017 236.513 165.552 218.48 203.526 234.21L199.552 243.804ZM150.539 362.131C183.214 375.666 220.675 360.149 234.209 327.474L243.803 331.448C228.074 369.422 184.539 387.455 146.565 371.726L150.539 362.131Z" fill="white" fill-opacity="0.5"/>
<path d="M129.818 321.702L127.831 326.499C125.182 325.401 123.924 322.364 125.021 319.715L129.818 321.702ZM265.5 265.501L267.487 260.703C270.136 261.801 271.394 264.838 270.297 267.488L265.5 265.501ZM131.805 316.905L163.786 330.151L159.812 339.745L127.831 326.499L131.805 316.905ZM247.456 295.494L260.703 263.514L270.297 267.488L257.05 299.468L247.456 295.494ZM263.513 270.298L231.532 257.051L235.506 247.457L267.487 260.703L263.513 270.298ZM147.862 291.708L134.615 323.689L125.021 319.715L138.268 287.734L147.862 291.708ZM231.532 257.051C198.857 243.516 161.396 259.033 147.862 291.708L138.268 287.734C153.997 249.76 197.532 231.727 235.506 247.457L231.532 257.051ZM163.786 330.151C196.461 343.686 233.921 328.169 247.456 295.494L257.05 299.468C241.321 337.442 197.786 355.475 159.812 339.745L163.786 330.151Z" fill="white" fill-opacity="0.5"/>
<path d="M446.408 190.565L448.395 185.768C451.045 186.866 452.303 189.903 451.205 192.552L446.408 190.565ZM265.5 265.5L263.513 270.297C260.863 269.2 259.605 266.163 260.703 263.513L265.5 265.5ZM444.421 195.362L380.46 168.869L384.434 159.275L448.395 185.768L444.421 195.362ZM296.79 203.526L270.297 267.487L260.703 263.513L287.196 199.552L296.79 203.526ZM267.487 260.703L331.448 287.197L327.474 296.791L263.513 270.297L267.487 260.703ZM415.118 252.539L441.611 188.578L451.205 192.552L424.712 256.513L415.118 252.539ZM331.448 287.197C364.123 300.731 401.583 285.215 415.118 252.539L424.712 256.513C408.983 294.487 365.447 312.52 327.474 296.791L331.448 287.197ZM380.46 168.869C347.785 155.334 310.325 170.851 296.79 203.526L287.196 199.552C302.925 161.578 346.46 143.546 384.434 159.275L380.46 168.869Z" fill="white" fill-opacity="0.5"/>
<path d="M401.181 209.299L403.168 204.502C405.818 205.599 407.076 208.636 405.978 211.286L401.181 209.299ZM265.5 265.5L263.513 270.297C260.863 269.2 259.605 266.162 260.703 263.513L265.5 265.5ZM399.194 214.096L367.214 200.849L371.188 191.255L403.168 204.502L399.194 214.096ZM283.543 235.507L270.297 267.487L260.703 263.513L273.949 231.533L283.543 235.507ZM267.487 260.703L299.467 273.95L295.493 283.544L263.513 270.297L267.487 260.703ZM383.137 239.292L396.384 207.312L405.978 211.286L392.731 243.266L383.137 239.292ZM299.467 273.95C332.142 287.484 369.603 271.968 383.137 239.292L392.731 243.266C377.002 281.24 333.467 299.273 295.493 283.544L299.467 273.95ZM367.214 200.849C334.538 187.315 297.078 202.831 283.543 235.507L273.949 231.533C289.679 193.559 333.214 175.526 371.188 191.255L367.214 200.849Z" fill="white" fill-opacity="0.5"/>
<path d="M340.435 446.409L338.448 451.206C341.097 452.304 344.134 451.046 345.232 448.396L340.435 446.409ZM265.5 265.5L267.487 260.703C264.838 259.606 261.8 260.864 260.703 263.513L265.5 265.5ZM342.422 441.612L278.461 415.119L274.487 424.713L338.448 451.206L342.422 441.612ZM243.803 331.448L270.297 267.487L260.703 263.513L234.209 327.474L243.803 331.448ZM263.513 270.298L327.474 296.791L331.448 287.197L267.487 260.703L263.513 270.298ZM362.131 380.461L335.638 444.422L345.232 448.396L371.725 384.435L362.131 380.461ZM327.474 296.791C360.149 310.326 375.666 347.786 362.131 380.461L371.725 384.435C387.455 346.461 369.422 302.926 331.448 287.197L327.474 296.791ZM278.461 415.119C245.785 401.584 230.269 364.124 243.803 331.448L234.209 327.474C218.48 365.448 236.513 408.983 274.487 424.713L278.461 415.119Z" fill="white" fill-opacity="0.5"/>
<path d="M321.701 401.182L319.714 405.979C322.363 407.076 325.401 405.818 326.498 403.169L321.701 401.182ZM265.5 265.5L267.487 260.703C264.837 259.606 261.8 260.864 260.703 263.513L265.5 265.5ZM323.688 396.385L291.707 383.138L287.733 392.732L319.714 405.979L323.688 396.385ZM257.05 299.468L270.297 267.487L260.703 263.513L247.456 295.494L257.05 299.468ZM263.513 270.297L295.493 283.544L299.467 273.95L267.487 260.703L263.513 270.297ZM330.151 367.214L316.904 399.195L326.498 403.169L339.745 371.188L330.151 367.214ZM295.493 283.544C328.169 297.078 343.685 334.539 330.151 367.214L339.745 371.188C355.474 333.214 337.441 289.679 299.467 273.95L295.493 283.544ZM291.707 383.138C259.032 369.603 243.516 332.143 257.05 299.468L247.456 295.494C231.727 333.468 249.759 377.003 287.733 392.732L291.707 383.138Z" fill="white" fill-opacity="0.5"/>
</g>
</svg>
