<svg width="1201" height="909" viewBox="0 0 1201 909" fill="none" xmlns="http://www.w3.org/2000/svg">
<g opacity="0.05">
<path d="M742.735 143.368V137.471C739.478 137.471 736.838 140.111 736.838 143.368H742.735ZM900 300.633V306.531C903.257 306.531 905.897 303.89 905.897 300.633H900ZM742.735 149.266H821.367V137.471H742.735V149.266ZM894.103 222.001V300.633H905.897V222.001H894.103ZM900 294.736H821.367V306.531H900V294.736ZM748.632 222.001V143.368H736.838V222.001H748.632ZM821.367 294.736C781.197 294.736 748.632 262.171 748.632 222.001H736.838C736.838 268.685 774.683 306.531 821.367 306.531V294.736ZM821.367 149.266C861.538 149.266 894.103 181.83 894.103 222.001H905.897C905.897 175.316 868.052 137.471 821.367 137.471V149.266Z" fill="white" fill-opacity="0.5"/>
<path d="M782.051 182.685V176.787C778.794 176.787 776.154 179.428 776.154 182.685H782.051ZM900 300.633V306.531C903.257 306.531 905.897 303.89 905.897 300.633H900ZM782.051 188.582H821.368V176.787H782.051V188.582ZM894.103 261.317V300.633H905.897V261.317H894.103ZM900 294.736H860.684V306.531H900V294.736ZM787.949 222.001V182.685H776.154V222.001H787.949ZM860.684 294.736C820.513 294.736 787.949 262.171 787.949 222.001H776.154C776.154 268.685 813.999 306.531 860.684 306.531V294.736ZM821.368 188.582C861.538 188.582 894.103 221.147 894.103 261.317H905.897C905.897 214.633 868.052 176.787 821.368 176.787V188.582Z" fill="white" fill-opacity="0.5"/>
<path d="M742.735 457.898V463.796C739.478 463.796 736.838 461.155 736.838 457.898H742.735ZM900 300.633V294.736C903.257 294.736 905.897 297.376 905.897 300.633H900ZM742.735 452.001H821.367V463.796H742.735V452.001ZM894.103 379.266V300.633H905.897V379.266H894.103ZM900 306.531H821.367V294.736H900V306.531ZM748.632 379.266V457.898H736.838V379.266H748.632ZM821.367 306.531C781.197 306.531 748.632 339.095 748.632 379.266H736.838C736.838 332.581 774.683 294.736 821.367 294.736V306.531ZM821.367 452.001C861.538 452.001 894.103 419.436 894.103 379.266H905.897C905.897 425.95 868.052 463.796 821.367 463.796V452.001Z" fill="white" fill-opacity="0.5"/>
<path d="M782.051 418.582V424.479C778.794 424.479 776.154 421.839 776.154 418.582H782.051ZM900 300.633V294.736C903.257 294.736 905.897 297.376 905.897 300.633H900ZM782.051 412.685H821.368V424.479H782.051V412.685ZM894.103 339.95V300.633H905.897V339.95H894.103ZM900 306.531H860.684V294.736H900V306.531ZM787.949 379.266V418.582H776.154V379.266H787.949ZM860.684 306.531C820.513 306.531 787.949 339.095 787.949 379.266H776.154C776.154 332.581 813.999 294.736 860.684 294.736V306.531ZM821.368 412.685C861.538 412.685 894.103 380.12 894.103 339.95H905.897C905.897 386.634 868.052 424.479 821.368 424.479V412.685Z" fill="white" fill-opacity="0.5"/>
<path d="M1057.26 143.368V137.471C1060.52 137.471 1063.16 140.111 1063.16 143.368H1057.26ZM900 300.633V306.531C896.743 306.531 894.103 303.89 894.103 300.633H900ZM1057.26 149.266H978.632V137.471H1057.26V149.266ZM905.897 222.001V300.633H894.103V222.001H905.897ZM900 294.736H978.632V306.531H900V294.736ZM1051.37 222.001V143.368H1063.16V222.001H1051.37ZM978.632 294.736C1018.8 294.736 1051.37 262.171 1051.37 222.001H1063.16C1063.16 268.685 1025.32 306.531 978.632 306.531V294.736ZM978.632 149.266C938.462 149.266 905.897 181.83 905.897 222.001H894.103C894.103 175.316 931.948 137.471 978.632 137.471V149.266Z" fill="white" fill-opacity="0.5"/>
<path d="M1017.95 182.685V176.787C1021.21 176.787 1023.85 179.428 1023.85 182.685H1017.95ZM900 300.633V306.531C896.743 306.531 894.103 303.89 894.103 300.633H900ZM1017.95 188.582H978.632V176.787H1017.95V188.582ZM905.897 261.317V300.633H894.103V261.317H905.897ZM900 294.736H939.316V306.531H900V294.736ZM1012.05 222.001V182.685H1023.85V222.001H1012.05ZM939.316 294.736C979.487 294.736 1012.05 262.171 1012.05 222.001H1023.85C1023.85 268.685 986.001 306.531 939.316 306.531V294.736ZM978.632 188.582C938.462 188.582 905.897 221.147 905.897 261.317H894.103C894.103 214.633 931.948 176.787 978.632 176.787V188.582Z" fill="white" fill-opacity="0.5"/>
<path d="M1057.26 457.898V463.796C1060.52 463.796 1063.16 461.155 1063.16 457.898H1057.26ZM900 300.633V294.736C896.743 294.736 894.103 297.376 894.103 300.633H900ZM1057.26 452.001H978.632V463.796H1057.26V452.001ZM905.897 379.266V300.633H894.103V379.266H905.897ZM900 306.531H978.632V294.736H900V306.531ZM1051.37 379.266V457.898H1063.16V379.266H1051.37ZM978.632 306.531C1018.8 306.531 1051.37 339.095 1051.37 379.266H1063.16C1063.16 332.581 1025.32 294.736 978.632 294.736V306.531ZM978.632 452.001C938.462 452.001 905.897 419.436 905.897 379.266H894.103C894.103 425.95 931.948 463.796 978.632 463.796V452.001Z" fill="white" fill-opacity="0.5"/>
<path d="M1017.95 418.582V424.479C1021.21 424.479 1023.85 421.839 1023.85 418.582H1017.95ZM900 300.633V294.736C896.743 294.736 894.103 297.376 894.103 300.633H900ZM1017.95 412.685H978.632V424.479H1017.95V412.685ZM905.897 339.95V300.633H894.103V339.95H905.897ZM900 306.531H939.316V294.736H900V306.531ZM1012.05 379.266V418.582H1023.85V379.266H1012.05ZM939.316 306.531C979.487 306.531 1012.05 339.095 1012.05 379.266H1023.85C1023.85 332.581 986.001 294.736 939.316 294.736V306.531ZM978.632 412.685C938.462 412.685 905.897 380.12 905.897 339.95H894.103C894.103 386.634 931.948 424.479 978.632 424.479V412.685Z" fill="white" fill-opacity="0.5"/>
<path d="M900 78.2269L904.17 74.0568C901.867 71.7537 898.133 71.7537 895.83 74.0568L900 78.2269ZM900 300.633L895.83 304.803C898.133 307.106 901.867 307.106 904.17 304.803L900 300.633ZM895.83 82.397L951.431 137.999L959.772 129.658L904.17 74.0568L895.83 82.397ZM951.431 240.861L895.83 296.463L904.17 304.803L959.772 249.202L951.431 240.861ZM904.17 296.463L848.569 240.861L840.228 249.202L895.83 304.803L904.17 296.463ZM848.569 137.999L904.17 82.397L895.83 74.0568L840.228 129.658L848.569 137.999ZM848.569 240.861C820.164 212.457 820.164 166.403 848.569 137.999L840.228 129.658C807.217 162.669 807.217 216.191 840.228 249.202L848.569 240.861ZM951.431 137.999C979.836 166.403 979.836 212.457 951.431 240.861L959.772 249.202C992.783 216.191 992.783 162.669 959.772 129.658L951.431 137.999Z" fill="white" fill-opacity="0.5"/>
<path d="M900 133.828L904.17 129.658C901.867 127.355 898.133 127.355 895.83 129.658L900 133.828ZM900 300.633L895.83 304.803C898.133 307.106 901.867 307.106 904.17 304.803L900 300.633ZM895.83 137.999L923.631 165.799L931.971 157.459L904.17 129.658L895.83 137.999ZM923.631 268.662L895.83 296.463L904.17 304.803L931.971 277.002L923.631 268.662ZM904.17 296.463L876.369 268.662L868.029 277.002L895.83 304.803L904.17 296.463ZM876.369 165.799L904.17 137.999L895.83 129.658L868.029 157.459L876.369 165.799ZM876.369 268.662C847.965 240.257 847.965 194.204 876.369 165.799L868.029 157.459C835.018 190.47 835.018 243.991 868.029 277.002L876.369 268.662ZM923.631 165.799C952.035 194.204 952.035 240.257 923.631 268.662L931.971 277.002C964.982 243.991 964.982 190.47 931.971 157.459L923.631 165.799Z" fill="white" fill-opacity="0.5"/>
<path d="M677.594 300.633L673.423 304.803C671.12 302.5 671.12 298.766 673.423 296.463L677.594 300.633ZM900 300.633L904.17 296.463C906.473 298.766 906.473 302.5 904.17 304.803L900 300.633ZM681.764 296.463L737.365 352.065L729.025 360.405L673.423 304.803L681.764 296.463ZM840.228 352.065L895.83 296.463L904.17 304.803L848.568 360.405L840.228 352.065ZM895.83 304.803L840.228 249.202L848.568 240.862L904.17 296.463L895.83 304.803ZM737.365 249.202L681.764 304.803L673.423 296.463L729.025 240.862L737.365 249.202ZM840.228 249.202C811.823 220.797 765.77 220.797 737.365 249.202L729.025 240.862C762.036 207.851 815.557 207.851 848.568 240.862L840.228 249.202ZM737.365 352.065C765.77 380.47 811.823 380.47 840.228 352.065L848.568 360.405C815.557 393.416 762.036 393.416 729.025 360.405L737.365 352.065Z" fill="white" fill-opacity="0.5"/>
<path d="M733.195 300.633L729.025 304.803C726.722 302.5 726.722 298.766 729.025 296.463L733.195 300.633ZM900 300.633L904.17 296.463C906.473 298.766 906.473 302.5 904.17 304.803L900 300.633ZM737.365 296.463L765.166 324.264L756.826 332.604L729.025 304.803L737.365 296.463ZM868.029 324.264L895.83 296.463L904.17 304.803L876.369 332.604L868.029 324.264ZM895.83 304.803L868.029 277.003L876.369 268.662L904.17 296.463L895.83 304.803ZM765.166 277.003L737.365 304.803L729.025 296.463L756.826 268.662L765.166 277.003ZM868.029 277.003C839.624 248.598 793.571 248.598 765.166 277.003L756.826 268.662C789.837 235.651 843.358 235.651 876.369 268.662L868.029 277.003ZM765.166 324.264C793.571 352.669 839.624 352.669 868.029 324.264L876.369 332.604C843.358 365.615 789.837 365.615 756.826 332.604L765.166 324.264Z" fill="white" fill-opacity="0.5"/>
<path d="M1122.41 300.633L1126.58 296.463C1128.88 298.766 1128.88 302.5 1126.58 304.803L1122.41 300.633ZM900 300.633L895.83 304.803C893.527 302.5 893.527 298.766 895.83 296.463L900 300.633ZM1118.24 304.803L1062.63 249.202L1070.98 240.862L1126.58 296.463L1118.24 304.803ZM959.772 249.202L904.17 304.803L895.83 296.463L951.432 240.862L959.772 249.202ZM904.17 296.463L959.772 352.065L951.432 360.405L895.83 304.803L904.17 296.463ZM1062.63 352.065L1118.24 296.463L1126.58 304.803L1070.98 360.405L1062.63 352.065ZM959.772 352.065C988.177 380.47 1034.23 380.47 1062.63 352.065L1070.98 360.405C1037.96 393.416 984.443 393.416 951.432 360.405L959.772 352.065ZM1062.63 249.202C1034.23 220.797 988.177 220.797 959.772 249.202L951.432 240.862C984.443 207.851 1037.96 207.851 1070.98 240.862L1062.63 249.202Z" fill="white" fill-opacity="0.5"/>
<path d="M1066.81 300.633L1070.98 296.463C1073.28 298.766 1073.28 302.5 1070.98 304.803L1066.81 300.633ZM900 300.633L895.83 304.803C893.527 302.5 893.527 298.766 895.83 296.463L900 300.633ZM1062.63 304.803L1034.83 277.003L1043.17 268.662L1070.98 296.463L1062.63 304.803ZM931.971 277.003L904.171 304.803L895.83 296.463L923.631 268.662L931.971 277.003ZM904.171 296.463L931.971 324.264L923.631 332.604L895.83 304.803L904.171 296.463ZM1034.83 324.264L1062.63 296.463L1070.98 304.803L1043.17 332.604L1034.83 324.264ZM931.971 324.264C960.376 352.669 1006.43 352.669 1034.83 324.264L1043.17 332.604C1010.16 365.615 956.642 365.615 923.631 332.604L931.971 324.264ZM1034.83 277.003C1006.43 248.598 960.376 248.598 931.971 277.003L923.631 268.662C956.642 235.651 1010.16 235.651 1043.17 268.662L1034.83 277.003Z" fill="white" fill-opacity="0.5"/>
<path d="M900 523.04L895.83 527.21C898.133 529.513 901.867 529.513 904.17 527.21L900 523.04ZM900 300.634L904.17 296.464C901.867 294.16 898.133 294.16 895.83 296.464L900 300.634ZM904.17 518.87L848.569 463.268L840.228 471.608L895.83 527.21L904.17 518.87ZM848.569 360.405L904.17 304.804L895.83 296.464L840.228 352.065L848.569 360.405ZM895.83 304.804L951.431 360.405L959.772 352.065L904.17 296.464L895.83 304.804ZM951.431 463.268L895.83 518.87L904.17 527.21L959.772 471.608L951.431 463.268ZM951.431 360.405C979.836 388.81 979.836 434.863 951.431 463.268L959.772 471.608C992.783 438.597 992.783 385.076 959.772 352.065L951.431 360.405ZM848.569 463.268C820.164 434.863 820.164 388.81 848.569 360.405L840.228 352.065C807.217 385.076 807.217 438.597 840.228 471.608L848.569 463.268Z" fill="white" fill-opacity="0.5"/>
<path d="M900 467.438L895.83 471.608C898.133 473.912 901.867 473.912 904.17 471.608L900 467.438ZM900 300.634L904.17 296.464C901.867 294.16 898.133 294.16 895.83 296.464L900 300.634ZM904.17 463.268L876.369 435.467L868.029 443.808L895.83 471.608L904.17 463.268ZM876.369 332.605L904.17 304.804L895.83 296.464L868.029 324.264L876.369 332.605ZM895.83 304.804L923.631 332.605L931.971 324.264L904.17 296.464L895.83 304.804ZM923.631 435.467L895.83 463.268L904.17 471.608L931.971 443.808L923.631 435.467ZM923.631 332.605C952.035 361.009 952.035 407.063 923.631 435.467L931.971 443.808C964.982 410.797 964.982 357.275 931.971 324.264L923.631 332.605ZM876.369 435.467C847.965 407.063 847.965 361.009 876.369 332.605L868.029 324.264C835.018 357.275 835.018 410.797 868.029 443.808L876.369 435.467Z" fill="white" fill-opacity="0.5"/>
<path d="M694.523 215.522L692.267 210.074C689.257 211.32 687.828 214.77 689.075 217.779L694.523 215.522ZM900 300.633L902.257 306.082C905.266 304.835 906.695 301.386 905.449 298.377L900 300.633ZM696.78 220.971L769.427 190.879L764.914 179.982L692.267 210.074L696.78 220.971ZM864.46 230.243L894.551 302.89L905.449 298.377L875.357 225.73L864.46 230.243ZM897.743 295.185L825.096 325.276L829.61 336.173L902.257 306.082L897.743 295.185ZM730.063 285.912L699.972 213.265L689.075 217.779L719.166 290.426L730.063 285.912ZM825.096 325.276C787.984 340.649 745.436 323.025 730.063 285.912L719.166 290.426C737.032 333.557 786.479 354.039 829.61 336.173L825.096 325.276ZM769.427 190.879C806.54 175.507 849.088 193.131 864.46 230.243L875.357 225.73C857.492 182.599 808.044 162.117 764.914 179.982L769.427 190.879Z" fill="white" fill-opacity="0.5"/>
<path d="M745.892 236.8L743.636 231.351C740.626 232.598 739.198 236.048 740.444 239.057L745.892 236.8ZM900 300.633L902.257 306.082C905.266 304.835 906.695 301.386 905.448 298.377L900 300.633ZM748.149 242.249L784.473 227.203L779.959 216.306L743.636 231.351L748.149 242.249ZM879.506 266.567L894.551 302.89L905.448 298.377L890.403 262.053L879.506 266.567ZM897.743 295.185L861.42 310.231L865.933 321.128L902.257 306.082L897.743 295.185ZM766.387 270.867L751.341 234.543L740.444 239.057L755.49 275.38L766.387 270.867ZM861.42 310.231C824.307 325.603 781.759 307.979 766.387 270.867L755.49 275.38C773.355 318.511 822.802 338.993 865.933 321.128L861.42 310.231ZM784.473 227.203C821.585 211.83 864.133 229.454 879.506 266.567L890.403 262.053C872.537 218.922 823.09 198.44 779.959 216.306L784.473 227.203Z" fill="white" fill-opacity="0.5"/>
<path d="M814.889 506.11L817.146 511.559C814.137 512.805 810.687 511.376 809.441 508.367L814.889 506.11ZM900 300.634L897.743 295.185C900.753 293.939 904.202 295.368 905.449 298.377L900 300.634ZM812.632 500.662L885.279 470.57L889.793 481.467L817.146 511.559L812.632 500.662ZM924.643 375.537L894.552 302.89L905.449 298.377L935.54 371.024L924.643 375.537ZM902.257 306.082L829.61 336.173L825.097 325.276L897.743 295.185L902.257 306.082ZM790.246 431.206L820.338 503.853L809.441 508.367L779.349 435.72L790.246 431.206ZM829.61 336.173C792.498 351.546 774.874 394.094 790.246 431.206L779.349 435.72C761.484 392.589 781.966 343.142 825.097 325.276L829.61 336.173ZM885.279 470.57C922.392 455.198 940.016 412.65 924.643 375.537L935.54 371.024C953.406 414.155 932.924 463.602 889.793 481.467L885.279 470.57Z" fill="white" fill-opacity="0.5"/>
<path d="M836.167 454.741L838.424 460.189C835.415 461.436 831.965 460.007 830.719 456.998L836.167 454.741ZM900 300.633L897.744 295.185C900.753 293.939 904.203 295.368 905.449 298.377L900 300.633ZM833.91 449.292L870.234 434.247L874.747 445.144L838.424 460.189L833.91 449.292ZM909.598 339.214L894.552 302.89L905.449 298.377L920.495 334.7L909.598 339.214ZM902.257 306.082L865.934 321.128L861.42 310.231L897.744 295.185L902.257 306.082ZM826.57 416.161L841.616 452.484L830.719 456.998L815.673 420.674L826.57 416.161ZM865.934 321.128C828.821 336.5 811.197 379.048 826.57 416.161L815.673 420.674C797.808 377.543 818.289 328.096 861.42 310.231L865.934 321.128ZM870.234 434.247C907.346 418.874 924.97 376.326 909.598 339.214L920.495 334.7C938.36 377.831 917.878 427.278 874.747 445.144L870.234 434.247Z" fill="white" fill-opacity="0.5"/>
<path d="M985.111 95.157L982.854 89.7085C985.864 88.4621 989.313 89.891 990.56 92.9002L985.111 95.157ZM900 300.634L902.257 306.082C899.248 307.329 895.798 305.9 894.552 302.89L900 300.634ZM987.368 100.606L914.721 130.697L910.207 119.8L982.854 89.7085L987.368 100.606ZM875.357 225.73L905.449 298.377L894.552 302.89L864.46 230.243L875.357 225.73ZM897.743 295.185L970.39 265.094L974.904 275.991L902.257 306.082L897.743 295.185ZM1009.75 170.061L979.663 97.4139L990.56 92.9002L1020.65 165.547L1009.75 170.061ZM970.39 265.094C1007.5 249.721 1025.13 207.173 1009.75 170.061L1020.65 165.547C1038.52 208.678 1018.03 258.125 974.904 275.991L970.39 265.094ZM914.721 130.697C877.609 146.069 859.985 188.617 875.357 225.73L864.46 230.243C846.595 187.113 867.077 137.665 910.207 119.8L914.721 130.697Z" fill="white" fill-opacity="0.5"/>
<path d="M963.833 146.526L961.577 141.078C964.586 139.831 968.036 141.26 969.282 144.269L963.833 146.526ZM900 300.634L902.257 306.082C899.248 307.328 895.798 305.9 894.552 302.89L900 300.634ZM966.09 151.975L929.767 167.02L925.253 156.123L961.577 141.078L966.09 151.975ZM890.403 262.053L905.449 298.377L894.552 302.89L879.506 266.567L890.403 262.053ZM897.743 295.185L934.067 280.139L938.58 291.036L902.257 306.082L897.743 295.185ZM973.431 185.106L958.385 148.783L969.282 144.269L984.328 180.593L973.431 185.106ZM934.067 280.139C971.179 264.767 988.803 222.219 973.431 185.106L984.328 180.593C1002.19 223.724 981.711 273.171 938.58 291.036L934.067 280.139ZM929.767 167.02C892.654 182.393 875.03 224.941 890.403 262.053L879.506 266.567C861.641 223.436 882.122 173.989 925.253 156.123L929.767 167.02Z" fill="white" fill-opacity="0.5"/>
<path d="M1105.48 385.745L1107.73 391.194C1110.74 389.947 1112.17 386.497 1110.93 383.488L1105.48 385.745ZM900 300.634L897.743 295.185C894.734 296.432 893.305 299.882 894.551 302.891L900 300.634ZM1103.22 380.296L1030.57 410.388L1035.09 421.285L1107.73 391.194L1103.22 380.296ZM935.54 371.024L905.449 298.377L894.551 302.891L924.643 375.538L935.54 371.024ZM902.257 306.082L974.904 275.991L970.39 265.094L897.743 295.185L902.257 306.082ZM1069.94 315.355L1100.03 388.002L1110.93 383.488L1080.83 310.841L1069.94 315.355ZM974.904 275.991C1012.02 260.618 1054.56 278.242 1069.94 315.355L1080.83 310.841C1062.97 267.71 1013.52 247.229 970.39 265.094L974.904 275.991ZM1030.57 410.388C993.46 425.76 950.912 408.137 935.54 371.024L924.643 375.538C942.508 418.669 991.956 439.15 1035.09 421.285L1030.57 410.388Z" fill="white" fill-opacity="0.5"/>
<path d="M1054.11 364.467L1056.36 369.916C1059.37 368.669 1060.8 365.22 1059.56 362.21L1054.11 364.467ZM900 300.634L897.743 295.185C894.734 296.432 893.305 299.882 894.551 302.891L900 300.634ZM1051.85 359.019L1015.53 374.064L1020.04 384.961L1056.36 369.916L1051.85 359.019ZM920.494 334.7L905.448 298.377L894.551 302.891L909.597 339.214L920.494 334.7ZM902.257 306.082L938.58 291.037L934.067 280.14L897.743 295.185L902.257 306.082ZM1033.61 330.401L1048.66 366.724L1059.56 362.21L1044.51 325.887L1033.61 330.401ZM938.58 291.037C975.693 275.664 1018.24 293.288 1033.61 330.401L1044.51 325.887C1026.64 282.756 977.197 262.274 934.067 280.14L938.58 291.037ZM1015.53 374.064C978.414 389.437 935.867 371.813 920.494 334.7L909.597 339.214C927.463 382.345 976.91 402.827 1020.04 384.961L1015.53 374.064Z" fill="white" fill-opacity="0.5"/>
<path d="M814.888 95.1568L817.145 89.7082C814.136 88.4618 810.686 89.8908 809.44 92.8999L814.888 95.1568ZM900 300.633L897.743 306.082C900.752 307.328 904.202 305.899 905.448 302.89L900 300.633ZM812.632 100.605L885.279 130.697L889.792 119.8L817.145 89.7082L812.632 100.605ZM924.642 225.73L894.551 298.376L905.448 302.89L935.539 230.243L924.642 225.73ZM902.256 295.185L829.61 265.093L825.096 275.991L897.743 306.082L902.256 295.185ZM790.246 170.061L820.337 97.4136L809.44 92.8999L779.349 165.547L790.246 170.061ZM829.61 265.093C792.497 249.721 774.873 207.173 790.246 170.061L779.349 165.547C761.483 208.678 781.965 258.125 825.096 275.991L829.61 265.093ZM885.279 130.697C922.391 146.069 940.015 188.617 924.642 225.73L935.539 230.243C953.405 187.112 932.923 137.665 889.792 119.8L885.279 130.697Z" fill="white" fill-opacity="0.5"/>
<path d="M836.166 146.526L838.423 141.077C835.414 139.831 831.964 141.26 830.718 144.269L836.166 146.526ZM900 300.633L897.743 306.082C900.752 307.328 904.202 305.899 905.448 302.89L900 300.633ZM833.91 151.974L870.233 167.02L874.747 156.123L838.423 141.077L833.91 151.974ZM909.597 262.053L894.551 298.376L905.448 302.89L920.494 266.567L909.597 262.053ZM902.257 295.185L865.933 280.139L861.419 291.036L897.743 306.082L902.257 295.185ZM826.569 185.106L841.615 148.783L830.718 144.269L815.672 180.592L826.569 185.106ZM865.933 280.139C828.82 264.767 811.197 222.219 826.569 185.106L815.672 180.592C797.807 223.723 818.289 273.171 861.419 291.036L865.933 280.139ZM870.233 167.02C907.346 182.393 924.969 224.94 909.597 262.053L920.494 266.567C938.359 223.436 917.878 173.988 874.747 156.123L870.233 167.02Z" fill="white" fill-opacity="0.5"/>
<path d="M694.523 385.745L692.267 391.193C689.257 389.947 687.828 386.497 689.075 383.488L694.523 385.745ZM900 300.634L902.257 295.185C905.266 296.432 906.695 299.881 905.449 302.891L900 300.634ZM696.78 380.296L769.427 410.388L764.914 421.285L692.267 391.193L696.78 380.296ZM864.46 371.024L894.551 298.377L905.449 302.891L875.357 375.538L864.46 371.024ZM897.743 306.082L825.096 275.991L829.61 265.094L902.257 295.185L897.743 306.082ZM730.063 315.355L699.972 388.002L689.075 383.488L719.166 310.841L730.063 315.355ZM825.096 275.991C787.984 260.618 745.436 278.242 730.063 315.355L719.166 310.841C737.032 267.71 786.479 247.228 829.61 265.094L825.096 275.991ZM769.427 410.388C806.54 425.76 849.088 408.137 864.46 371.024L875.357 375.538C857.492 418.668 808.044 439.15 764.914 421.285L769.427 410.388Z" fill="white" fill-opacity="0.5"/>
<path d="M745.892 364.467L743.636 369.916C740.626 368.669 739.198 365.219 740.444 362.21L745.892 364.467ZM900 300.634L902.257 295.185C905.266 296.432 906.695 299.881 905.448 302.891L900 300.634ZM748.149 359.019L784.473 374.064L779.959 384.961L743.636 369.916L748.149 359.019ZM879.506 334.7L894.551 298.377L905.448 302.891L890.403 339.214L879.506 334.7ZM897.743 306.082L861.42 291.037L865.933 280.14L902.257 295.185L897.743 306.082ZM766.387 330.401L751.341 366.724L740.444 362.21L755.49 325.887L766.387 330.401ZM861.42 291.037C824.307 275.664 781.759 293.288 766.387 330.401L755.49 325.887C773.355 282.756 822.802 262.274 865.933 280.14L861.42 291.037ZM784.473 374.064C821.585 389.437 864.133 371.813 879.506 334.7L890.403 339.214C872.537 382.345 823.09 402.827 779.959 384.961L784.473 374.064Z" fill="white" fill-opacity="0.5"/>
<path d="M1105.48 215.522L1107.73 210.074C1110.74 211.32 1112.17 214.77 1110.93 217.779L1105.48 215.522ZM900 300.633L897.743 306.082C894.734 304.835 893.305 301.386 894.551 298.377L900 300.633ZM1103.22 220.971L1030.57 190.879L1035.09 179.982L1107.73 210.074L1103.22 220.971ZM935.54 230.243L905.449 302.89L894.551 298.377L924.643 225.73L935.54 230.243ZM902.257 295.185L974.904 325.276L970.39 336.173L897.743 306.082L902.257 295.185ZM1069.94 285.912L1100.03 213.265L1110.93 217.779L1080.83 290.426L1069.94 285.912ZM974.904 325.276C1012.02 340.649 1054.56 323.025 1069.94 285.912L1080.83 290.426C1062.97 333.557 1013.52 354.039 970.39 336.173L974.904 325.276ZM1030.57 190.879C993.46 175.507 950.912 193.131 935.54 230.243L924.643 225.73C942.508 182.599 991.956 162.117 1035.09 179.982L1030.57 190.879Z" fill="white" fill-opacity="0.5"/>
<path d="M1054.11 236.8L1056.36 231.351C1059.37 232.598 1060.8 236.048 1059.56 239.057L1054.11 236.8ZM900 300.633L897.743 306.082C894.734 304.835 893.305 301.386 894.551 298.377L900 300.633ZM1051.85 242.249L1015.53 227.203L1020.04 216.306L1056.36 231.351L1051.85 242.249ZM920.494 266.567L905.448 302.89L894.551 298.377L909.597 262.053L920.494 266.567ZM902.257 295.185L938.58 310.231L934.067 321.128L897.743 306.082L902.257 295.185ZM1033.61 270.867L1048.66 234.543L1059.56 239.057L1044.51 275.38L1033.61 270.867ZM938.58 310.231C975.693 325.603 1018.24 307.979 1033.61 270.867L1044.51 275.38C1026.64 318.511 977.197 338.993 934.067 321.128L938.58 310.231ZM1015.53 227.203C978.414 211.83 935.867 229.454 920.494 266.567L909.597 262.053C927.463 218.922 976.91 198.44 1020.04 216.306L1015.53 227.203Z" fill="white" fill-opacity="0.5"/>
<path d="M985.111 506.11L982.854 511.559C985.863 512.805 989.313 511.376 990.56 508.367L985.111 506.11ZM900 300.633L902.257 295.185C899.248 293.939 895.798 295.368 894.551 298.377L900 300.633ZM987.368 500.662L914.721 470.57L910.207 481.467L982.854 511.559L987.368 500.662ZM875.357 375.537L905.448 302.89L894.551 298.377L864.46 371.024L875.357 375.537ZM897.743 306.082L970.39 336.173L974.904 325.276L902.257 295.185L897.743 306.082ZM1009.75 431.206L979.663 503.853L990.56 508.367L1020.65 435.72L1009.75 431.206ZM970.39 336.173C1007.5 351.546 1025.13 394.094 1009.75 431.206L1020.65 435.72C1038.52 392.589 1018.03 343.142 974.904 325.276L970.39 336.173ZM914.721 470.57C877.608 455.198 859.985 412.65 875.357 375.537L864.46 371.024C846.595 414.155 867.076 463.602 910.207 481.467L914.721 470.57Z" fill="white" fill-opacity="0.5"/>
<path d="M963.833 454.741L961.577 460.189C964.586 461.436 968.035 460.007 969.282 456.998L963.833 454.741ZM900 300.633L902.257 295.185C899.248 293.938 895.798 295.367 894.551 298.377L900 300.633ZM966.09 449.292L929.767 434.247L925.253 445.144L961.577 460.189L966.09 449.292ZM890.403 339.214L905.449 302.89L894.551 298.377L879.506 334.7L890.403 339.214ZM897.743 306.082L934.067 321.128L938.58 310.231L902.257 295.185L897.743 306.082ZM973.431 416.161L958.385 452.484L969.282 456.998L984.328 420.674L973.431 416.161ZM934.067 321.128C971.179 336.5 988.803 379.048 973.431 416.161L984.328 420.674C1002.19 377.543 981.711 328.096 938.58 310.231L934.067 321.128ZM929.767 434.247C892.654 418.874 875.03 376.326 890.403 339.214L879.506 334.7C861.64 377.831 882.122 427.278 925.253 445.144L929.767 434.247Z" fill="white" fill-opacity="0.5"/>
</g>
<g opacity="0.05">
<path d="M143.735 450.368V444.471C140.478 444.471 137.838 447.111 137.838 450.368H143.735ZM301 607.633V613.531C304.257 613.531 306.897 610.89 306.897 607.633H301ZM143.735 456.266H222.367V444.471H143.735V456.266ZM295.103 529.001V607.633H306.897V529.001H295.103ZM301 601.736H222.367V613.531H301V601.736ZM149.632 529.001V450.368H137.838V529.001H149.632ZM222.367 601.736C182.197 601.736 149.632 569.171 149.632 529.001H137.838C137.838 575.685 175.683 613.531 222.367 613.531V601.736ZM222.367 456.266C262.538 456.266 295.103 488.83 295.103 529.001H306.897C306.897 482.316 269.052 444.471 222.367 444.471V456.266Z" fill="white" fill-opacity="0.5"/>
<path d="M183.051 489.685V483.787C179.794 483.787 177.154 486.428 177.154 489.685H183.051ZM301 607.633V613.531C304.257 613.531 306.897 610.89 306.897 607.633H301ZM183.051 495.582H222.368V483.787H183.051V495.582ZM295.103 568.317V607.633H306.897V568.317H295.103ZM301 601.736H261.684V613.531H301V601.736ZM188.949 529.001V489.685H177.154V529.001H188.949ZM261.684 601.736C221.513 601.736 188.949 569.171 188.949 529.001H177.154C177.154 575.685 214.999 613.531 261.684 613.531V601.736ZM222.368 495.582C262.538 495.582 295.103 528.147 295.103 568.317H306.897C306.897 521.633 269.052 483.787 222.368 483.787V495.582Z" fill="white" fill-opacity="0.5"/>
<path d="M143.735 764.898V770.796C140.478 770.796 137.838 768.155 137.838 764.898H143.735ZM301 607.633V601.736C304.257 601.736 306.897 604.376 306.897 607.633H301ZM143.735 759.001H222.367V770.796H143.735V759.001ZM295.103 686.266V607.633H306.897V686.266H295.103ZM301 613.531H222.367V601.736H301V613.531ZM149.632 686.266V764.898H137.838V686.266H149.632ZM222.367 613.531C182.197 613.531 149.632 646.095 149.632 686.266H137.838C137.838 639.581 175.683 601.736 222.367 601.736V613.531ZM222.367 759.001C262.538 759.001 295.103 726.436 295.103 686.266H306.897C306.897 732.95 269.052 770.796 222.367 770.796V759.001Z" fill="white" fill-opacity="0.5"/>
<path d="M183.051 725.582V731.479C179.794 731.479 177.154 728.839 177.154 725.582H183.051ZM301 607.633V601.736C304.257 601.736 306.897 604.376 306.897 607.633H301ZM183.051 719.684H222.368V731.479H183.051V719.684ZM295.103 646.949V607.633H306.897V646.949H295.103ZM301 613.531H261.684V601.736H301V613.531ZM188.949 686.266V725.582H177.154V686.266H188.949ZM261.684 613.531C221.513 613.531 188.949 646.095 188.949 686.266H177.154C177.154 639.581 214.999 601.736 261.684 601.736V613.531ZM222.368 719.684C262.538 719.684 295.103 687.12 295.103 646.949H306.897C306.897 693.634 269.052 731.479 222.368 731.479V719.684Z" fill="white" fill-opacity="0.5"/>
<path d="M458.265 450.368V444.471C461.522 444.471 464.162 447.111 464.162 450.368H458.265ZM301 607.633V613.531C297.743 613.531 295.102 610.89 295.102 607.633H301ZM458.265 456.266H379.632V444.471H458.265V456.266ZM306.897 529.001V607.633H295.102V529.001H306.897ZM301 601.736H379.632V613.531H301V601.736ZM452.367 529.001V450.368H464.162V529.001H452.367ZM379.632 601.736C419.803 601.736 452.367 569.171 452.367 529.001H464.162C464.162 575.685 426.317 613.531 379.632 613.531V601.736ZM379.632 456.266C339.462 456.266 306.897 488.83 306.897 529.001H295.102C295.102 482.316 332.948 444.471 379.632 444.471V456.266Z" fill="white" fill-opacity="0.5"/>
<path d="M418.949 489.685V483.787C422.206 483.787 424.846 486.428 424.846 489.685H418.949ZM301 607.633V613.531C297.743 613.531 295.102 610.89 295.102 607.633H301ZM418.949 495.582H379.632V483.787H418.949V495.582ZM306.897 568.317V607.633H295.102V568.317H306.897ZM301 601.736H340.316V613.531H301V601.736ZM413.051 529.001V489.685H424.846V529.001H413.051ZM340.316 601.736C380.487 601.736 413.051 569.171 413.051 529.001H424.846C424.846 575.685 387.001 613.531 340.316 613.531V601.736ZM379.632 495.582C339.462 495.582 306.897 528.147 306.897 568.317H295.102C295.102 521.633 332.948 483.787 379.632 483.787V495.582Z" fill="white" fill-opacity="0.5"/>
<path d="M458.265 764.898V770.796C461.522 770.796 464.162 768.155 464.162 764.898H458.265ZM301 607.633V601.736C297.743 601.736 295.102 604.376 295.102 607.633H301ZM458.265 759.001H379.632V770.796H458.265V759.001ZM306.897 686.266V607.633H295.102V686.266H306.897ZM301 613.531H379.632V601.736H301V613.531ZM452.367 686.266V764.898H464.162V686.266H452.367ZM379.632 613.531C419.803 613.531 452.367 646.095 452.367 686.266H464.162C464.162 639.581 426.317 601.736 379.632 601.736V613.531ZM379.632 759.001C339.462 759.001 306.897 726.436 306.897 686.266H295.102C295.102 732.95 332.948 770.796 379.632 770.796V759.001Z" fill="white" fill-opacity="0.5"/>
<path d="M418.949 725.582V731.479C422.206 731.479 424.846 728.839 424.846 725.582H418.949ZM301 607.633V601.736C297.743 601.736 295.102 604.376 295.102 607.633H301ZM418.949 719.684H379.632V731.479H418.949V719.684ZM306.897 646.949V607.633H295.102V646.949H306.897ZM301 613.531H340.316V601.736H301V613.531ZM413.051 686.266V725.582H424.846V686.266H413.051ZM340.316 613.531C380.487 613.531 413.051 646.095 413.051 686.266H424.846C424.846 639.581 387.001 601.736 340.316 601.736V613.531ZM379.632 719.684C339.462 719.684 306.897 687.12 306.897 646.949H295.102C295.102 693.634 332.948 731.479 379.632 731.479V719.684Z" fill="white" fill-opacity="0.5"/>
<path d="M301 385.227L305.17 381.057C302.867 378.754 299.133 378.754 296.83 381.057L301 385.227ZM301 607.633L296.83 611.803C299.133 614.106 302.867 614.106 305.17 611.803L301 607.633ZM296.83 389.397L352.431 444.999L360.772 436.658L305.17 381.057L296.83 389.397ZM352.431 547.861L296.83 603.463L305.17 611.803L360.772 556.202L352.431 547.861ZM305.17 603.463L249.569 547.861L241.228 556.202L296.83 611.803L305.17 603.463ZM249.569 444.999L305.17 389.397L296.83 381.057L241.228 436.658L249.569 444.999ZM249.569 547.861C221.164 519.457 221.164 473.403 249.569 444.999L241.228 436.658C208.217 469.669 208.217 523.191 241.228 556.202L249.569 547.861ZM352.431 444.999C380.836 473.403 380.836 519.457 352.431 547.861L360.772 556.202C393.783 523.191 393.783 469.669 360.772 436.658L352.431 444.999Z" fill="white" fill-opacity="0.5"/>
<path d="M301 440.828L305.17 436.658C302.867 434.355 299.133 434.355 296.83 436.658L301 440.828ZM301 607.633L296.83 611.803C299.133 614.106 302.867 614.106 305.17 611.803L301 607.633ZM296.83 444.998L324.631 472.799L332.971 464.459L305.17 436.658L296.83 444.998ZM324.631 575.662L296.83 603.463L305.17 611.803L332.971 584.002L324.631 575.662ZM305.17 603.463L277.369 575.662L269.029 584.002L296.83 611.803L305.17 603.463ZM277.369 472.799L305.17 444.998L296.83 436.658L269.029 464.459L277.369 472.799ZM277.369 575.662C248.965 547.257 248.965 501.204 277.369 472.799L269.029 464.459C236.018 497.47 236.018 550.991 269.029 584.002L277.369 575.662ZM324.631 472.799C353.035 501.204 353.035 547.257 324.631 575.662L332.971 584.002C365.982 550.991 365.982 497.47 332.971 464.459L324.631 472.799Z" fill="white" fill-opacity="0.5"/>
<path d="M78.5935 607.633L74.4234 611.803C72.1203 609.5 72.1203 605.766 74.4234 603.463L78.5935 607.633ZM301 607.633L305.17 603.463C307.473 605.766 307.473 609.5 305.17 611.803L301 607.633ZM82.7636 603.463L138.365 659.065L130.025 667.405L74.4234 611.803L82.7636 603.463ZM241.228 659.065L296.83 603.463L305.17 611.803L249.568 667.405L241.228 659.065ZM296.83 611.803L241.228 556.202L249.568 547.862L305.17 603.463L296.83 611.803ZM138.365 556.202L82.7636 611.803L74.4234 603.463L130.025 547.862L138.365 556.202ZM241.228 556.202C212.823 527.797 166.77 527.797 138.365 556.202L130.025 547.862C163.036 514.851 216.557 514.851 249.568 547.862L241.228 556.202ZM138.365 659.065C166.77 687.47 212.823 687.47 241.228 659.065L249.568 667.405C216.557 700.416 163.036 700.416 130.025 667.405L138.365 659.065Z" fill="white" fill-opacity="0.5"/>
<path d="M134.195 607.633L130.025 611.803C127.722 609.5 127.722 605.766 130.025 603.463L134.195 607.633ZM301 607.633L305.17 603.463C307.473 605.766 307.473 609.5 305.17 611.803L301 607.633ZM138.365 603.463L166.166 631.264L157.826 639.604L130.025 611.803L138.365 603.463ZM269.029 631.264L296.83 603.463L305.17 611.803L277.369 639.604L269.029 631.264ZM296.83 611.803L269.029 584.003L277.369 575.662L305.17 603.463L296.83 611.803ZM166.166 584.003L138.365 611.803L130.025 603.463L157.826 575.662L166.166 584.003ZM269.029 584.003C240.624 555.598 194.571 555.598 166.166 584.003L157.826 575.662C190.837 542.651 244.358 542.651 277.369 575.662L269.029 584.003ZM166.166 631.264C194.571 659.669 240.624 659.669 269.029 631.264L277.369 639.604C244.358 672.615 190.837 672.615 157.826 639.604L166.166 631.264Z" fill="white" fill-opacity="0.5"/>
<path d="M523.406 607.633L527.577 603.463C529.88 605.766 529.88 609.5 527.577 611.803L523.406 607.633ZM301 607.633L296.83 611.803C294.527 609.5 294.527 605.766 296.83 603.463L301 607.633ZM519.236 611.803L463.635 556.202L471.975 547.862L527.577 603.463L519.236 611.803ZM360.772 556.202L305.17 611.803L296.83 603.463L352.432 547.862L360.772 556.202ZM305.17 603.463L360.772 659.065L352.432 667.405L296.83 611.803L305.17 603.463ZM463.635 659.065L519.236 603.463L527.577 611.803L471.975 667.405L463.635 659.065ZM360.772 659.065C389.177 687.47 435.23 687.47 463.635 659.065L471.975 667.405C438.964 700.416 385.443 700.416 352.432 667.405L360.772 659.065ZM463.635 556.202C435.23 527.797 389.177 527.797 360.772 556.202L352.432 547.862C385.443 514.851 438.964 514.851 471.975 547.862L463.635 556.202Z" fill="white" fill-opacity="0.5"/>
<path d="M467.805 607.633L471.975 603.463C474.278 605.766 474.278 609.5 471.975 611.803L467.805 607.633ZM301 607.633L296.83 611.803C294.527 609.5 294.527 605.766 296.83 603.463L301 607.633ZM463.635 611.803L435.834 584.003L444.174 575.662L471.975 603.463L463.635 611.803ZM332.971 584.003L305.17 611.803L296.83 603.463L324.631 575.662L332.971 584.003ZM305.17 603.463L332.971 631.264L324.631 639.604L296.83 611.803L305.17 603.463ZM435.834 631.264L463.635 603.463L471.975 611.803L444.174 639.604L435.834 631.264ZM332.971 631.264C361.376 659.669 407.429 659.669 435.834 631.264L444.174 639.604C411.163 672.615 357.642 672.615 324.631 639.604L332.971 631.264ZM435.834 584.003C407.429 555.598 361.376 555.598 332.971 584.003L324.631 575.662C357.642 542.651 411.163 542.651 444.174 575.662L435.834 584.003Z" fill="white" fill-opacity="0.5"/>
<path d="M301 830.04L296.83 834.21C299.133 836.513 302.867 836.513 305.17 834.21L301 830.04ZM301 607.634L305.17 603.463C302.867 601.16 299.133 601.16 296.83 603.463L301 607.634ZM305.17 825.87L249.569 770.268L241.228 778.608L296.83 834.21L305.17 825.87ZM249.569 667.405L305.17 611.804L296.83 603.463L241.228 659.065L249.569 667.405ZM296.83 611.804L352.431 667.405L360.772 659.065L305.17 603.463L296.83 611.804ZM352.431 770.268L296.83 825.87L305.17 834.21L360.772 778.608L352.431 770.268ZM352.431 667.405C380.836 695.81 380.836 741.863 352.431 770.268L360.772 778.608C393.783 745.597 393.783 692.076 360.772 659.065L352.431 667.405ZM249.569 770.268C221.164 741.863 221.164 695.81 249.569 667.405L241.228 659.065C208.217 692.076 208.217 745.597 241.228 778.608L249.569 770.268Z" fill="white" fill-opacity="0.5"/>
<path d="M301 774.438L296.83 778.608C299.133 780.911 302.867 780.911 305.17 778.608L301 774.438ZM301 607.634L305.17 603.463C302.867 601.16 299.133 601.16 296.83 603.463L301 607.634ZM305.17 770.268L277.369 742.467L269.029 750.808L296.83 778.608L305.17 770.268ZM277.369 639.604L305.17 611.804L296.83 603.463L269.029 631.264L277.369 639.604ZM296.83 611.804L324.631 639.604L332.971 631.264L305.17 603.463L296.83 611.804ZM324.631 742.467L296.83 770.268L305.17 778.608L332.971 750.808L324.631 742.467ZM324.631 639.604C353.035 668.009 353.035 714.063 324.631 742.467L332.971 750.808C365.982 717.797 365.982 664.275 332.971 631.264L324.631 639.604ZM277.369 742.467C248.965 714.063 248.965 668.009 277.369 639.604L269.029 631.264C236.018 664.275 236.018 717.797 269.029 750.808L277.369 742.467Z" fill="white" fill-opacity="0.5"/>
<path d="M95.5234 522.522L93.2666 517.074C90.2575 518.32 88.8285 521.77 90.0749 524.779L95.5234 522.522ZM301 607.633L303.257 613.082C306.266 611.835 307.695 608.386 306.449 605.377L301 607.633ZM97.7803 527.971L170.427 497.879L165.914 486.982L93.2666 517.074L97.7803 527.971ZM265.46 537.243L295.551 609.89L306.449 605.377L276.357 532.73L265.46 537.243ZM298.743 602.185L226.096 632.276L230.61 643.173L303.257 613.082L298.743 602.185ZM131.063 592.912L100.972 520.265L90.0749 524.779L120.166 597.426L131.063 592.912ZM226.096 632.276C188.984 647.649 146.436 630.025 131.063 592.912L120.166 597.426C138.032 640.557 187.479 661.039 230.61 643.173L226.096 632.276ZM170.427 497.879C207.54 482.507 250.088 500.131 265.46 537.243L276.357 532.73C258.492 489.599 209.044 469.117 165.914 486.982L170.427 497.879Z" fill="white" fill-opacity="0.5"/>
<path d="M146.892 543.8L144.636 538.351C141.626 539.598 140.198 543.048 141.444 546.057L146.892 543.8ZM301 607.633L303.257 613.082C306.266 611.835 307.695 608.386 306.448 605.377L301 607.633ZM149.149 549.249L185.473 534.203L180.959 523.306L144.636 538.351L149.149 549.249ZM280.506 573.567L295.551 609.89L306.448 605.377L291.403 569.053L280.506 573.567ZM298.743 602.185L262.42 617.231L266.933 628.128L303.257 613.082L298.743 602.185ZM167.387 577.867L152.341 541.543L141.444 546.057L156.49 582.38L167.387 577.867ZM262.42 617.231C225.307 632.603 182.759 614.979 167.387 577.867L156.49 582.38C174.355 625.511 223.802 645.993 266.933 628.128L262.42 617.231ZM185.473 534.203C222.585 518.83 265.133 536.454 280.506 573.567L291.403 569.053C273.537 525.922 224.09 505.44 180.959 523.306L185.473 534.203Z" fill="white" fill-opacity="0.5"/>
<path d="M215.889 813.11L218.146 818.559C215.137 819.805 211.687 818.376 210.441 815.367L215.889 813.11ZM301 607.634L298.743 602.185C301.753 600.939 305.202 602.368 306.449 605.377L301 607.634ZM213.632 807.662L286.279 777.57L290.793 788.467L218.146 818.559L213.632 807.662ZM325.643 682.537L295.552 609.89L306.449 605.377L336.54 678.024L325.643 682.537ZM303.257 613.082L230.61 643.173L226.097 632.276L298.743 602.185L303.257 613.082ZM191.246 738.206L221.338 810.853L210.441 815.367L180.349 742.72L191.246 738.206ZM230.61 643.173C193.498 658.546 175.874 701.094 191.246 738.206L180.349 742.72C162.484 699.589 182.966 650.142 226.097 632.276L230.61 643.173ZM286.279 777.57C323.392 762.198 341.016 719.65 325.643 682.537L336.54 678.024C354.406 721.155 333.924 770.602 290.793 788.467L286.279 777.57Z" fill="white" fill-opacity="0.5"/>
<path d="M237.167 761.741L239.424 767.19C236.415 768.436 232.965 767.007 231.719 763.998L237.167 761.741ZM301 607.634L298.744 602.185C301.753 600.939 305.203 602.368 306.449 605.377L301 607.634ZM234.91 756.293L271.234 741.247L275.747 752.144L239.424 767.19L234.91 756.293ZM310.598 646.214L295.552 609.891L306.449 605.377L321.495 641.7L310.598 646.214ZM303.257 613.082L266.934 628.128L262.42 617.231L298.744 602.185L303.257 613.082ZM227.57 723.161L242.616 759.484L231.719 763.998L216.673 727.674L227.57 723.161ZM266.934 628.128C229.821 643.5 212.197 686.048 227.57 723.161L216.673 727.674C198.808 684.544 219.289 635.096 262.42 617.231L266.934 628.128ZM271.234 741.247C308.346 725.874 325.97 683.327 310.598 646.214L321.495 641.7C339.36 684.831 318.878 734.279 275.747 752.144L271.234 741.247Z" fill="white" fill-opacity="0.5"/>
<path d="M386.111 402.157L383.854 396.708C386.863 395.462 390.313 396.891 391.56 399.9L386.111 402.157ZM301 607.634L303.257 613.082C300.248 614.328 296.798 612.9 295.552 609.89L301 607.634ZM388.368 407.606L315.721 437.697L311.207 426.8L383.854 396.708L388.368 407.606ZM276.357 532.73L306.449 605.377L295.552 609.89L265.46 537.243L276.357 532.73ZM298.743 602.185L371.39 572.094L375.904 582.991L303.257 613.082L298.743 602.185ZM410.754 477.061L380.663 404.414L391.56 399.9L421.651 472.547L410.754 477.061ZM371.39 572.094C408.503 556.721 426.127 514.173 410.754 477.061L421.651 472.547C439.516 515.678 419.035 565.125 375.904 582.991L371.39 572.094ZM315.721 437.697C278.608 453.069 260.985 495.617 276.357 532.73L265.46 537.243C247.595 494.113 268.076 444.665 311.207 426.8L315.721 437.697Z" fill="white" fill-opacity="0.5"/>
<path d="M364.833 453.526L362.576 448.078C365.586 446.831 369.035 448.26 370.282 451.269L364.833 453.526ZM301 607.634L303.257 613.082C300.248 614.329 296.798 612.9 295.551 609.89L301 607.634ZM367.09 458.975L330.767 474.02L326.253 463.123L362.576 448.078L367.09 458.975ZM291.403 569.053L306.448 605.377L295.551 609.89L280.506 573.567L291.403 569.053ZM298.743 602.185L335.066 587.139L339.58 598.036L303.257 613.082L298.743 602.185ZM374.43 492.107L359.385 455.783L370.282 451.269L385.327 487.593L374.43 492.107ZM335.066 587.139C372.179 571.767 389.803 529.219 374.43 492.107L385.327 487.593C403.193 530.724 382.711 580.171 339.58 598.036L335.066 587.139ZM330.767 474.02C293.654 489.393 276.03 531.941 291.403 569.053L280.506 573.567C262.64 530.436 283.122 480.989 326.253 463.123L330.767 474.02Z" fill="white" fill-opacity="0.5"/>
<path d="M506.477 692.745L508.733 698.194C511.743 696.947 513.172 693.497 511.925 690.488L506.477 692.745ZM301 607.634L298.743 602.185C295.734 603.432 294.305 606.882 295.551 609.891L301 607.634ZM504.22 687.296L431.573 717.388L436.086 728.285L508.733 698.194L504.22 687.296ZM336.54 678.024L306.449 605.377L295.551 609.891L325.643 682.538L336.54 678.024ZM303.257 613.082L375.904 582.991L371.39 572.094L298.743 602.185L303.257 613.082ZM470.937 622.355L501.028 695.002L511.925 690.488L481.834 617.841L470.937 622.355ZM375.904 582.991C413.016 567.618 455.564 585.242 470.937 622.355L481.834 617.841C463.968 574.71 414.521 554.229 371.39 572.094L375.904 582.991ZM431.573 717.388C394.46 732.76 351.912 715.137 336.54 678.024L325.643 682.538C343.508 725.669 392.956 746.15 436.086 728.285L431.573 717.388Z" fill="white" fill-opacity="0.5"/>
<path d="M455.108 671.467L457.364 676.916C460.374 675.669 461.802 672.219 460.556 669.21L455.108 671.467ZM301 607.634L298.743 602.185C295.734 603.432 294.305 606.881 295.552 609.891L301 607.634ZM452.851 666.019L416.527 681.064L421.041 691.961L457.364 676.916L452.851 666.019ZM321.494 641.7L306.449 605.377L295.552 609.891L310.597 646.214L321.494 641.7ZM303.257 613.082L339.58 598.037L335.067 587.139L298.743 602.185L303.257 613.082ZM434.613 637.4L449.659 673.724L460.556 669.21L445.51 632.887L434.613 637.4ZM339.58 598.037C376.693 582.664 419.241 600.288 434.613 637.4L445.51 632.887C427.645 589.756 378.198 569.274 335.067 587.139L339.58 598.037ZM416.527 681.064C379.415 696.437 336.867 678.813 321.494 641.7L310.597 646.214C328.463 689.345 377.91 709.827 421.041 691.961L416.527 681.064Z" fill="white" fill-opacity="0.5"/>
<path d="M215.888 402.157L218.145 396.708C215.136 395.462 211.686 396.891 210.44 399.9L215.888 402.157ZM301 607.633L298.743 613.082C301.752 614.328 305.202 612.899 306.448 609.89L301 607.633ZM213.632 407.605L286.279 437.697L290.792 426.8L218.145 396.708L213.632 407.605ZM325.642 532.73L295.551 605.377L306.448 609.89L336.539 537.243L325.642 532.73ZM303.256 602.185L230.61 572.093L226.096 582.991L298.743 613.082L303.256 602.185ZM191.246 477.061L221.337 404.414L210.44 399.9L180.349 472.547L191.246 477.061ZM230.61 572.093C193.497 556.721 175.873 514.173 191.246 477.061L180.349 472.547C162.483 515.678 182.965 565.125 226.096 582.991L230.61 572.093ZM286.279 437.697C323.391 453.069 341.015 495.617 325.642 532.73L336.539 537.243C354.405 494.112 333.923 444.665 290.792 426.8L286.279 437.697Z" fill="white" fill-opacity="0.5"/>
<path d="M237.166 453.526L239.423 448.077C236.414 446.831 232.964 448.26 231.718 451.269L237.166 453.526ZM301 607.633L298.743 613.082C301.752 614.328 305.202 612.899 306.448 609.89L301 607.633ZM234.91 458.975L271.233 474.02L275.747 463.123L239.423 448.077L234.91 458.975ZM310.597 569.053L295.551 605.377L306.448 609.89L321.494 573.567L310.597 569.053ZM303.257 602.185L266.933 587.139L262.419 598.036L298.743 613.082L303.257 602.185ZM227.569 492.106L242.615 455.783L231.718 451.269L216.672 487.593L227.569 492.106ZM266.933 587.139C229.82 571.767 212.197 529.219 227.569 492.106L216.672 487.593C198.807 530.724 219.289 580.171 262.419 598.036L266.933 587.139ZM271.233 474.02C308.346 489.393 325.969 531.94 310.597 569.053L321.494 573.567C339.359 530.436 318.878 480.989 275.747 463.123L271.233 474.02Z" fill="white" fill-opacity="0.5"/>
<path d="M95.5234 692.745L93.2666 698.193C90.2575 696.947 88.8285 693.497 90.0749 690.488L95.5234 692.745ZM301 607.634L303.257 602.185C306.266 603.432 307.695 606.881 306.449 609.891L301 607.634ZM97.7803 687.296L170.427 717.388L165.914 728.285L93.2666 698.193L97.7803 687.296ZM265.46 678.024L295.551 605.377L306.449 609.891L276.357 682.537L265.46 678.024ZM298.743 613.082L226.096 582.991L230.61 572.094L303.257 602.185L298.743 613.082ZM131.063 622.355L100.972 695.002L90.0749 690.488L120.166 617.841L131.063 622.355ZM226.096 582.991C188.984 567.618 146.436 585.242 131.063 622.355L120.166 617.841C138.032 574.71 187.479 554.228 230.61 572.094L226.096 582.991ZM170.427 717.388C207.54 732.76 250.088 715.136 265.46 678.024L276.357 682.537C258.492 725.668 209.044 746.15 165.914 728.285L170.427 717.388Z" fill="white" fill-opacity="0.5"/>
<path d="M146.892 671.467L144.636 676.915C141.626 675.669 140.198 672.219 141.444 669.21L146.892 671.467ZM301 607.634L303.257 602.185C306.266 603.431 307.695 606.881 306.448 609.89L301 607.634ZM149.149 666.018L185.473 681.064L180.959 691.961L144.636 676.915L149.149 666.018ZM280.506 641.7L295.551 605.377L306.448 609.89L291.403 646.214L280.506 641.7ZM298.743 613.082L262.42 598.036L266.933 587.139L303.257 602.185L298.743 613.082ZM167.387 637.4L152.341 673.724L141.444 669.21L156.49 632.887L167.387 637.4ZM262.42 598.036C225.307 582.664 182.759 600.288 167.387 637.4L156.49 632.887C174.355 589.756 223.802 569.274 266.933 587.139L262.42 598.036ZM185.473 681.064C222.585 696.437 265.133 678.813 280.506 641.7L291.403 646.214C273.537 689.345 224.09 709.827 180.959 691.961L185.473 681.064Z" fill="white" fill-opacity="0.5"/>
<path d="M506.477 522.522L508.733 517.074C511.743 518.32 513.172 521.77 511.925 524.779L506.477 522.522ZM301 607.633L298.743 613.082C295.734 611.835 294.305 608.386 295.551 605.377L301 607.633ZM504.22 527.971L431.573 497.879L436.086 486.982L508.733 517.074L504.22 527.971ZM336.54 537.243L306.449 609.89L295.551 605.377L325.643 532.73L336.54 537.243ZM303.257 602.185L375.904 632.276L371.39 643.173L298.743 613.082L303.257 602.185ZM470.937 592.912L501.028 520.265L511.925 524.779L481.834 597.426L470.937 592.912ZM375.904 632.276C413.016 647.649 455.564 630.025 470.937 592.912L481.834 597.426C463.968 640.557 414.521 661.039 371.39 643.173L375.904 632.276ZM431.573 497.879C394.46 482.507 351.912 500.131 336.54 537.243L325.643 532.73C343.508 489.599 392.956 469.117 436.086 486.982L431.573 497.879Z" fill="white" fill-opacity="0.5"/>
<path d="M455.108 543.8L457.364 538.351C460.374 539.598 461.802 543.048 460.556 546.057L455.108 543.8ZM301 607.633L298.743 613.082C295.734 611.835 294.305 608.386 295.552 605.377L301 607.633ZM452.851 549.249L416.527 534.203L421.041 523.306L457.364 538.351L452.851 549.249ZM321.494 573.567L306.449 609.89L295.552 605.377L310.597 569.053L321.494 573.567ZM303.257 602.185L339.58 617.231L335.067 628.128L298.743 613.082L303.257 602.185ZM434.613 577.867L449.659 541.543L460.556 546.057L445.51 582.38L434.613 577.867ZM339.58 617.231C376.693 632.603 419.241 614.979 434.613 577.867L445.51 582.38C427.645 625.511 378.198 645.993 335.067 628.128L339.58 617.231ZM416.527 534.203C379.415 518.83 336.867 536.454 321.494 573.567L310.597 569.053C328.463 525.922 377.91 505.44 421.041 523.306L416.527 534.203Z" fill="white" fill-opacity="0.5"/>
<path d="M386.111 813.11L383.854 818.559C386.863 819.805 390.313 818.376 391.56 815.367L386.111 813.11ZM301 607.634L303.257 602.185C300.248 600.939 296.798 602.368 295.551 605.377L301 607.634ZM388.368 807.662L315.721 777.57L311.207 788.467L383.854 818.559L388.368 807.662ZM276.357 682.537L306.448 609.89L295.551 605.377L265.46 678.024L276.357 682.537ZM298.743 613.082L371.39 643.173L375.904 632.276L303.257 602.185L298.743 613.082ZM410.754 738.206L380.663 810.853L391.56 815.367L421.651 742.72L410.754 738.206ZM371.39 643.173C408.503 658.546 426.126 701.094 410.754 738.206L421.651 742.72C439.516 699.589 419.035 650.142 375.904 632.276L371.39 643.173ZM315.721 777.57C278.608 762.198 260.985 719.65 276.357 682.537L265.46 678.024C247.595 721.155 268.076 770.602 311.207 788.467L315.721 777.57Z" fill="white" fill-opacity="0.5"/>
<path d="M364.833 761.741L362.576 767.19C365.585 768.436 369.035 767.007 370.282 763.998L364.833 761.741ZM301 607.634L303.257 602.185C300.247 600.939 296.798 602.368 295.551 605.377L301 607.634ZM367.09 756.293L330.767 741.247L326.253 752.144L362.576 767.19L367.09 756.293ZM291.403 646.214L306.448 609.891L295.551 605.377L280.506 641.7L291.403 646.214ZM298.743 613.082L335.066 628.128L339.58 617.231L303.257 602.185L298.743 613.082ZM374.43 723.161L359.385 759.484L370.282 763.998L385.327 727.674L374.43 723.161ZM335.066 628.128C372.179 643.5 389.803 686.048 374.43 723.161L385.327 727.674C403.193 684.544 382.711 635.096 339.58 617.231L335.066 628.128ZM330.767 741.247C293.654 725.874 276.03 683.327 291.403 646.214L280.506 641.7C262.64 684.831 283.122 734.279 326.253 752.144L330.767 741.247Z" fill="white" fill-opacity="0.5"/>
</g>
</svg>
