<svg width="320" height="88" viewBox="0 0 320 88" fill="none" xmlns="http://www.w3.org/2000/svg">
<path d="M4.84155 64.6359V68.0315C5.60351 67.9788 6.7333 67.9525 7.57408 67.9525H17.6371C18.583 67.9525 19.8179 67.9788 20.5273 68.0315V64.6359C19.7916 64.7412 18.5042 64.7675 17.6897 64.7675H7.57408C6.68075 64.7675 5.57723 64.7412 4.84155 64.6359ZM22.7344 72.2693L20.3959 70.8216C20.0281 70.9795 19.3187 71.0848 18.4779 71.0848H5.47214C4.65763 71.0848 3.52784 71.0058 2.42432 70.9269V74.3487C3.52784 74.2434 4.84155 74.2171 5.47214 74.2171H18.1626C17.6897 75.6911 16.8752 77.3231 15.4564 78.7708C13.4595 80.8239 10.3066 82.5611 6.36546 83.3771L8.96662 86.3515C12.3297 85.4039 15.6928 83.614 18.3465 80.6659C20.3171 78.4812 21.4469 75.928 22.2351 73.3748C22.3402 73.0853 22.5504 72.6115 22.7344 72.2693Z" fill="#DC00FF"/>
<path d="M38.5252 69.1896L35.3986 70.2162C36.0554 71.5849 37.2115 74.7699 37.5268 76.0596L40.6797 74.9541C40.3119 73.7433 39.0244 70.3215 38.5252 69.1896ZM48.2204 71.1111L44.542 69.9266C44.2267 73.2169 42.9656 76.7177 41.1789 78.955C38.9981 81.6925 35.346 83.693 32.4558 84.4563L35.2146 87.2727C38.2887 86.1146 41.573 83.9035 44.0165 80.7449C45.8032 78.4286 46.9067 75.6911 47.5898 73.0326C47.7475 72.5062 47.9051 71.9534 48.2204 71.1111ZM32.4296 70.5847L29.2767 71.7165C29.9072 72.8747 31.221 76.3755 31.6676 77.7969L34.8731 76.5861C34.3476 75.112 33.0864 71.9271 32.4296 70.5847Z" fill="#DC00FF"/>
<path d="M66.5862 64.2938L62.7501 63.0303C62.5136 63.9252 61.9619 65.1361 61.5678 65.7941C60.2541 68.0578 57.9682 71.4533 53.3702 74.2697L56.3129 76.4544C58.8878 74.6909 61.1737 72.3746 62.934 70.0846H70.3171C69.8967 72.0587 68.3728 75.2173 66.5862 77.2704C64.3003 79.8763 61.3839 82.1663 55.9976 83.7719L59.098 86.562C64.0376 84.6142 67.2167 82.1926 69.7128 79.1393C72.0775 76.1912 73.5751 72.6904 74.2845 70.3478C74.4947 69.6897 74.8626 68.9527 75.1516 68.4526L72.4716 66.7943C71.8673 66.9786 71.0002 67.1102 70.1857 67.1102H64.9046C64.9309 67.0575 64.9572 67.0312 64.9834 66.9786C65.2987 66.3995 65.9819 65.215 66.5862 64.2938Z" fill="#DC00FF"/>
<path fill-rule="evenodd" clip-rule="evenodd" d="M157.544 4.84848L162.424 4.84848V2.42424L202.182 2.42424L199.905 12.1937L184.259 12.1937L180.909 26.6667H176.06L170.449 50.9042H157.815L163.426 26.6667L168.275 26.6667L171.625 12.1937L155.832 12.1937L157.544 4.84848ZM40.5748 12.1212L46.0605 12.1212V16.9697L39.4606 16.9697L37.2323 26.6667H32.3838L31.2692 31.517C30.4367 35.1897 29.4573 37.8096 28.331 39.3766C27.2537 40.9437 25.5887 41.7272 23.3361 41.7272C20.6427 41.7272 18.8309 40.7478 17.9004 38.789C16.97 36.7812 17.2638 33.7451 18.7819 29.6806L6.22117 30.1948C4.80105 33.9655 4.48275 37.4913 5.26626 40.7723C6.09875 44.0043 7.9596 46.6241 10.8488 48.6319C13.787 50.5907 17.6556 51.5701 22.4546 51.5701C26.8129 51.5701 30.3877 50.8355 33.179 49.3664C35.9703 47.8484 38.1494 45.7427 39.7164 43.0493C41.3324 40.356 42.5567 37.2464 43.3892 33.7206L45.0119 26.6667L49.8604 26.6667L55.4362 2.42897L42.802 2.42897L40.5748 12.1212ZM258.53 31.5152L259.654 26.6667H264.502L270.122 2.42424L257.488 2.42424L251.868 26.6667L247.02 26.6667L241.401 50.9042H254.035L257.406 36.3636H254.545V31.5152H258.53ZM233.791 46.0606C232.394 47.4245 230.658 48.5004 228.581 49.2882C225.79 50.3656 222.509 50.9042 218.738 50.9042L191.854 50.9042L197.472 26.6667H202.321L207.941 2.42424L230.491 2.42424C234.996 2.42424 238.522 3.42812 241.069 5.43588C243.664 7.44363 244.962 10.2104 244.962 13.7362C244.962 17.4579 243.835 20.4451 241.583 22.6977C239.616 24.664 237.26 25.987 234.514 26.6667H229.666C229.334 26.7487 228.997 26.8213 228.654 26.8846V26.9581C231.299 27.2029 233.453 28.1823 235.118 29.8962C236.783 31.6102 237.616 33.7404 237.616 36.2868C237.616 38.1007 237.369 39.7425 236.875 41.2121H227.879V46.0606H233.791ZM138.951 26.6667H143.799C142.025 25.2612 139.74 24.1112 136.944 23.2166L129.672 20.866C128.105 20.3763 126.832 19.7397 125.853 18.9562C124.922 18.1237 124.457 17.2178 124.457 16.2384C124.457 14.9652 124.971 13.9123 126 13.0798C127.077 12.1984 128.742 11.7576 130.995 11.7576C133.639 11.7576 136.185 12.3698 138.634 13.594C141.131 14.7693 143.139 16.6546 144.657 19.25L152.37 12.1984C150.117 8.96637 147.252 6.46892 143.776 4.70601C140.299 2.89413 136.038 1.98819 130.995 1.98819C127.175 1.98819 123.772 2.60031 120.784 3.82455C117.846 5.0488 115.52 6.81171 113.806 9.11328C112.141 11.4149 111.309 14.2061 111.309 17.4871C111.309 21.0129 112.435 23.8776 114.688 26.0813C114.901 26.281 115.119 26.4762 115.34 26.6667H110.492C112.663 28.531 115.236 29.9518 118.213 30.9293L125.485 33.2798C127.052 33.7695 128.227 34.3327 129.011 34.9693C129.794 35.6059 130.186 36.4384 130.186 37.4667C130.186 38.74 129.647 39.8663 128.57 40.8456C127.493 41.7761 125.828 42.2413 123.575 42.2413C121.469 42.2413 119.364 41.8985 117.258 41.2129C115.152 40.4784 113.194 39.401 111.382 37.9809C109.619 36.5118 108.15 34.7489 106.974 32.6922L99.5555 39.9642C102.102 43.9797 105.456 46.9913 109.619 48.9991C113.83 51.0069 118.507 52.0107 123.649 52.0107C127.321 52.0107 130.651 51.3741 133.638 50.1009C136.626 48.8277 138.976 46.9913 140.69 44.5918C142.453 42.1923 143.334 39.3276 143.334 35.9977C143.334 32.7656 142.38 30.1213 140.47 28.0646C140.014 27.5735 139.507 27.1075 138.951 26.6667ZM101.911 26.6667L107.527 2.42897L94.966 2.42897L89.3405 26.6667H84.492L83.2128 32.1781C82.4782 35.3121 81.3519 37.6872 79.8339 39.3032C78.3648 40.9192 76.2836 41.7272 73.5902 41.7272C70.6031 41.7272 68.3505 40.8212 66.8324 39.0093C65.3143 37.1975 64.9471 34.5776 65.7306 31.1497L66.751 26.6667H71.5995L77.1165 2.42897L64.4824 2.42897L58.8027 26.6667H53.9542L53.3168 29.3868C52.2394 34.0389 52.3374 38.0299 53.6106 41.3599C54.8838 44.6409 57.1364 47.1873 60.3684 48.9992C63.6004 50.7621 67.6404 51.6435 72.4884 51.6435C79.0504 51.6435 84.1922 50.052 87.9139 46.869C91.6356 43.637 94.231 38.8624 95.7001 32.5453L97.0622 26.6667H101.911ZM298.722 26.6667L302.073 12.1937L317.719 12.1937L319.996 2.42424L275.923 2.42424L273.646 12.1937L289.438 12.1937L286.088 26.6667H281.24L275.629 50.9042H288.263L293.874 26.6667H298.722ZM215.506 22.3304L224.468 22.3304C226.916 22.3304 228.802 21.7673 230.124 20.641C231.446 19.4657 232.107 17.9476 232.107 16.0868C232.107 14.5198 231.568 13.3935 230.491 12.7079C229.463 12.0223 228.092 11.6795 226.378 11.6795H218.004L215.506 22.3304ZM206.104 42.0162L216.608 42.0162C219.252 42.0162 221.284 41.5021 222.704 40.4737C224.125 39.4453 224.835 37.9273 224.835 35.9195C224.835 32.8834 222.851 31.3653 218.885 31.3653H208.601L206.104 42.0162Z" fill="#3CF5FF"/>
<path fill-rule="evenodd" clip-rule="evenodd" d="M152.696 4.84848L157.576 4.84848V2.42424L197.334 2.42424L195.057 12.1937L179.411 12.1937L176.06 26.6667H171.212L165.601 50.9042H152.967L158.578 26.6667L163.426 26.6667L166.777 12.1937L150.984 12.1937L152.696 4.84848ZM35.7264 12.1212L41.2121 12.1212V16.9697L34.6122 16.9697L32.3839 26.6667H27.5354L26.4208 31.517C25.5883 35.1897 24.6089 37.8096 23.4826 39.3766C22.4053 40.9437 20.7403 41.7272 18.4877 41.7272C15.7944 41.7272 13.9825 40.7478 13.0521 38.789C12.1216 36.7812 12.4155 33.7451 13.9335 29.6806L1.37278 30.1948C-0.0473372 33.9655 -0.36564 37.4913 0.417875 40.7723C1.25036 44.0043 3.11121 46.6241 6.00042 48.6319C8.9386 50.5907 12.8072 51.5701 17.6062 51.5701C21.9645 51.5701 25.5393 50.8355 28.3306 49.3664C31.1219 47.8484 33.301 45.7427 34.8681 43.0493C36.4841 40.356 37.7083 37.2464 38.5408 33.7206L40.1635 26.6667L45.012 26.6667L50.5878 2.42897L37.9536 2.42897L35.7264 12.1212ZM253.682 31.5152L254.806 26.6667H259.654L265.274 2.42424L252.64 2.42424L247.02 26.6667L242.171 26.6667L236.553 50.9042H249.187L252.558 36.3636H249.697V31.5152H253.682ZM228.942 46.0606C227.546 47.4245 225.809 48.5004 223.732 49.2882C220.941 50.3656 217.66 50.9042 213.89 50.9042L187.005 50.9042L192.624 26.6667H197.472L203.092 2.42424L225.643 2.42424C230.148 2.42424 233.674 3.42812 236.22 5.43588C238.816 7.44363 240.113 10.2104 240.113 13.7362C240.113 17.4579 238.987 20.4451 236.734 22.6977C234.768 24.664 232.412 25.987 229.666 26.6667H224.817C224.486 26.7487 224.149 26.8213 223.806 26.8846V26.9581C226.45 27.2029 228.605 28.1823 230.27 29.8962C231.935 31.6102 232.767 33.7404 232.767 36.2868C232.767 38.1007 232.52 39.7425 232.026 41.2121H223.03V46.0606H228.942ZM134.103 26.6667H138.951C137.177 25.2612 134.892 24.1112 132.096 23.2166L124.824 20.866C123.257 20.3763 121.984 19.7397 121.004 18.9562C120.074 18.1237 119.609 17.2178 119.609 16.2384C119.609 14.9652 120.123 13.9123 121.151 13.0798C122.229 12.1984 123.894 11.7576 126.146 11.7576C128.791 11.7576 131.337 12.3698 133.785 13.594C136.283 14.7693 138.291 16.6546 139.809 19.25L147.521 12.1984C145.269 8.96637 142.404 6.46892 138.927 4.70601C135.45 2.89413 131.19 1.98819 126.146 1.98819C122.327 1.98819 118.923 2.60031 115.936 3.82455C112.998 5.0488 110.672 6.81171 108.958 9.11328C107.293 11.4149 106.46 14.2061 106.46 17.4871C106.46 21.0129 107.587 23.8776 109.839 26.0813C110.053 26.281 110.27 26.4762 110.492 26.6667H105.644C107.814 28.531 110.388 29.9518 113.365 30.9293L120.637 33.2798C122.204 33.7695 123.379 34.3327 124.162 34.9693C124.946 35.6059 125.338 36.4384 125.338 37.4667C125.338 38.74 124.799 39.8663 123.722 40.8456C122.644 41.7761 120.979 42.2413 118.727 42.2413C116.621 42.2413 114.515 41.8985 112.41 41.2129C110.304 40.4784 108.345 39.401 106.533 37.9809C104.77 36.5118 103.301 34.7489 102.126 32.6922L94.7071 39.9642C97.2536 43.9797 100.608 46.9913 104.77 48.9991C108.982 51.0069 113.658 52.0107 118.8 52.0107C122.473 52.0107 125.803 51.3741 128.79 50.1009C131.777 48.8277 134.128 46.9913 135.842 44.5918C137.605 42.1923 138.486 39.3276 138.486 35.9977C138.486 32.7656 137.531 30.1213 135.621 28.0646C135.165 27.5735 134.659 27.1075 134.103 26.6667ZM97.0623 26.6667L102.678 2.42897L90.1176 2.42897L84.4921 26.6667H79.6436L78.3644 32.1781C77.6299 35.3121 76.5035 37.6872 74.9855 39.3032C73.5164 40.9192 71.4352 41.7272 68.7418 41.7272C65.7547 41.7272 63.5021 40.8212 61.984 39.0093C60.466 37.1975 60.0987 34.5776 60.8822 31.1497L61.9026 26.6667H66.7511L72.2682 2.42897L59.634 2.42897L53.9543 26.6667H49.1058L48.4684 29.3868C47.391 34.0389 47.489 38.0299 48.7622 41.3599C50.0354 44.6409 52.288 47.1873 55.52 48.9992C58.752 50.7621 62.792 51.6435 67.64 51.6435C74.202 51.6435 79.3438 50.052 83.0655 46.869C86.7872 43.637 89.3826 38.8624 90.8517 32.5453L92.2138 26.6667H97.0623ZM293.874 26.6667L297.224 12.1937L312.87 12.1937L315.147 2.42424L271.074 2.42424L268.797 12.1937L284.59 12.1937L281.24 26.6667H276.391L270.78 50.9042H283.414L289.025 26.6667H293.874ZM210.658 22.3304L219.619 22.3304C222.068 22.3304 223.953 21.7673 225.275 20.641C226.598 19.4657 227.259 17.9476 227.259 16.0868C227.259 14.5198 226.72 13.3935 225.643 12.7079C224.614 12.0223 223.243 11.6795 221.529 11.6795H213.155L210.658 22.3304ZM201.255 42.0162L211.759 42.0162C214.404 42.0162 216.436 41.5021 217.856 40.4737C219.276 39.4453 219.986 37.9273 219.986 35.9195C219.986 32.8834 218.003 31.3653 214.036 31.3653H203.753L201.255 42.0162Z" fill="#DC00FF"/>
<path fill-rule="evenodd" clip-rule="evenodd" d="M155.12 4.84848L160 4.84848V2.42424L199.758 2.42424L197.481 12.1937L181.835 12.1937L178.485 26.6667H173.636L168.025 50.9042H155.391L161.002 26.6667L165.85 26.6667L169.201 12.1937L153.408 12.1937L155.12 4.84848ZM38.1507 12.1212L43.6364 12.1212V16.9697L37.0365 16.9697L34.8082 26.6667H29.9597L28.8451 31.517C28.0126 35.1897 27.0332 37.8096 25.9069 39.3766C24.8296 40.9437 23.1646 41.7272 20.912 41.7272C18.2187 41.7272 16.4068 40.7478 15.4764 38.789C14.5459 36.7812 14.8398 33.7451 16.3578 29.6806L3.7971 30.1948C2.37698 33.9655 2.05868 37.4913 2.84219 40.7723C3.67468 44.0043 5.53552 46.6241 8.42474 48.6319C11.3629 50.5907 15.2315 51.5701 20.0306 51.5701C24.3889 51.5701 27.9636 50.8355 30.7549 49.3664C33.5462 47.8484 35.7253 45.7427 37.2924 43.0493C38.9084 40.356 40.1326 37.2464 40.9651 33.7206L42.5878 26.6667L47.4363 26.6667L53.0121 2.42897L40.378 2.42897L38.1507 12.1212ZM256.106 31.5152L257.23 26.6667H262.078L267.698 2.42424L255.064 2.42424L249.444 26.6667L244.596 26.6667L238.977 50.9042H251.611L254.982 36.3636H252.121V31.5152H256.106ZM231.366 46.0606C229.97 47.4245 228.234 48.5004 226.157 49.2882C223.365 50.3656 220.085 50.9042 216.314 50.9042L189.429 50.9042L195.048 26.6667H199.897L205.517 2.42424L228.067 2.42424C232.572 2.42424 236.098 3.42812 238.645 5.43588C241.24 7.44363 242.538 10.2104 242.538 13.7362C242.538 17.4579 241.411 20.4451 239.159 22.6977C237.192 24.664 234.836 25.987 232.09 26.6667H227.241C226.91 26.7487 226.573 26.8213 226.23 26.8846V26.9581C228.875 27.2029 231.029 28.1823 232.694 29.8962C234.359 31.6102 235.192 33.7404 235.192 36.2868C235.192 38.1007 234.945 39.7425 234.451 41.2121H225.455V46.0606H231.366ZM136.527 26.6667H141.375C139.601 25.2612 137.316 24.1112 134.52 23.2166L127.248 20.866C125.681 20.3763 124.408 19.7397 123.429 18.9562C122.498 18.1237 122.033 17.2178 122.033 16.2384C122.033 14.9652 122.547 13.9123 123.576 13.0798C124.653 12.1984 126.318 11.7576 128.57 11.7576C131.215 11.7576 133.761 12.3698 136.21 13.594C138.707 14.7693 140.715 16.6546 142.233 19.25L149.946 12.1984C147.693 8.96637 144.828 6.46892 141.352 4.70601C137.875 2.89413 133.614 1.98819 128.57 1.98819C124.751 1.98819 121.347 2.60031 118.36 3.82455C115.422 5.0488 113.096 6.81171 111.382 9.11328C109.717 11.4149 108.885 14.2061 108.885 17.4871C108.885 21.0129 110.011 23.8776 112.264 26.0813C112.477 26.281 112.695 26.4762 112.916 26.6667H108.068C110.238 28.531 112.812 29.9518 115.789 30.9293L123.061 33.2798C124.628 33.7695 125.803 34.3327 126.587 34.9693C127.37 35.6059 127.762 36.4384 127.762 37.4667C127.762 38.74 127.223 39.8663 126.146 40.8456C125.069 41.7761 123.404 42.2413 121.151 42.2413C119.045 42.2413 116.94 41.8985 114.834 41.2129C112.728 40.4784 110.77 39.401 108.958 37.9809C107.195 36.5118 105.726 34.7489 104.55 32.6922L97.1315 39.9642C99.6779 43.9797 103.032 46.9913 107.195 48.9991C111.406 51.0069 116.083 52.0107 121.225 52.0107C124.897 52.0107 128.227 51.3741 131.214 50.1009C134.202 48.8277 136.552 46.9913 138.266 44.5918C140.029 42.1923 140.91 39.3276 140.91 35.9977C140.91 32.7656 139.955 30.1213 138.046 28.0646C137.59 27.5735 137.083 27.1075 136.527 26.6667ZM99.4866 26.6667L105.103 2.42897L92.5419 2.42897L86.9164 26.6667H82.0679L80.7887 32.1781C80.0542 35.3121 78.9279 37.6872 77.4098 39.3032C75.9407 40.9192 73.8595 41.7272 71.1662 41.7272C68.179 41.7272 65.9264 40.8212 64.4083 39.0093C62.8903 37.1975 62.523 34.5776 63.3065 31.1497L64.327 26.6667H69.1754L74.6925 2.42897L62.0583 2.42897L56.3786 26.6667H51.5301L50.8927 29.3868C49.8154 34.0389 49.9133 38.0299 51.1865 41.3599C52.4597 44.6409 54.7123 47.1873 57.9443 48.9992C61.1763 50.7621 65.2163 51.6435 70.0643 51.6435C76.6263 51.6435 81.7681 50.052 85.4898 46.869C89.2115 43.637 91.8069 38.8624 93.276 32.5453L94.6381 26.6667H99.4866ZM296.298 26.6667L299.649 12.1937L315.294 12.1937L317.572 2.42424L273.499 2.42424L271.222 12.1937L287.014 12.1937L283.664 26.6667H278.815L273.204 50.9042H285.839L291.45 26.6667H296.298ZM213.082 22.3304L222.044 22.3304C224.492 22.3304 226.378 21.7673 227.7 20.641C229.022 19.4657 229.683 17.9476 229.683 16.0868C229.683 14.5198 229.144 13.3935 228.067 12.7079C227.039 12.0223 225.668 11.6795 223.954 11.6795H215.58L213.082 22.3304ZM203.68 42.0162L214.184 42.0162C216.828 42.0162 218.86 41.5021 220.28 40.4737C221.701 39.4453 222.411 37.9273 222.411 35.9195C222.411 32.8834 220.427 31.3653 216.461 31.3653H206.177L203.68 42.0162Z" fill="#5A23B4"/>
</svg>
