<svg width="220" height="60" viewBox="0 0 220 60" fill="none" xmlns="http://www.w3.org/2000/svg">
<path d="M3.3286 44.4371V46.7715C3.85244 46.7354 4.62918 46.7173 5.20721 46.7173H12.1256C12.7759 46.7173 13.6248 46.7354 14.1126 46.7715V44.4371C13.6068 44.5095 12.7217 44.5276 12.1617 44.5276H5.20721C4.59305 44.5276 3.83438 44.5095 3.3286 44.4371ZM15.6299 49.685L14.0222 48.6897C13.7693 48.7983 13.2816 48.8707 12.7036 48.8707H3.76212C3.20215 48.8707 2.42542 48.8164 1.66675 48.7621V51.1146C2.42542 51.0423 3.3286 51.0242 3.76212 51.0242H12.4868C12.1617 52.0376 11.6017 53.1595 10.6263 54.1548C9.25345 55.5663 7.08582 56.7607 4.37629 57.3217L6.16458 59.3666C8.47672 58.7151 10.7889 57.4845 12.6133 55.4578C13.968 53.9558 14.7448 52.2004 15.2867 50.4451C15.3589 50.246 15.5035 49.9203 15.6299 49.685Z" fill="#3CF5FF"/>
<path d="M26.4861 47.5678L24.3365 48.2735C24.7881 49.2145 25.5829 51.4042 25.7997 52.2909L27.9673 51.5309C27.7144 50.6984 26.8293 48.3459 26.4861 47.5678ZM33.1516 48.8888L30.6227 48.0745C30.4059 50.3365 29.5389 52.7433 28.3105 54.2815C26.8113 56.1635 24.3004 57.5388 22.3134 58.0636L24.2101 59.9999C26.3235 59.2037 28.5815 57.6836 30.2614 55.512C31.4897 53.9196 32.2484 52.0376 32.718 50.2098C32.8264 49.8479 32.9348 49.4679 33.1516 48.8888ZM22.2954 48.5269L20.1277 49.305C20.5613 50.1013 21.4644 52.5081 21.7715 53.4853L23.9753 52.6528C23.614 51.6394 22.7469 49.4498 22.2954 48.5269Z" fill="#3CF5FF"/>
<path d="M45.778 44.2019L43.1407 43.3333C42.9782 43.9485 42.5988 44.781 42.3279 45.2334C41.4247 46.7896 39.8532 49.1241 36.692 51.0604L38.7152 52.5624C40.4854 51.3499 42.0569 49.7574 43.2672 48.1831H48.343C48.054 49.5403 47.0063 51.7118 45.778 53.1233C44.2065 54.9149 42.2014 56.4892 38.4984 57.5931L40.6299 59.5113C44.0259 58.1722 46.2115 56.5073 47.9276 54.4082C49.5533 52.3814 50.5829 49.9746 51.0706 48.364C51.2152 47.9116 51.468 47.4049 51.6667 47.0611L49.8243 45.921C49.4088 46.0477 48.8127 46.1382 48.2527 46.1382H44.622C44.64 46.102 44.6581 46.0839 44.6761 46.0477C44.8929 45.6496 45.3626 44.8352 45.778 44.2019Z" fill="#3CF5FF"/>
<path fill-rule="evenodd" clip-rule="evenodd" d="M108.312 3.33339L111.667 3.33339V1.66673L139 1.66673L137.435 8.38323L126.678 8.38323L124.375 18.3334H121.041L117.184 34.9967H108.498L112.355 18.3334H115.689L117.992 8.38323L107.135 8.38323L108.312 3.33339ZM27.8951 8.33339H31.6666V11.6667H27.1291L25.5972 18.3334H22.2638L21.4975 21.668C20.9252 24.193 20.2519 25.9942 19.4775 27.0715C18.7369 28.1488 17.5922 28.6875 16.0435 28.6875C14.1919 28.6875 12.9462 28.0142 12.3065 26.6675C11.6669 25.2872 11.8689 23.1998 12.9125 20.4055L4.27704 20.759C3.30071 23.3513 3.08187 25.7753 3.62054 28.031C4.19287 30.253 5.47221 32.0542 7.45854 33.4345C9.47854 34.7812 12.1382 35.4545 15.4375 35.4545C18.4339 35.4545 20.8915 34.9495 22.8105 33.9395C24.7295 32.8958 26.2277 31.4482 27.305 29.5965C28.416 27.7448 29.2577 25.607 29.83 23.183L30.9457 18.3334H34.279L38.1124 1.66998L29.4264 1.66998L27.8951 8.33339ZM177.739 21.6667L178.512 18.3334H181.845L185.709 1.66673L177.023 1.66673L173.159 18.3334H169.826L165.963 34.9967H174.649L176.967 25.0001H175V21.6667H177.739ZM160.731 31.6667C159.771 32.6044 158.577 33.3441 157.149 33.8857C155.23 34.6264 152.975 34.9967 150.382 34.9967L131.899 34.9967L135.762 18.3334H139.096L142.959 1.66673L158.463 1.66673C161.56 1.66673 163.984 2.35689 165.735 3.73723C167.519 5.11756 168.411 7.01973 168.411 9.44373C168.411 12.0024 167.637 14.0561 166.088 15.6047C164.736 16.9566 163.116 17.8661 161.228 18.3334H157.895C157.667 18.3898 157.435 18.4397 157.2 18.4832V18.5337C159.018 18.7021 160.499 19.3754 161.644 20.5537C162.788 21.7321 163.361 23.1966 163.361 24.9472C163.361 26.1943 163.191 27.323 162.851 28.3334H156.667V31.6667H160.731ZM95.5287 18.3334H98.8621C97.6423 17.3672 96.0714 16.5765 94.1492 15.9614L89.1497 14.3454C88.0724 14.0088 87.1971 13.5711 86.5238 13.0324C85.8841 12.4601 85.5642 11.8373 85.5642 11.1639C85.5642 10.2886 85.9178 9.56478 86.6247 8.99244C87.3654 8.38644 88.5101 8.08344 90.0588 8.08344C91.8768 8.08344 93.6274 8.50428 95.3107 9.34594C97.0277 10.1539 98.4081 11.4501 99.4518 13.2344L104.754 8.38644C103.206 6.16444 101.236 4.44744 98.8457 3.23544C96.4554 1.98978 93.5264 1.36694 90.0588 1.36694C87.4328 1.36694 85.0929 1.78778 83.0393 2.62944C81.0192 3.47111 79.4201 4.68311 78.2418 6.26544C77.0971 7.84778 76.5247 9.76678 76.5247 12.0224C76.5247 14.4464 77.2991 16.4159 78.8478 17.9309C78.9945 18.0683 79.144 18.2024 79.2965 18.3334H75.9632C77.4555 19.6151 79.2249 20.5919 81.2714 21.2639L86.2709 22.8799C87.3483 23.2166 88.1562 23.6038 88.6949 24.0414C89.2336 24.4791 89.5029 25.0514 89.5029 25.7584C89.5029 26.6338 89.1326 27.4081 88.3919 28.0814C87.6512 28.7211 86.5066 29.0409 84.9579 29.0409C83.5103 29.0409 82.0626 28.8053 80.6149 28.3339C79.1673 27.8289 77.8206 27.0883 76.5749 26.1119C75.3629 25.1019 74.3529 23.8899 73.5449 22.4759L68.4444 27.4754C70.1951 30.2361 72.5013 32.3066 75.3629 33.6869C78.2583 35.0673 81.4734 35.7574 85.0084 35.7574C87.5334 35.7574 89.8227 35.3198 91.8764 34.4444C93.9301 33.5691 95.5461 32.3066 96.7244 30.6569C97.9364 29.0073 98.5424 27.0378 98.5424 24.7484C98.5424 22.5264 97.8859 20.7084 96.5729 19.2944C96.2594 18.9568 95.9113 18.6365 95.5287 18.3334ZM70.0636 18.3334L73.9246 1.66998L65.2891 1.66998L61.4216 18.3334H58.0882L57.2088 22.1225C56.7038 24.2771 55.9294 25.91 54.8858 27.021C53.8758 28.132 52.4449 28.6875 50.5933 28.6875C48.5396 28.6875 46.9909 28.0647 45.9473 26.819C44.9036 25.5733 44.6511 23.7722 45.1898 21.4155L45.8913 18.3334L49.2247 18.3334L53.0176 1.66998L44.3316 1.66998L40.4268 18.3334H37.0935L36.6553 20.2035C35.9146 23.4018 35.9819 26.1457 36.8573 28.435C37.7326 30.6906 39.2813 32.4413 41.5033 33.687C43.7253 34.899 46.5028 35.505 49.8358 35.505C54.3471 35.505 57.8821 34.4108 60.4408 32.2225C62.9994 30.0005 64.7838 26.718 65.7938 22.375L66.7302 18.3334H70.0636ZM205.371 18.3334L207.675 8.38323L218.431 8.38323L219.997 1.66673L189.697 1.66673L188.131 8.38323L198.989 8.38323L196.685 18.3334H193.352L189.495 34.9967H198.181L202.038 18.3334H205.371ZM148.161 15.3522H154.322C156.005 15.3522 157.301 14.9651 158.21 14.1907C159.119 13.3827 159.574 12.3391 159.574 11.0597C159.574 9.98239 159.203 9.20806 158.463 8.73673C157.756 8.26539 156.813 8.02973 155.635 8.02973H149.878L148.161 15.3522ZM141.696 28.8862H148.918C150.736 28.8862 152.133 28.5327 153.109 27.8257C154.086 27.1187 154.574 26.0751 154.574 24.6947C154.574 22.6074 153.21 21.5637 150.483 21.5637H143.413L141.696 28.8862Z" fill="#3CF5FF"/>
<path fill-rule="evenodd" clip-rule="evenodd" d="M104.978 3.33339L108.333 3.33339V1.66673L135.667 1.66673L134.101 8.38323L123.345 8.38323L121.041 18.3334H117.708L113.851 34.9967H105.165L109.022 18.3334H112.355L114.659 8.38323L103.801 8.38323L104.978 3.33339ZM24.5619 8.33339H28.3333V11.6667H23.7959L22.2639 18.3334H18.9306L18.1643 21.668C17.592 24.193 16.9186 25.9942 16.1443 27.0715C15.4036 28.1488 14.259 28.6875 12.7103 28.6875C10.8586 28.6875 9.61296 28.0142 8.97329 26.6675C8.33362 25.2872 8.53562 23.1998 9.57929 20.4055L0.943789 20.759C-0.0325443 23.3513 -0.251378 25.7753 0.287289 28.031C0.859622 30.253 2.13896 32.0542 4.12529 33.4345C6.14529 34.7812 8.80496 35.4545 12.1043 35.4545C15.1006 35.4545 17.5583 34.9495 19.4773 33.9395C21.3963 32.8958 22.8945 31.4482 23.9718 29.5965C25.0828 27.7448 25.9245 25.607 26.4968 23.183L27.6124 18.3334H30.9458L34.7791 1.66998L26.0931 1.66998L24.5619 8.33339ZM174.406 21.6667L175.179 18.3334H178.512L182.376 1.66673L173.69 1.66673L169.826 18.3334H166.493L162.63 34.9967H171.316L173.633 25.0001H171.667V21.6667H174.406ZM157.398 31.6667C156.438 32.6044 155.244 33.3441 153.816 33.8857C151.897 34.6264 149.641 34.9967 147.049 34.9967L128.566 34.9967L132.429 18.3334H135.762L139.626 1.66673L155.129 1.66673C158.227 1.66673 160.651 2.35689 162.401 3.73723C164.186 5.11756 165.078 7.01973 165.078 9.44373C165.078 12.0024 164.304 14.0561 162.755 15.6047C161.403 16.9566 159.783 17.8661 157.895 18.3334H154.562C154.334 18.3898 154.102 18.4397 153.867 18.4832V18.5337C155.685 18.7021 157.166 19.3754 158.311 20.5537C159.455 21.7321 160.028 23.1966 160.028 24.9472C160.028 26.1943 159.858 27.323 159.518 28.3334H153.333V31.6667H157.398ZM92.1955 18.3334H95.5288C94.309 17.3672 92.7381 16.5765 90.816 15.9614L85.8165 14.3454C84.7392 14.0088 83.8638 13.5711 83.1905 13.0324C82.5508 12.4601 82.231 11.8373 82.231 11.1639C82.231 10.2886 82.5845 9.56478 83.2915 8.99244C84.0322 8.38644 85.1768 8.08344 86.7255 8.08344C88.5435 8.08344 90.2942 8.50428 91.9775 9.34594C93.6945 10.1539 95.0748 11.4501 96.1185 13.2344L101.421 8.38644C99.8723 6.16444 97.9028 4.44744 95.5125 3.23544C93.1222 1.98978 90.1932 1.36694 86.7255 1.36694C84.0995 1.36694 81.7597 1.78778 79.706 2.62944C77.686 3.47111 76.0868 4.68311 74.9085 6.26544C73.7638 7.84778 73.1915 9.76678 73.1915 12.0224C73.1915 14.4464 73.9658 16.4159 75.5145 17.9309C75.6612 18.0683 75.8108 18.2024 75.9633 18.3334H72.6299C74.1222 19.6151 75.8916 20.5919 77.9382 21.2639L82.9377 22.8799C84.015 23.2166 84.823 23.6038 85.3617 24.0414C85.9003 24.4791 86.1697 25.0514 86.1697 25.7584C86.1697 26.6338 85.7993 27.4081 85.0587 28.0814C84.318 28.7211 83.1733 29.0409 81.6247 29.0409C80.177 29.0409 78.7293 28.8053 77.2817 28.3339C75.834 27.8289 74.4873 27.0883 73.2417 26.1119C72.0297 25.1019 71.0197 23.8899 70.2117 22.4759L65.1112 27.4754C66.8618 30.2361 69.168 32.3066 72.0297 33.6869C74.925 35.0673 78.1402 35.7574 81.6752 35.7574C84.2002 35.7574 86.4895 35.3198 88.5432 34.4444C90.5968 33.5691 92.2128 32.3066 93.3912 30.6569C94.6032 29.0073 95.2092 27.0378 95.2092 24.7484C95.2092 22.5264 94.5527 20.7084 93.2397 19.2944C92.9261 18.9568 92.5781 18.6365 92.1955 18.3334ZM66.7303 18.3334L70.5914 1.66998L61.9558 1.66998L58.0883 18.3334H54.755L53.8755 22.1225C53.3705 24.2771 52.5962 25.91 51.5525 27.021C50.5425 28.132 49.1117 28.6875 47.26 28.6875C45.2063 28.6875 43.6577 28.0647 42.614 26.819C41.5703 25.5733 41.3178 23.7722 41.8565 21.4155L42.5581 18.3334L45.8914 18.3334L49.6844 1.66998L40.9984 1.66998L37.0936 18.3334H33.7602L33.322 20.2035C32.5813 23.4018 32.6487 26.1457 33.524 28.435C34.3993 30.6906 35.948 32.4413 38.17 33.687C40.392 34.899 43.1695 35.505 46.5025 35.505C51.0139 35.505 54.5489 34.4108 57.1075 32.2225C59.6662 30.0005 61.4505 26.718 62.4605 22.375L63.397 18.3334H66.7303ZM202.038 18.3334L204.342 8.38323L215.098 8.38323L216.664 1.66673L186.364 1.66673L184.798 8.38323L195.656 8.38323L193.352 18.3334H190.019L186.161 34.9967H194.847L198.705 18.3334H202.038ZM144.827 15.3522H150.988C152.672 15.3522 153.968 14.9651 154.877 14.1907C155.786 13.3827 156.24 12.3391 156.24 11.0597C156.24 9.98239 155.87 9.20806 155.129 8.73673C154.422 8.26539 153.48 8.02973 152.301 8.02973H146.544L144.827 15.3522ZM138.363 28.8862H145.585C147.403 28.8862 148.8 28.5327 149.776 27.8257C150.752 27.1187 151.241 26.0751 151.241 24.6947C151.241 22.6074 149.877 21.5637 147.15 21.5637H140.08L138.363 28.8862Z" fill="#DC00FF"/>
<path fill-rule="evenodd" clip-rule="evenodd" d="M106.645 3.33339L110 3.33339V1.66673L137.334 1.66673L135.768 8.38323L125.012 8.38323L122.708 18.3334H119.375L115.517 34.9967H106.831L110.689 18.3334H114.022L116.326 8.38323L105.468 8.38323L106.645 3.33339ZM26.2286 8.33339H30.0001V11.6667H25.4626L23.9307 18.3334H20.5973L19.831 21.668C19.2587 24.193 18.5854 25.9942 17.811 27.0715C17.0704 28.1488 15.9257 28.6875 14.377 28.6875C12.5254 28.6875 11.2797 28.0142 10.64 26.6675C10.0004 25.2872 10.2024 23.1998 11.246 20.4055L2.61054 20.759C1.6342 23.3513 1.41537 25.7753 1.95404 28.031C2.52637 30.253 3.8057 32.0542 5.79204 33.4345C7.81204 34.7812 10.4717 35.4545 13.771 35.4545C16.7674 35.4545 19.225 34.9495 21.144 33.9395C23.063 32.8958 24.5612 31.4482 25.6385 29.5965C26.7495 27.7448 27.5912 25.607 28.1635 23.183L29.2792 18.3334H32.6125L36.4459 1.66998L27.7599 1.66998L26.2286 8.33339ZM176.073 21.6667L176.846 18.3334H180.179L184.043 1.66673L175.357 1.66673L171.493 18.3334H168.16L164.297 34.9967H172.983L175.3 25.0001H173.333V21.6667H176.073ZM159.064 31.6667C158.105 32.6044 156.911 33.3441 155.483 33.8857C153.564 34.6264 151.308 34.9967 148.716 34.9967L130.233 34.9967L134.096 18.3334H137.429L141.293 1.66673L156.796 1.66673C159.893 1.66673 162.317 2.35689 164.068 3.73723C165.852 5.11756 166.745 7.01973 166.745 9.44373C166.745 12.0024 165.97 14.0561 164.422 15.6047C163.07 16.9566 161.45 17.8661 159.562 18.3334H156.229C156.001 18.3898 155.769 18.4397 155.533 18.4832V18.5337C157.351 18.7021 158.833 19.3754 159.977 20.5537C161.122 21.7321 161.694 23.1966 161.694 24.9472C161.694 26.1943 161.525 27.323 161.185 28.3334H155V31.6667H159.064ZM93.8622 18.3334H97.1956C95.9758 17.3672 94.4048 16.5765 92.4827 15.9614L87.4832 14.3454C86.4059 14.0088 85.5306 13.5711 84.8572 13.0324C84.2176 12.4601 83.8977 11.8373 83.8977 11.1639C83.8977 10.2886 84.2512 9.56478 84.9582 8.99244C85.6989 8.38644 86.8436 8.08344 88.3922 8.08344C90.2102 8.08344 91.9609 8.50428 93.6442 9.34594C95.3612 10.1539 96.7416 11.4501 97.7852 13.2344L103.088 8.38644C101.539 6.16444 99.5696 4.44744 97.1792 3.23544C94.7889 1.98978 91.8599 1.36694 88.3922 1.36694C85.7662 1.36694 83.4264 1.78778 81.3727 2.62944C79.3527 3.47111 77.7536 4.68311 76.5752 6.26544C75.4306 7.84778 74.8582 9.76678 74.8582 12.0224C74.8582 14.4464 75.6326 16.4159 77.1812 17.9309C77.3279 18.0683 77.4775 18.2024 77.63 18.3334H74.2967C75.789 19.6151 77.5584 20.5919 79.6049 21.2639L84.6044 22.8799C85.6817 23.2166 86.4897 23.6038 87.0284 24.0414C87.5671 24.4791 87.8364 25.0514 87.8364 25.7584C87.8364 26.6338 87.4661 27.4081 86.7254 28.0814C85.9847 28.7211 84.8401 29.0409 83.2914 29.0409C81.8437 29.0409 80.3961 28.8053 78.9484 28.3339C77.5007 27.8289 76.1541 27.0883 74.9084 26.1119C73.6964 25.1019 72.6864 23.8899 71.8784 22.4759L66.7779 27.4754C68.5286 30.2361 70.8347 32.3066 73.6964 33.6869C76.5917 35.0673 79.8069 35.7574 83.3419 35.7574C85.8669 35.7574 88.1562 35.3198 90.2099 34.4444C92.2636 33.5691 93.8796 32.3066 95.0579 30.6569C96.2699 29.0073 96.8759 27.0378 96.8759 24.7484C96.8759 22.5264 96.2194 20.7084 94.9064 19.2944C94.5929 18.9568 94.2448 18.6365 93.8622 18.3334ZM68.3971 18.3334L72.2581 1.66998L63.6226 1.66998L59.755 18.3334H56.4217L55.5423 22.1225C55.0373 24.2771 54.2629 25.91 53.2193 27.021C52.2093 28.132 50.7784 28.6875 48.9268 28.6875C46.8731 28.6875 45.3244 28.0647 44.2808 26.819C43.2371 25.5733 42.9846 23.7722 43.5233 21.4155L44.2248 18.3334L47.5581 18.3334L51.3511 1.66998L42.6651 1.66998L38.7603 18.3334H35.427L34.9888 20.2035C34.2481 23.4018 34.3154 26.1457 35.1908 28.435C36.0661 30.6906 37.6148 32.4413 39.8368 33.687C42.0588 34.899 44.8363 35.505 48.1693 35.505C52.6806 35.505 56.2156 34.4108 58.7743 32.2225C61.3329 30.0005 63.1173 26.718 64.1273 22.375L65.0637 18.3334H68.3971ZM203.705 18.3334L206.008 8.38323L216.765 8.38323L218.33 1.66673L188.03 1.66673L186.465 8.38323L197.322 8.38323L195.019 18.3334H191.686L187.828 34.9967H196.514L200.372 18.3334H203.705ZM146.494 15.3522H152.655C154.338 15.3522 155.635 14.9651 156.544 14.1907C157.453 13.3827 157.907 12.3391 157.907 11.0597C157.907 9.98239 157.537 9.20806 156.796 8.73673C156.089 8.26539 155.146 8.02973 153.968 8.02973H148.211L146.494 15.3522ZM140.03 28.8862H147.251C149.069 28.8862 150.466 28.5327 151.443 27.8257C152.419 27.1187 152.907 26.0751 152.907 24.6947C152.907 22.6074 151.544 21.5637 148.817 21.5637H141.747L140.03 28.8862Z" fill="white"/>
</svg>
