<svg width="102" height="46" viewBox="0 0 102 46" fill="none" xmlns="http://www.w3.org/2000/svg">
<path d="M49.1065 46C48.0562 46 47.1109 45.8142 46.2707 45.4426C45.4466 45.0547 44.7921 44.5377 44.3074 43.8913C43.8226 43.2288 43.5641 42.4936 43.5317 41.6856H46.3919C46.4403 42.2512 46.707 42.7279 47.1917 43.1157C47.6926 43.4873 48.3148 43.6732 49.0581 43.6732C49.8337 43.6732 50.4316 43.5277 50.8517 43.2369C51.288 42.9299 51.5061 42.542 51.5061 42.0734C51.5061 41.5725 51.2638 41.2009 50.779 40.9585C50.3104 40.7161 49.559 40.4495 48.5248 40.1586C47.523 39.8839 46.707 39.6173 46.0768 39.3587C45.4466 39.1002 44.8972 38.7043 44.4286 38.1711C43.9761 37.6378 43.7499 36.9349 43.7499 36.0623C43.7499 35.3514 43.9599 34.705 44.3801 34.1233C44.8002 33.5254 45.3981 33.0568 46.1737 32.7175C46.9655 32.3781 47.8704 32.2085 48.8884 32.2085C50.4073 32.2085 51.6273 32.5963 52.5484 33.3719C53.4856 34.1314 53.9865 35.1736 54.0512 36.4986H51.288C51.2395 35.9008 50.9971 35.4241 50.5608 35.0686C50.1246 34.7131 49.5348 34.5353 48.7914 34.5353C48.0643 34.5353 47.5068 34.6727 47.119 34.9474C46.7312 35.2221 46.5373 35.5857 46.5373 36.0381C46.5373 36.3936 46.6666 36.6925 46.9251 36.9349C47.1836 37.1773 47.4987 37.3712 47.8704 37.5166C48.242 37.6459 48.7914 37.8156 49.5186 38.0256C50.4881 38.2842 51.2799 38.5508 51.8939 38.8255C52.5241 39.084 53.0655 39.4719 53.5179 39.9889C53.9704 40.506 54.2047 41.1928 54.2208 42.0492C54.2208 42.8087 54.0108 43.4873 53.5906 44.0852C53.1705 44.6831 52.5726 45.1517 51.797 45.491C51.0375 45.8304 50.1407 46 49.1065 46Z" fill="white"/>
<path d="M60.4302 34.6808V42.0734C60.4302 42.5744 60.5433 42.9379 60.7695 43.1642C61.0119 43.3742 61.4159 43.4793 61.9814 43.4793H63.6781V45.7819H61.4967C60.2524 45.7819 59.2991 45.491 58.6365 44.9093C57.974 44.3276 57.6428 43.3823 57.6428 42.0734V34.6808H56.0673V32.4266H57.6428V29.106H60.4302V32.4266H63.6781V34.6808H60.4302Z" fill="white"/>
<path d="M65.3038 39.0436C65.3038 37.7025 65.5785 36.5148 66.1279 35.4806C66.6934 34.4465 67.4529 33.6466 68.4063 33.081C69.3758 32.4993 70.4423 32.2085 71.6057 32.2085C72.6561 32.2085 73.569 32.4185 74.3447 32.8387C75.1364 33.2426 75.7666 33.7516 76.2352 34.3657V32.4266H79.0226V45.7819H76.2352V43.7944C75.7666 44.4245 75.1284 44.9497 74.3204 45.3698C73.5125 45.79 72.5914 46 71.5573 46C70.41 46 69.3597 45.7092 68.4063 45.1275C67.4529 44.5296 66.6934 43.7055 66.1279 42.6552C65.5785 41.5887 65.3038 40.3848 65.3038 39.0436ZM76.2352 39.0921C76.2352 38.1711 76.0413 37.3712 75.6535 36.6925C75.2819 36.0139 74.789 35.4968 74.175 35.1413C73.561 34.7858 72.8984 34.608 72.1875 34.608C71.4765 34.608 70.8139 34.7858 70.1999 35.1413C69.5859 35.4806 69.085 35.9896 68.6971 36.6683C68.3255 37.3308 68.1397 38.1226 68.1397 39.0436C68.1397 39.9647 68.3255 40.7726 68.6971 41.4675C69.085 42.1623 69.5859 42.6955 70.1999 43.0672C70.8301 43.4227 71.4926 43.6004 72.1875 43.6004C72.8984 43.6004 73.561 43.4227 74.175 43.0672C74.789 42.7117 75.2819 42.1946 75.6535 41.516C76.0413 40.8211 76.2352 40.0132 76.2352 39.0921Z" fill="white"/>
<path d="M85.4151 34.3657C85.8191 33.687 86.3523 33.1618 87.0148 32.7902C87.6935 32.4024 88.4934 32.2085 89.4144 32.2085V35.0686H88.7115C87.6289 35.0686 86.8048 35.3433 86.2392 35.8927C85.6898 36.4421 85.4151 37.3954 85.4151 38.7528V45.7819H82.652V32.4266H85.4151V34.3657Z" fill="white"/>
<path d="M96.802 46C95.7517 46 94.8064 45.8142 93.9661 45.4426C93.142 45.0547 92.4876 44.5377 92.0028 43.8913C91.5181 43.2288 91.2595 42.4936 91.2272 41.6856H94.0873C94.1358 42.2512 94.4024 42.7279 94.8872 43.1157C95.3881 43.4873 96.0102 43.6732 96.7535 43.6732C97.5291 43.6732 98.127 43.5277 98.5472 43.2369C98.9834 42.9299 99.2016 42.542 99.2016 42.0734C99.2016 41.5725 98.9592 41.2009 98.4744 40.9585C98.0058 40.7161 97.2545 40.4495 96.2203 40.1586C95.2184 39.8839 94.4024 39.6173 93.7722 39.3587C93.142 39.1002 92.5926 38.7043 92.124 38.1711C91.6716 37.6378 91.4453 36.9349 91.4453 36.0623C91.4453 35.3514 91.6554 34.705 92.0755 34.1233C92.4957 33.5254 93.0935 33.0568 93.8692 32.7175C94.661 32.3781 95.5658 32.2085 96.5839 32.2085C98.1028 32.2085 99.3228 32.5963 100.244 33.3719C101.181 34.1314 101.682 35.1736 101.747 36.4986H98.9834C98.935 35.9008 98.6926 35.4241 98.2563 35.0686C97.82 34.7131 97.2302 34.5353 96.4869 34.5353C95.7598 34.5353 95.2023 34.6727 94.8145 34.9474C94.4267 35.2221 94.2327 35.5857 94.2327 36.0381C94.2327 36.3936 94.362 36.6925 94.6206 36.9349C94.8791 37.1773 95.1942 37.3712 95.5658 37.5166C95.9375 37.6459 96.4869 37.8156 97.2141 38.0256C98.1836 38.2842 98.9754 38.5508 99.5894 38.8255C100.22 39.084 100.761 39.4719 101.213 39.9889C101.666 40.506 101.9 41.1928 101.916 42.0492C101.916 42.8087 101.706 43.4873 101.286 44.0852C100.866 44.6831 100.268 45.1517 99.4925 45.491C98.733 45.8304 97.8362 46 96.802 46Z" fill="white"/>
<path fill-rule="evenodd" clip-rule="evenodd" d="M14.8737 24.7629H0V0H8.53344V18.3429H15.432L14.8737 24.7629ZM39.9192 24.7629H31.7756L31.7755 24.7623L30.8974 13.0137L34.578 10.5434H30.0285L28.6227 6.54651L27.2168 10.5434H22.6673L26.3479 13.0137L24.9421 17.0106L28.6227 14.5404L30.5949 20.9348H26.3215L25.4841 24.7629H17.4691L22.6131 0H34.7752L39.9192 24.7629ZM44.1252 24.7629H58.9989L59.5571 18.3429H52.6586V0H44.1252V24.7629ZM84.0444 24.7629L75.9154 24.7629L75.9152 24.7624L75.0372 13.0137L78.7178 10.5434H74.1683L72.7624 6.54651L71.3565 10.5434H66.8071L70.4877 13.0137L69.0818 17.0106L72.7624 14.5404L74.7346 20.9348H70.4467L69.6093 24.7629H61.5942L66.7382 0H78.9004L84.0444 24.7629Z" fill="#FFDC41"/>
</svg>
